<svg xmlns="http://www.w3.org/2000/svg" width="108" height="25" viewBox="0 0 108 25"><g><g><path fill="#19b9de" d="M107.246 17.96a310.113 310.113 0 0 0-31.538 7.012c-1.106.306-3.344-1.592-2.299-2.662a67.811 67.811 0 0 1 9.441-8.039 622.524 622.524 0 0 0-80.682-2.657C.827 11.657-1.092 8.748.74 8.689c28.145-.9 56.31.116 84.312 3.03-1.757-3.466-2.804-7.09-3.253-10.996-.134-1.17 1.428-.628 1.884-.356a356.257 356.257 0 0 1 23.247 15.071c.757.533 1.812 2.27.316 2.521zm-18.83-3.203a65.321 65.321 0 0 0-7.542 5.494 317.701 317.701 0 0 1 22.282-4.752A356.704 356.704 0 0 0 85.012 3.775c.553 3.164 1.633 6.113 3.206 8.957.675.638 1.058 1.489.197 2.025z"/></g></g></svg>