<svg xmlns="http://www.w3.org/2000/svg" width="38" height="38" viewBox="0 0 38 38"><g><g><path fill="#fadb1e" d="M37.59 33.937l-3.687 3.69a1.27 1.27 0 0 1-1.795 0l-7.555-7.562-3.113 5.395a1.267 1.267 0 0 1-2.279-.165l-9.586-24.06a1.27 1.27 0 0 1 1.65-1.652L35.26 19.18a1.27 1.27 0 0 1 .165 2.281l-5.39 3.116 7.555 7.563a1.272 1.272 0 0 1 0 1.797zM8.394 6.604a1.272 1.272 0 0 1-.898 2.17c-.325 0-.65-.124-.897-.372L3.777 5.578a1.272 1.272 0 0 1 0-1.797 1.268 1.268 0 0 1 1.796 0zm-3.135 7.233H1.27a1.27 1.27 0 0 1 0-2.54h3.99a1.27 1.27 0 1 1 0 2.54zm2.55 2.652c.497.496.497 1.3 0 1.797L4.99 21.11a1.266 1.266 0 0 1-1.796 0 1.273 1.273 0 0 1 0-1.797l2.821-2.823a1.268 1.268 0 0 1 1.796 0zm3.476-11.225V1.27a1.27 1.27 0 1 1 2.539 0v3.994a1.27 1.27 0 1 1-2.54 0zm5.187 2.554a1.272 1.272 0 0 1 0-1.798l2.82-2.824a1.27 1.27 0 1 1 1.796 1.797l-2.82 2.825a1.267 1.267 0 0 1-1.796 0z"/></g></g></svg>