<svg id="footer_icons.svg" xmlns="http://www.w3.org/2000/svg" width="95" height="56" viewBox="0 0 95 56">
  <defs>
    <style>
      .cls-1 {
        fill: #fff;
      }

      .cls-1, .cls-2 {
        fill-rule: evenodd;
      }

      .cls-2 {
        fill: #333;
      }
    </style>
  </defs>
  <path id="Rounded_Rectangle_801_copy_10" data-name="Rounded Rectangle 801 copy 10" class="cls-1" d="M1161,7610v6a3,3,0,0,1-3,3h-8a3,3,0,0,1-3-3v-2h0v-2h3v-6a3,3,0,0,1,3-3h8v0.18a2.98,2.98,0,0,1,4,2.82v4h-4Zm-12,6a1,1,0,0,0,1,1h5.18a3,3,0,0,1-.18-1v-2h-6v2Zm3-10v6h5v4a1,1,0,0,0,2,0v-11h-6A1,1,0,0,0,1152,7606Zm11,0a1,1,0,0,0-2,0v2h2v-2Z" transform="translate(-1106 -7563)"/>
  <path id="Rectangle_404_copy" data-name="Rectangle 404 copy" class="cls-1" d="M1141,7616h-2v3h-8v-3h-2a2.006,2.006,0,0,1-2-2v-5a2,2,0,0,1,2-2h2v-4h8v4h2a2,2,0,0,1,2,2v5A2.006,2.006,0,0,1,1141,7616Zm-8,1h4v-4h-4v4Zm4-12h-4v2h4v-2Zm4,4h-12v5h2v-3h8v3h2v-5Z" transform="translate(-1106 -7563)"/>
  <path id="Shape_51_copy_15" data-name="Shape 51 copy 15" class="cls-1" d="M1172.74,7614a17.7,17.7,0,0,0,1.13,1.73,0.466,0.466,0,0,1-.14.73l-0.3.26a1,1,0,0,1-.8.28,4.925,4.925,0,0,1-1.5-.23,4.246,4.246,0,0,1-1.89-3.1,9.37,9.37,0,0,1,.02-4.3,4.332,4.332,0,0,1,1.93-3.12,4.6,4.6,0,0,1,1.5-.24,0.954,0.954,0,0,1,.8.27l0.3,0.25a0.487,0.487,0,0,1,.11.74c-0.46.68-.79,1.16-1.13,1.73a0.43,0.43,0,0,1-.56.18c-0.19-.02-0.32-0.04-0.47-0.06a0.558,0.558,0,0,0-.7.31,6.2,6.2,0,0,0-.39,2.08,5.992,5.992,0,0,0,.37,2.08,0.541,0.541,0,0,0,.69.3c0.15-.02.29-0.04,0.47-0.06a0.436,0.436,0,0,1,.56.17h0Z" transform="translate(-1106 -7563)"/>
  <path id="Rectangle_583_copy_2" data-name="Rectangle 583 copy 2" class="cls-1" d="M1199,7616h-7a2.006,2.006,0,0,1-2-2v-5a2,2,0,0,1,2-2h7a2,2,0,0,1,2,2v5A2.006,2.006,0,0,1,1199,7616Zm0-2v-3.04l-3,2.04h-1l-3-2.04V7614h7Zm-6.62-5,3.08,2.06,3.07-2.06h-6.15Z" transform="translate(-1106 -7563)"/>
  <path id="Ellipse_255_copy_4" data-name="Ellipse 255 copy 4" class="cls-1" d="M1184.76,7610.73l0.02,0.02L1182,7617h-1l-2.75-6.19,0.01-.01a3.316,3.316,0,0,1-.26-1.3,3.5,3.5,0,0,1,7,0A3.368,3.368,0,0,1,1184.76,7610.73Zm-3.26-2.73a1.484,1.484,0,0,0-1.4,2.02l-0.01.01,1.38,3.97,1.4-3.9c0.01-.02.01-0.04,0.02-0.06l0.02-.04-0.01-.01a1.339,1.339,0,0,0,.1-0.49A1.5,1.5,0,0,0,1181.5,7608Z" transform="translate(-1106 -7563)"/>
  <path id="Rounded_Rectangle_645_copy_2" data-name="Rounded Rectangle 645 copy 2" class="cls-1" d="M1121.91,7612.77v0.01l-12.28,5.94a2.49,2.49,0,0,1-3.39-3.28l-0.02-.03L1109,7611l-2.66-4.19,0.02-.03a2.539,2.539,0,0,1-.36-1.28,2.5,2.5,0,0,1,2.5-2.5,2.427,2.427,0,0,1,1.11.27l12.3,5.95v0.01A1.982,1.982,0,0,1,1121.91,7612.77Zm-13.62-7.66-0.15.15,2.67,4.74H1114a1,1,0,0,1,0,2h-3.22l-2.6,4.6,0.15,0.16,12.56-5.75Z" transform="translate(-1106 -7563)"/>
  <path id="Rounded_Rectangle_801_copy_11" data-name="Rounded Rectangle 801 copy 11" class="cls-2" d="M1161,7590v6a3,3,0,0,1-3,3h-8a3,3,0,0,1-3-3v-2h0v-2h3v-6a3,3,0,0,1,3-3h8v0.18a2.98,2.98,0,0,1,4,2.82v4h-4Zm-12,6a1,1,0,0,0,1,1h5.18a3.051,3.051,0,0,1-.18-1v-2h-6v2Zm3-10v6h5v4a1,1,0,0,0,2,0v-11h-6A1,1,0,0,0,1152,7586Zm11,0a1,1,0,0,0-2,0v2h2v-2Z" transform="translate(-1106 -7563)"/>
  <path id="Rectangle_404_copy_2" data-name="Rectangle 404 copy 2" class="cls-2" d="M1141,7596h-2v3h-8v-3h-2a2.006,2.006,0,0,1-2-2v-5a2,2,0,0,1,2-2h2v-4h8v4h2a2,2,0,0,1,2,2v5A2.006,2.006,0,0,1,1141,7596Zm-8,1h4v-4h-4v4Zm4-12h-4v2h4v-2Zm4,4h-12v5h2v-3h8v3h2v-5Z" transform="translate(-1106 -7563)"/>
  <path id="Shape_51_copy_16" data-name="Shape 51 copy 16" class="cls-2" d="M1172.74,7594a17.7,17.7,0,0,0,1.13,1.73,0.466,0.466,0,0,1-.14.73l-0.3.26a1,1,0,0,1-.8.28,4.925,4.925,0,0,1-1.5-.23,4.246,4.246,0,0,1-1.89-3.1,9.37,9.37,0,0,1,.02-4.3,4.332,4.332,0,0,1,1.93-3.12,4.6,4.6,0,0,1,1.5-.24,0.954,0.954,0,0,1,.8.27l0.3,0.25a0.487,0.487,0,0,1,.11.74c-0.46.68-.79,1.16-1.13,1.73a0.43,0.43,0,0,1-.56.18c-0.19-.02-0.32-0.04-0.47-0.06a0.558,0.558,0,0,0-.7.31,6.2,6.2,0,0,0-.39,2.08,6.043,6.043,0,0,0,.37,2.08,0.541,0.541,0,0,0,.69.3c0.15-.02.29-0.04,0.47-0.06a0.436,0.436,0,0,1,.56.17h0Z" transform="translate(-1106 -7563)"/>
  <path id="Rectangle_583_copy_3" data-name="Rectangle 583 copy 3" class="cls-2" d="M1199,7596h-7a2.006,2.006,0,0,1-2-2v-5a2,2,0,0,1,2-2h7a2,2,0,0,1,2,2v5A2.006,2.006,0,0,1,1199,7596Zm0-2v-3.04l-3,2.04h-1l-3-2.04V7594h7Zm-6.62-5,3.08,2.06,3.07-2.06h-6.15Z" transform="translate(-1106 -7563)"/>
  <path id="Ellipse_255_copy_5" data-name="Ellipse 255 copy 5" class="cls-2" d="M1184.76,7590.73l0.02,0.02L1182,7597h-1l-2.75-6.19,0.01-.01a3.316,3.316,0,0,1-.26-1.3,3.5,3.5,0,0,1,7,0A3.368,3.368,0,0,1,1184.76,7590.73Zm-3.26-2.73a1.484,1.484,0,0,0-1.4,2.02l-0.01.01,1.38,3.97,1.4-3.9a0.257,0.257,0,0,1,.02-0.05l0.02-.05-0.01-.01a1.339,1.339,0,0,0,.1-0.49A1.5,1.5,0,0,0,1181.5,7588Z" transform="translate(-1106 -7563)"/>
  <path id="Rounded_Rectangle_645_copy_3" data-name="Rounded Rectangle 645 copy 3" class="cls-2" d="M1121.91,7592.77v0.01l-12.28,5.94a2.49,2.49,0,0,1-3.39-3.28l-0.02-.03L1109,7591l-2.66-4.19,0.02-.03a2.539,2.539,0,0,1-.36-1.28,2.5,2.5,0,0,1,2.5-2.5,2.427,2.427,0,0,1,1.11.27l12.3,5.95v0.01A1.982,1.982,0,0,1,1121.91,7592.77Zm-13.62-7.66-0.15.16,2.67,4.73H1114a1,1,0,0,1,0,2h-3.22l-2.6,4.6,0.15,0.16,12.56-5.75Z" transform="translate(-1106 -7563)"/>
  <path id="Rounded_Rectangle_801_copy_12" data-name="Rounded Rectangle 801 copy 12" class="cls-1" d="M1147,7579v-3a3,3,0,0,0,3,3h8a3,3,0,0,0,3-3v-6h4v-4a3,3,0,0,0-3-3h3v16h-18Zm2-3v-2h6v2a3.051,3.051,0,0,0,.18,1H1150A1,1,0,0,1,1149,7576Zm9,1a1,1,0,0,1-1-1v-4h-5v-6a1,1,0,0,1,1-1h6v11A1,1,0,0,1,1158,7577Zm5-11v2h-2v-2A1,1,0,0,1,1163,7566Zm-2-3h1a3,3,0,0,0-1,.18V7563Zm-11,3v6h-3v-9h6A3,3,0,0,0,1150,7566Z" transform="translate(-1106 -7563)"/>
  <path id="Rectangle_404_copy_3" data-name="Rectangle 404 copy 3" class="cls-1" d="M1127,7579v-5a2.006,2.006,0,0,0,2,2h2v3h8v-3h2a2.006,2.006,0,0,0,2-2v-5a2,2,0,0,0-2-2h-2v-4h4v16h-16Zm6-14h4v2h-4v-2Zm0,12v-4h4v4h-4Zm-4-3v-5h12v5h-2v-3h-8v3h-2Zm2-7h-2a2,2,0,0,0-2,2v-6h4v4Z" transform="translate(-1106 -7563)"/>
  <path id="Shape_51_copy_17" data-name="Shape 51 copy 17" class="cls-1" d="M1173.79,7566.53l-0.3-.25a0.954,0.954,0,0,0-.8-0.27,4.6,4.6,0,0,0-1.5.24,4.332,4.332,0,0,0-1.93,3.12,9.37,9.37,0,0,0-.02,4.3,4.246,4.246,0,0,0,1.89,3.1,4.925,4.925,0,0,0,1.5.23,1,1,0,0,0,.8-0.28l0.3-.26a0.466,0.466,0,0,0,.14-0.73,17.7,17.7,0,0,1-1.13-1.73,0.436,0.436,0,0,0-.56-0.17c-0.18.02-.32,0.04-0.47,0.06a0.541,0.541,0,0,1-.69-0.3,6.043,6.043,0,0,1-.37-2.08,6.2,6.2,0,0,1,.39-2.08,0.558,0.558,0,0,1,.7-0.31c0.15,0.02.28,0.04,0.47,0.06a0.43,0.43,0,0,0,.56-0.18c0.34-.57.67-1.05,1.13-1.73a0.67,0.67,0,0,0,.1-0.21V7577h-5v-11h5v0.84A0.682,0.682,0,0,0,1173.79,7566.53Z" transform="translate(-1106 -7563)"/>
  <path id="Rectangle_583_copy_4" data-name="Rectangle 583 copy 4" class="cls-1" d="M1190,7576v-2a2.006,2.006,0,0,0,2,2h7a2.006,2.006,0,0,0,2-2v-5a2,2,0,0,0-1.99-2H1201v9h-11Zm2.38-7h6.15l-3.07,2.06Zm6.62,5h-7v-3.04l3,2.04h1l3-2.04V7574Zm-9-5v-2h1.99A2,2,0,0,0,1190,7569Z" transform="translate(-1106 -7563)"/>
  <path id="Ellipse_255_copy_6" data-name="Ellipse 255 copy 6" class="cls-1" d="M1178,7566h7v11h-7v-11Zm6.76,4.73,0.02,0.02L1182,7577h-1l-2.75-6.19,0.01-.01a3.316,3.316,0,0,1-.26-1.3,3.5,3.5,0,0,1,7,0A3.368,3.368,0,0,1,1184.76,7570.73Zm-3.26-2.73a1.484,1.484,0,0,0-1.4,2.02l-0.01.01,1.38,3.97,1.4-3.9a0.257,0.257,0,0,1,.02-0.05l0.02-.05-0.01-.01a1.339,1.339,0,0,0,.1-0.49A1.5,1.5,0,0,0,1181.5,7568Z" transform="translate(-1106 -7563)"/>
  <path id="Rounded_Rectangle_645_copy_4" data-name="Rounded Rectangle 645 copy 4" class="cls-1" d="M1108.5,7579a2.518,2.518,0,0,0,1.13-.28l12.28-5.94v-0.01A1.99,1.99,0,0,0,1123,7571v8h-14.5Zm13.41-9.77v-0.01l-12.3-5.95a2.427,2.427,0,0,0-1.11-.27H1123v8A1.99,1.99,0,0,0,1121.91,7569.23Zm-7.91.77h-3.19l-2.67-4.74,0.15-.15,12.6,5.9-12.56,5.75-0.15-.16,2.6-4.6H1114A1,1,0,0,0,1114,7570Zm-8-4.5V7563h2.5A2.5,2.5,0,0,0,1106,7565.5Zm0.34,1.31L1109,7571l-2.78,4.41,0.02,0.03a2.5,2.5,0,0,0-.24,1.06v-11a2.539,2.539,0,0,0,.36,1.28Zm2.16,12.19H1106v-2.5A2.5,2.5,0,0,0,1108.5,7579Z" transform="translate(-1106 -7563)"/>
</svg>
