<svg xmlns="http://www.w3.org/2000/svg" viewBox="0 0 320.03 512"><defs><style>.cls-1{fill:#fadb1e;}.cls-2{fill:#fff;}</style></defs><title>grid-icon2</title><g id="Слой_2" data-name="Слой 2"><g id="Слой_1-2" data-name="Слой 1"><path class="cls-1" d="M270,326a10,10,0,1,0-10-10A10,10,0,0,0,270,326Z"/><path class="cls-2" d="M1.93,320.16A291.93,291.93,0,0,0,79.71,459.82l.32.32V502a10,10,0,0,0,10,10H270a10,10,0,0,0,10-10V459a248.14,248.14,0,0,0,40-135.1V246a40,40,0,0,0-62.25-33.22,40,40,0,0,0-60-20A40,40,0,0,0,140,171.36V80a40,40,0,0,0-80,0V224L32.7,242.2A73.81,73.81,0,0,0,1.93,320.16ZM43.8,258.84,60,248v68a10,10,0,0,0,20,0V80a20,20,0,0,1,40,0V276a10,10,0,0,0,20,0V206a20,20,0,0,1,40,0v70a10,10,0,0,0,20,0V226a20,20,0,0,1,40,0v50a10,10,0,0,0,20,0V246a20,20,0,0,1,40,0v77.89a228.13,228.13,0,0,1-38.32,126.56A10.08,10.08,0,0,0,260,456v36H100V456a10,10,0,0,0-2.93-7.07A272.68,272.68,0,0,1,21.39,315.58,53.74,53.74,0,0,1,43.8,258.84Z"/><path class="cls-1" d="M231.2,442.13a10,10,0,0,0,13.87-2.77,206.17,206.17,0,0,0,32.24-81.83,10,10,0,1,0-19.74-3.22,186.29,186.29,0,0,1-29.14,73.95A10,10,0,0,0,231.2,442.13Z"/><path class="cls-1" d="M30,90A10,10,0,0,0,40,80a60,60,0,0,1,120,0,10,10,0,0,0,20,0A80,80,0,0,0,20,80,10,10,0,0,0,30,90Z"/></g></g></svg>