<svg xmlns="http://www.w3.org/2000/svg" viewBox="0 0 512 512"><defs><style>.cls-1{fill:#fadb1e;}.cls-2{fill:#fff;}</style></defs><title>grid-icon1</title><g id="Слой_2" data-name="Слой 2"><g id="Capa_1" data-name="Capa 1"><path class="cls-1" d="M428,0a84,84,0,1,0,84,84A84.09,84.09,0,0,0,428,0Zm0,148a64,64,0,1,1,64-64A64.07,64.07,0,0,1,428,148Z"/><path class="cls-1" d="M316.07,150.93A10,10,0,1,0,319,158,10.08,10.08,0,0,0,316.07,150.93Z"/><path class="cls-2" d="M400,197.17a10,10,0,0,0-10,10V252H138V168H256a10,10,0,0,0,0-20H128a10,10,0,0,0-10,10V262a10,10,0,0,0,10,10H400a10,10,0,0,0,10-10V207.17A10,10,0,0,0,400,197.17Z"/><path class="cls-2" d="M400,356H288.23a10,10,0,0,0,0,20H400a10,10,0,0,0,0-20Z"/><path class="cls-2" d="M400,304H288.23a10,10,0,0,0,0,20H400a10,10,0,0,0,0-20Z"/><path class="cls-2" d="M400,408H288.23a10,10,0,0,0,0,20H400a10,10,0,0,0,0-20Z"/><path class="cls-1" d="M239.77,304H183.88a10,10,0,0,0,0,20h45.89v84H128a10,10,0,0,0,0,20H239.77a10,10,0,0,0,10-10V314A10,10,0,0,0,239.77,304Z"/><path class="cls-2" d="M448,201.5a10,10,0,0,0-10,10v86.31a10,10,0,0,0,20,0V211.5A10,10,0,0,0,448,201.5Z"/><path class="cls-1" d="M455.07,330.93A10,10,0,1,0,458,338,10.08,10.08,0,0,0,455.07,330.93Z"/><path class="cls-2" d="M448,372.69a10,10,0,0,0-10,10V482a10,10,0,0,1-10,10H100a10,10,0,0,1-10-10V422.89l60.5-47a35.89,35.89,0,0,0-33.07-62.48l-40.51,13.1a10,10,0,1,0,6.16,19l40.51-13.1a15.89,15.89,0,0,1,14.64,27.66l-64.37,50A10,10,0,0,0,70,418v67.14c0,.8.1,1.05.28.89A30,30,0,0,0,100,512H428a30,30,0,0,0,30-30V382.69A10,10,0,0,0,448,372.69Z"/><path class="cls-2" d="M304.33,68H100A30,30,0,0,0,70,98V220.33L1.65,324.07A10,10,0,0,0,0,329.58V502a10,10,0,0,0,20,0V332.57l50-75.88v41.12a10,10,0,0,0,20,0V98a10,10,0,0,1,10-10H304.33a10,10,0,0,0,0-20Z"/><path class="cls-1" d="M465.9,60.77a10,10,0,0,0-14.14,0L426,86.53l-9.34-9.34a10,10,0,0,0-14.14,14.14l16.41,16.41a10,10,0,0,0,14.14,0L465.9,74.92A10,10,0,0,0,465.9,60.77Z"/></g></g></svg>