<svg xmlns="http://www.w3.org/2000/svg" viewBox="0 0 512 512"><defs><style>.cls-1{fill:#fff;}.cls-2{fill:#fadb1e;}</style></defs><title>grid-icon3</title><g id="Слой_2" data-name="Слой 2"><g id="Capa_1" data-name="Capa 1"><path class="cls-1" d="M462,44H414.33V30a30,30,0,0,0-60,0V44h-168V30a30,30,0,1,0-60,0V44.37a9.76,9.76,0,0,0-2.66-.37H83.82a50.06,50.06,0,0,0-50,50V264.33a10,10,0,0,0,20,0V147H414.33a10,10,0,0,0,0-20H53.82V94a30,30,0,0,1,30-30h39.85a10.17,10.17,0,0,0,2.66-.37V76.5a30,30,0,1,0,60,0V64h168V76.5a30,30,0,0,0,60,0V64H462a30,30,0,0,1,30,30V474a18,18,0,1,1-36,0V448.13a10,10,0,0,0-10-10H329.67a10,10,0,1,0,0,20H436V474a37.86,37.86,0,0,0,4.54,18H38a18,18,0,0,1-18-18V458.13H243.82a10,10,0,1,0,0-20H143.91a82,82,0,1,0-106.86,0H10a10,10,0,0,0-10,10V474a38,38,0,0,0,38,38H474a38.05,38.05,0,0,0,38-38V94A50.06,50.06,0,0,0,462,44ZM166.33,76.5a10,10,0,0,1-20,0V30a10,10,0,0,1,20,0Zm228,0a10,10,0,0,1-20,0V30a10,10,0,0,1,20,0ZM28.48,376a62,62,0,1,1,62,62A62.07,62.07,0,0,1,28.48,376Z"/><path class="cls-2" d="M468.31,129.93a10,10,0,1,0,2.93,7.07A10.08,10.08,0,0,0,468.31,129.93Z"/><path class="cls-2" d="M298.65,441.05a10,10,0,1,0,2.93,7.07A10.07,10.07,0,0,0,298.65,441.05Z"/><path class="cls-1" d="M226.24,304a38,38,0,1,0,38,38A38,38,0,0,0,226.24,304Zm0,56a18,18,0,1,1,18-18A18,18,0,0,1,226.24,360Z"/><path class="cls-1" d="M319.58,304a38,38,0,1,0,38,38A38,38,0,0,0,319.58,304Zm0,56a18,18,0,1,1,18-18A18,18,0,0,1,319.58,360Z"/><path class="cls-1" d="M412.91,304a38,38,0,1,0,38,38A38,38,0,0,0,412.91,304Zm0,56a18,18,0,1,1,18-18A18,18,0,0,1,412.91,360Z"/><path class="cls-1" d="M132.91,200a38,38,0,1,0,38,38A38,38,0,0,0,132.91,200Zm0,56a18,18,0,1,1,18-18A18,18,0,0,1,132.91,256Z"/><path class="cls-1" d="M319.58,200a38,38,0,1,0,38,38A38,38,0,0,0,319.58,200Zm0,56a18,18,0,1,1,18-18A18,18,0,0,1,319.58,256Z"/><path class="cls-1" d="M412.91,200a38,38,0,1,0,38,38A38,38,0,0,0,412.91,200Zm0,56a18,18,0,1,1,18-18A18,18,0,0,1,412.91,256Z"/><path class="cls-1" d="M226.24,200a38,38,0,1,0,38,38A38,38,0,0,0,226.24,200Zm0,56a18,18,0,1,1,18-18A18,18,0,0,1,226.24,256Z"/><path class="cls-2" d="M126.1,351.63a10,10,0,0,0-14.14,0L79.39,384.2,68.27,373.07a10,10,0,1,0-14.15,14.14l18.2,18.2a10,10,0,0,0,14.15,0l39.63-39.64A10,10,0,0,0,126.1,351.63Z"/></g></g></svg>