<svg xmlns="http://www.w3.org/2000/svg" viewBox="0 0 640 640"><defs><style>.cls-1{fill:#fff;}.cls-2{fill:#fadb1e;}</style></defs><title>grid-icon4</title><g id="Слой_2" data-name="Слой 2"><g id="Слой_1-2" data-name="Слой 1"><path class="cls-1" d="M318.48,95.58C192.54,95.58,90.07,198,90.07,324c0,33.31,8.48,67.8,24.51,99.77A250.67,250.67,0,0,0,175.86,502a12.64,12.64,0,0,0,16.35-19.28C144.8,442.54,115.35,381.7,115.35,324c0-112,91.13-203.14,203.13-203.14S521.63,212,521.63,324,430.5,527.13,318.48,527.13c-13,0-32.08-2.5-44.34-4.82a12.64,12.64,0,0,0-4.69,24.84c13.82,2.62,34.34,5.25,49,5.25,126,0,228.42-102.46,228.42-228.41S444.43,95.58,318.48,95.58Z"/><path class="cls-2" d="M224.72,369.43a15.83,15.83,0,0,0,7.69-1.75,5.44,5.44,0,0,0,3.22-5V273.76a5.31,5.31,0,0,0-3.22-4.9,18.56,18.56,0,0,0-15.39,0,5.3,5.3,0,0,0-3.21,4.9v47.55l-22.66-43.22q-3.78-7.26-6.78-9.09t-9.31-1.81a15.79,15.79,0,0,0-7.68,1.75,5.42,5.42,0,0,0-3.22,5v88.81a5.42,5.42,0,0,0,3.22,5,17.77,17.77,0,0,0,15.38,0,5.43,5.43,0,0,0,3.21-5V315.16l26.58,48.39Q215.76,369.43,224.72,369.43Z"/><path class="cls-2" d="M324,286.21a5.4,5.4,0,0,0,4.82-2.8,12.63,12.63,0,0,0,1.75-6.85,12.46,12.46,0,0,0-1.68-6.58,5.37,5.37,0,0,0-4.89-2.79H274.23a12.41,12.41,0,0,0-6.72,1.75,5.51,5.51,0,0,0-2.79,5v88.81a5.52,5.52,0,0,0,2.79,5,12.41,12.41,0,0,0,6.72,1.75H324a5.37,5.37,0,0,0,4.89-2.8,12.4,12.4,0,0,0,1.68-6.57,12.61,12.61,0,0,0-1.75-6.85,5.4,5.4,0,0,0-4.82-2.8H286.53V326.63h21a5.52,5.52,0,0,0,4.89-2.51,10.1,10.1,0,0,0,1.68-5.74,10.27,10.27,0,0,0-1.75-6,5.57,5.57,0,0,0-4.82-2.51h-21V286.21Z"/><path class="cls-2" d="M380.24,368.38a23.51,23.51,0,0,0,18.47,0c2.7-1.25,4.33-3.05,4.89-5.38l7.28-33.15L418.15,363c.56,2.33,2.19,4.13,4.89,5.38a21.63,21.63,0,0,0,9.23,1.89,21.19,21.19,0,0,0,9.17-1.89,9.53,9.53,0,0,0,5.24-5.38l27.83-85.32a5.6,5.6,0,0,0,.29-1.82q0-3.35-4.55-6a18.82,18.82,0,0,0-9.58-2.65q-5.88,0-7,4.06L432.41,343l-11.05-47.27a6.18,6.18,0,0,0-3.63-4.2,16,16,0,0,0-13.71,0,6.2,6.2,0,0,0-3.64,4.2l-11,47.27-21.26-71.74q-1.12-4.06-7-4.06a18.73,18.73,0,0,0-9.58,2.66c-3,1.77-4.55,3.78-4.55,6a5.88,5.88,0,0,0,.28,1.82L375.07,363A9,9,0,0,0,380.24,368.38Z"/><path class="cls-1" d="M322.86,69.08A12.64,12.64,0,0,0,335.5,56.45V12.64a12.64,12.64,0,1,0-25.27,0V56.45A12.62,12.62,0,0,0,322.86,69.08Z"/><path class="cls-1" d="M322.86,570.92a12.63,12.63,0,0,0-12.63,12.63v43.81a12.64,12.64,0,1,0,25.27,0V583.55A12.63,12.63,0,0,0,322.86,570.92Z"/><path class="cls-1" d="M56.45,307.36H12.64a12.64,12.64,0,1,0,0,25.28H56.45a12.64,12.64,0,0,0,0-25.28Z"/><path class="cls-1" d="M627.36,307.36H583.55a12.64,12.64,0,0,0,0,25.28h43.81a12.64,12.64,0,1,0,0-25.28Z"/><path class="cls-1" d="M122.7,501.41l-31,31a12.64,12.64,0,0,0,17.87,17.88l31-31a12.64,12.64,0,0,0-17.87-17.88Z"/><path class="cls-1" d="M504.35,150.27a12.6,12.6,0,0,0,8.94-3.71l31-31a12.64,12.64,0,0,0-17.88-17.88l-31,31a12.65,12.65,0,0,0,8.94,21.58Z"/><path class="cls-1" d="M124.16,149.9A12.64,12.64,0,0,0,142,132l-31-31a12.64,12.64,0,0,0-17.87,17.87Z"/><path class="cls-1" d="M514.75,504.75a12.64,12.64,0,1,0-17.87,17.87l31,31a12.64,12.64,0,0,0,17.88-17.87Z"/><path class="cls-2" d="M221.76,507.17l-.63.14a12.64,12.64,0,1,0,5.8,24.6l.64-.15a12.63,12.63,0,1,0-5.81-24.59Z"/></g></g></svg>