<svg xmlns="http://www.w3.org/2000/svg" width="60" height="60" viewBox="0 0 60 60"><g><g><path fill="#fff" d="M60.122 48.873v7.254a3.87 3.87 0 0 1-3.87 3.87H3.997a3.87 3.87 0 0 1-3.87-3.87v-7.254c0-1.062.158-2.114.47-3.13l7.314-23.769a.968.968 0 0 1 .925-.683h2.902V9.68a.967.967 0 0 1 1.4-.865l1.503.751 1.503-.75a.967.967 0 0 1 .865 0l1.503.75 1.502-.75a.968.968 0 0 1 .866 0l1.502.75 1.503-.75a.967.967 0 0 1 1.4.864v11.612h5.705l.106-1.064a.968.968 0 0 1 .963-.871h4.838v-3.87H28.19a.968.968 0 0 1-.967-.969V.97c0-.534.433-.968.967-.968h23.224c.534 0 .968.434.968.968v13.547a.968.968 0 0 1-.968.968h-8.709v3.87h4.838c.497 0 .914.377.963.872l.107 1.064h2.8c.425 0 .8.277.925.683l7.314 23.768c.312 1.017.47 2.07.47 3.13zM29.157 13.55h21.288V1.938H29.157zm9.676 5.806h1.936v-3.87h-1.936zm-6.671 9.676H47.44l-.774-7.74h-13.73zM13.674 11.245v16.82h9.677v-16.82l-.968.484-1.935-.968-1.935.968-1.935-.968-1.936.968zm44.513 37.628c0-.868-.13-1.73-.386-2.561L50.7 23.227h-1.893l.668 6.677a.967.967 0 0 1-.963 1.064H31.092a.968.968 0 0 1-.963-1.064l.668-6.677h-5.51v4.838h.967a.968.968 0 0 1 0 1.935H10.77a.968.968 0 0 1 0-1.935h.968v-4.838H9.55L2.448 46.312a8.718 8.718 0 0 0-.386 2.56v7.255c0 1.069.867 1.935 1.936 1.935H56.25a1.935 1.935 0 0 0 1.936-1.935zM5.933 46.45h48.383a.968.968 0 1 1 0 1.936H5.933a.968.968 0 0 1 0-1.936zm18.386 5.806H35.93a.968.968 0 1 1 0 1.936H24.32a.968.968 0 1 1 0-1.936zm25.14-18.575l1.935 9.677a.967.967 0 0 1-.949 1.157H34.963a.968.968 0 0 1-.968-.968V33.87c0-.535.434-.968.968-.968h13.546c.461 0 .859.325.95.778zm-1.741 1.157h-2.111v2.903h2.691zm-4.046 2.903v-2.903h-2.903v2.903zm-2.903 1.936v2.902h2.903v-2.902zm-4.839-4.84v2.904h2.903v-2.903zm0 7.742h2.903v-2.902H35.93zm13.335 0l-.58-2.902h-3.078v2.902zm-23.011-8.708v9.676a.968.968 0 0 1-.968.968H9.804a.968.968 0 0 1-.948-1.157l1.935-9.677a.967.967 0 0 1 .949-.778h13.546c.535 0 .968.433.968.968zm-1.935.967h-2.903v2.903h2.903zM19.48 37.74v-2.903h-2.902v2.903zm-2.902 1.936v2.902h2.902v-2.902zm-4.046-4.84l-.581 2.904h2.691v-2.903zm-1.548 7.742h3.658v-2.902h-3.077zm13.335 0v-2.902h-2.903v2.902zM16.578 13.55h3.87a.967.967 0 1 1 0 1.935h-3.87a.968.968 0 0 1 0-1.935zm0 3.87h3.87a.967.967 0 1 1 0 1.936h-3.87a.968.968 0 1 1 0-1.936zm0 3.871h3.87a.967.967 0 1 1 0 1.936h-3.87a.968.968 0 0 1 0-1.936zm14.514-10.645V4.841c0-.535.433-.968.968-.968h15.482c.535 0 .968.433.968.968v5.805a.968.968 0 0 1-.968.968H32.06a.968.968 0 0 1-.968-.968zm1.936-.967h13.547v-3.87H33.028zm2.902 14.515a.968.968 0 1 1 0 1.935.968.968 0 0 1 0-1.935zm7.742 0a.967.967 0 1 1 0 1.935.967.967 0 0 1 0-1.935zM30.124 42.58a.968.968 0 1 1 0 1.936.968.968 0 0 1 0-1.936zm0-4.838a.967.967 0 1 1 0 1.935.967.967 0 0 1 0-1.935zm0-4.838a.967.967 0 1 1 0 1.935.967.967 0 0 1 0-1.935z"/></g></g></svg>