<svg xmlns="http://www.w3.org/2000/svg" width="61" height="60" viewBox="0 0 61 60"><g><g><path fill="#fff" d="M7.17 19.247h1.936a.968.968 0 0 1 0 1.936H7.17a.967.967 0 1 1 0-1.936zm47.416-3.87v1.935h.968a.968.968 0 0 1 0 1.935h-3.87v10.645a.967.967 0 0 1-.968.967h-3.587c.293.606.502 1.254.602 1.936h4.92c.534 0 .967.433.967.967v8.71h5.807c.534 0 .967.433.967.967v15.483a.967.967 0 0 1-.967.967H45.877a.968.968 0 0 1-.967-.967V43.439c0-.534.433-.968.967-.968h5.806V34.73h-3.948c-.472 3.277-3.291 5.806-6.696 5.806H19.75c-3.734 0-6.774-3.04-6.774-6.774h-1.935v8.71h5.806c1.603 0 2.903 1.3 2.903 2.903v8.708h.968c.534 0 .967.434.967.968v1.935c0 1.604-1.3 2.903-2.903 2.903H3.3a2.903 2.903 0 0 1-2.903-2.903v-1.935c0-.534.433-.968.967-.968h.968v-8.708c0-1.603 1.3-2.904 2.903-2.904h3.871v-9.676c0-.534.433-.967.968-.967h3.207c.209-.7.528-1.35.94-1.936H8.138a.968.968 0 0 1-.968-.968v-3.871H3.3a2.902 2.902 0 0 1-2.903-2.902V2.797c0-1.603 1.3-2.903 2.903-2.903h9.676c1.604 0 2.903 1.3 2.903 2.903v19.354c0 1.603-1.3 2.902-2.903 2.902h-3.87v2.904h7.173a6.734 6.734 0 0 1 2.043-.813c1.131-2.97 4.023-4.993 7.234-4.993 1.09 0 2.164.232 3.157.678a7.772 7.772 0 0 1 6.52-3.582c4.268 0 7.741 3.474 7.741 7.742a5.9 5.9 0 0 1-.006.287 6.767 6.767 0 0 1 2.786 1.648h3.994v-9.677h-3.87a.967.967 0 1 1 0-1.935h.967v-1.935h-2.903a2.903 2.903 0 0 1-2.903-2.903V2.797c0-1.603 1.3-2.903 2.903-2.903h13.547c1.603 0 2.903 1.3 2.903 2.903v9.677c0 1.603-1.3 2.903-2.903 2.903zM13.944 5.7H2.332v9.676h11.612zM3.3 1.83a.968.968 0 0 0-.968.967v.968h11.612v-.968a.968.968 0 0 0-.968-.967zm-.968 20.32c0 .534.434.968.968.968h9.676a.968.968 0 0 0 .968-.967v-4.84H2.332zM19.75 56.02H2.332v.967c0 .534.434.968.968.968h15.482a.968.968 0 0 0 .968-.968zm-1.935-10.644a.969.969 0 0 0-.968-.968H5.235a.968.968 0 0 0-.967.968v8.708h13.547zm40.642 12.579v-5.806H46.845v5.806zm0-13.547H46.845v5.806h11.612zM41.039 38.6a4.844 4.844 0 0 0 4.838-4.839c0-2.365-1.764-4.419-4.104-4.776l-.957-.145.146-.957a5.88 5.88 0 0 0 .077-.895 5.812 5.812 0 0 0-5.806-5.806 5.826 5.826 0 0 0-5.256 3.355l-.46.984-.924-.57a5.786 5.786 0 0 0-3.037-.866 5.833 5.833 0 0 0-5.572 4.186l-.18.614-.635.076a4.836 4.836 0 0 0-4.257 4.8 4.844 4.844 0 0 0 4.838 4.839zM43.942 1.83a.968.968 0 0 0-.968.967v6.774h15.483V2.797a.968.968 0 0 0-.968-.967zm-.968 10.644c0 .534.434.967.968.967h13.547a.968.968 0 0 0 .968-.967v-.968H42.974zm9.677 2.903H48.78v1.935h3.87zm-2.903 30.965a.968.968 0 1 1 0 1.936.968.968 0 0 1 0-1.936zm5.806 7.741a.968.968 0 1 1 0 1.936.968.968 0 0 1 0-1.936zm-1.936-7.74h1.936a.968.968 0 0 1 0 1.935h-1.936a.968.968 0 0 1 0-1.936zm-3.87 7.74h1.935a.968.968 0 0 1 0 1.936h-1.935a.968.968 0 0 1 0-1.936z"/></g></g></svg>