<svg xmlns="http://www.w3.org/2000/svg" width="44" height="60" viewBox="0 0 44 60"><g><g><path fill="#fff" d="M42.307 53.345a.878.878 0 0 1-.875-.879v-39.87a.878.878 0 0 0-.875-.878h-.876v40.667a2.634 2.634 0 0 1-2.625 2.637H6.074v2.345c0 .484.392.878.875.878h33.608a.878.878 0 0 0 .875-.878v-1.124c0-.485.392-.88.875-.88s.875.395.875.88v1.124a2.634 2.634 0 0 1-2.625 2.637H6.949a2.634 2.634 0 0 1-2.626-2.637v-2.345h-.875a2.634 2.634 0 0 1-2.626-2.637v-3.574c0-.485.392-.88.876-.88.482 0 .875.395.875.88v3.574c0 .485.392.88.875.88h33.608a.878.878 0 0 0 .875-.88V7.616a.878.878 0 0 0-.875-.879H33.19a.877.877 0 0 1-.876-.88c0-.484.392-.878.876-.878h3.866a2.634 2.634 0 0 1 2.625 2.637V9.96h.876a2.634 2.634 0 0 1 2.625 2.637v39.87a.878.878 0 0 1-.875.878zM1.697 45.84a.878.878 0 0 1-.875-.88V7.616A2.634 2.634 0 0 1 3.448 4.98h1.86a2.607 2.607 0 0 1 2.338-1.465h.662V2.351A2.35 2.35 0 0 1 10.65-.002h2.199a2.35 2.35 0 0 1 2.343 2.353v1.163h.661c1.025 0 1.914.598 2.34 1.465h11.24c.483 0 .875.394.875.879s-.392.88-.875.88H18.46v2.95c0 .925-.75 1.678-1.672 1.678H6.711a1.676 1.676 0 0 1-1.67-1.678v-2.95H3.447a.878.878 0 0 0-.875.878V44.96c0 .486-.393.88-.875.88zm8.361-42.325h3.384V2.351a.594.594 0 0 0-.592-.596h-2.2a.595.595 0 0 0-.592.596zM7.646 5.271a.86.86 0 0 0-.855.86V9.61h9.919V6.132a.86.86 0 0 0-.856-.86zM32.913 19.57c.483 0 .875.394.875.879a.877.877 0 0 1-.875.879H18.91a.877.877 0 0 1-.875-.879c0-.485.392-.879.875-.879zm0 3.75c.483 0 .875.394.875.88a.878.878 0 0 1-.875.878H18.91a.878.878 0 0 1-.875-.879c0-.485.392-.878.875-.878zm0 7.618c.483 0 .875.395.875.88a.878.878 0 0 1-.875.878H18.91a.878.878 0 0 1-.875-.879c0-.484.392-.879.875-.879zm0 3.75c.483 0 .875.394.875.88a.877.877 0 0 1-.875.878H18.91a.877.877 0 0 1-.875-.878c0-.486.392-.88.875-.88zm0 7.619c.483 0 .875.393.875.878a.877.877 0 0 1-.875.88H18.91a.877.877 0 0 1-.875-.88c0-.485.392-.878.875-.878zm0 3.75c.483 0 .875.394.875.879a.878.878 0 0 1-.875.879H18.91a.878.878 0 0 1-.875-.88c0-.484.392-.878.875-.878zM17.358 18.296c.314.37.27.924-.097 1.24l-1.793 1.536v4.534c0 .743-.603 1.348-1.342 1.348H8.057c-.74 0-1.342-.605-1.342-1.348V19.51c0-.742.603-1.347 1.342-1.347h6.069c.517 0 .966.296 1.19.728l.808-.693a.872.872 0 0 1 1.234.097zm-3.641 4.278l-1.24 1.063a.87.87 0 0 1-.568.21.868.868 0 0 1-.644-.282l-1.4-1.523a.883.883 0 0 1 .05-1.243.873.873 0 0 1 1.236.05l.83.903 1.736-1.49v-.34H8.466v5.273h5.251zm3.641 7.172a.881.881 0 0 1-.097 1.24l-1.793 1.538v4.45c0 .743-.603 1.348-1.342 1.348H8.057c-.74 0-1.342-.605-1.342-1.348V30.88c0-.743.602-1.348 1.342-1.348h6.069c.54 0 1.005.323 1.217.786l.781-.67a.873.873 0 0 1 1.234.098zm-3.641 4.278l-1.24 1.064a.87.87 0 0 1-1.212-.073l-1.4-1.523a.883.883 0 0 1 .05-1.243.872.872 0 0 1 1.236.051l.83.902 1.736-1.49v-.422H8.466v5.274h5.251zm2.407 7.204a.871.871 0 0 1 1.234.097c.314.37.27.925-.097 1.24l-1.794 1.537v4.24c0 .743-.602 1.348-1.341 1.348H8.057c-.74 0-1.342-.605-1.342-1.348v-6.094c0-.743.603-1.348 1.342-1.348h6.069c.599 0 1.108.398 1.28.944zm-2.407 4.375l-1.24 1.063a.87.87 0 0 1-1.211-.072l-1.401-1.523a.883.883 0 0 1 .05-1.242.873.873 0 0 1 1.236.049l.83.903 1.736-1.49v-.633H8.466v5.274h5.251z"/></g></g></svg>