<svg xmlns="http://www.w3.org/2000/svg" width="60" height="60" viewBox="0 0 60 60"><g><g><path fill="#fff" d="M59.944 5.886V56.89a3 3 0 0 1-3 3H2.936a3 3 0 0 1-3-3V5.886a3 3 0 0 1 3-3h2v-2a1 1 0 0 1 2 0v2h6.002v-2a1 1 0 1 1 2 0v2h6v-2a1 1 0 0 1 2 0v2h6.001v-2a1 1 0 0 1 2 0v2h6.001v-2a1 1 0 1 1 2 0v2h6.001v-2a1 1 0 1 1 2 0v2h6v-2a1 1 0 1 1 2.001 0v2h2a3 3 0 0 1 3 3zm-2 0a1 1 0 0 0-1-1H2.936a1 1 0 0 0-1 1v6h48.005a1 1 0 1 1 0 2H1.937v43.005a1 1 0 0 0 1 1h54.006a1 1 0 0 0 1-1zM6.647 7.176a.999.999 0 0 1-.71 1.71 1 1 0 0 1-.71-1.71c.4-.37 1.019-.37 1.42 0zm8 0a1 1 0 1 1-1.42 0 1.052 1.052 0 0 1 1.42 0zm8.002 0a1 1 0 1 1-1.42 0 1.052 1.052 0 0 1 1.42 0zm8 0a1 1 0 1 1-1.42 0 1.052 1.052 0 0 1 1.42 0zm8.001 0a1 1 0 1 1-1.42 0 1.052 1.052 0 0 1 1.42 0zm8.001 0a1 1 0 1 1-1.42 0 1.052 1.052 0 0 1 1.42 0zm8.001 0a1 1 0 1 1-1.42 0 1.052 1.052 0 0 1 1.42 0zm-.71 13.711V50.89a2 2 0 0 1-2 2H7.938a2 2 0 0 1-2-2V20.887a2 2 0 0 1 2-2h44.005a2 2 0 0 1 2 2zM39.94 28.888h-9v6.001h9zm2 6.001h10.002v-6H41.942zm-2-8.001v-6h-9v6zm-11-6h-9.002v6h9.001zm-9.002 8v6.001h9.001v-6zm-2 0H7.938v6.001h10.001zM7.938 42.89h10.001v-6H7.938zm12.001 0h9.001v-6h-9zm0 2.001v6h9.001v-6zm11.001 6h9.001v-6h-9zm9.001-8v-6h-9v6zm2 0h10.002v-6H41.942zm10.002-22.003H41.942v6.001h10zm-44.005 0v6.001h10.001v-6zm0 30.003h10.001v-6H7.938zm44.005 0v-6H41.942v6z"/></g></g></svg>