<svg xmlns="http://www.w3.org/2000/svg" width="60" height="61" viewBox="0 0 60 61"><g><g><path fill="#fff" d="M-.07 58.199h60.14v2H-.07zM51.6 8.373C44.374 28.911 25.759 43.321 4.025 45.2l-.171-2C24.8 41.39 42.74 27.505 49.705 7.714L51.29 3.2l-5.807 2.894a1 1 0 1 1-.896-1.79l8.018-4a1.004 1.004 0 0 1 1.345.449l4.01 8a.999.999 0 0 1-.45 1.342 1.004 1.004 0 0 1-1.345-.449l-2.949-5.884zM11.958 48.2c.554 0 1.002.448 1.002 1v6c0 .552-.448 1-1.002 1H4.942a1 1 0 0 1-1.002-1v-6c0-.552.448-1 1.002-1zm-1.002 2H5.944v4h5.012zm12.027-5c.554 0 1.003.447 1.003 1v9c0 .552-.449 1-1.003 1h-7.016a1.001 1.001 0 0 1-1.002-1v-9c0-.553.449-1 1.002-1zm-1.002 2H16.97v7h5.012zm12.028-7c.553 0 1.002.448 1.002 1v14c0 .552-.449 1-1.002 1h-7.016a1.001 1.001 0 0 1-1.003-1v-14c0-.552.45-1 1.003-1zm-1.003 2h-5.011v12h5.011zm12.028-9c.554 0 1.003.448 1.003 1v21a1 1 0 0 1-1.003 1h-7.016a1 1 0 0 1-1.002-1v-21c0-.552.449-1 1.002-1zm-1.002 2h-5.011v19h5.011zm12.028-16c.554 0 1.002.448 1.002 1v35a1 1 0 0 1-1.002 1h-7.016a1 1 0 0 1-1.002-1v-35c0-.552.448-1 1.002-1zm-1.002 2h-5.012v33h5.012z"/></g></g></svg>