<svg xmlns="http://www.w3.org/2000/svg" width="60" height="60" viewBox="0 0 60 60"><g><g><path fill="#fff" d="M9.948 24.994c5.7 0 10 2.1 10 4.999V54.99c0 2.9-4.3 5-10 5s-9.998-2.1-9.998-5V29.993c0-2.9 4.299-5 9.998-5zm0 32.995c4.9 0 8-1.799 8-3V53.09c-2.4 1.3-5.2 2-8 1.9-2.8.2-5.6-.5-7.999-1.9v1.9c0 1.2 3.1 3 8 3zm0-5c4.9 0 8-1.799 8-2.998v-1.9c-2.4 1.299-5.2 2-8 1.9-2.8.2-5.6-.5-7.999-1.9v1.9c0 1.2 3.1 2.999 8 2.999zm0-4.998c4.9 0 8-1.8 8-3v-1.9c-2.4 1.3-5.2 2-8 1.9-2.8.2-5.6-.5-7.999-1.9v1.9c0 1.2 3.1 3 8 3zm0-5c4.9 0 8-1.8 8-2.999v-1.9c-2.4 1.3-5.2 2-8 1.9-2.8.2-5.6-.5-7.999-1.9v1.9c0 1.2 3.1 2.999 8 2.999zm0-5c4.9 0 8-1.798 8-2.999v-1.899c-2.4 1.3-5.2 2-8 1.9-2.8.2-5.6-.5-7.999-1.9v1.9c0 1.2 3.1 2.999 8 2.999zm0-4.999c4.9 0 8-1.799 8-3 0-1.199-3.1-2.999-8-2.999-4.899 0-7.999 1.8-7.999 3s3.1 3 8 3zm37.996 13h2a1 1 0 1 1 0 1.999h-2a1 1 0 1 1 0-2zm-16.998 0h2a1 1 0 1 1 0 1.999h-2a1 1 0 1 1 0-2zM4.949 17.993c-1.657 0-3-1.342-3-2.999V2.996a3 3 0 0 1 3-3h17.998a3 3 0 0 1 3 3v11.999a2.999 2.999 0 0 1-3 2.999h-5.5l-2.592 3.482a1.13 1.13 0 0 1-1.814 0l-2.593-3.482zm-1-3c0 .6.4 1 1 1h6.5l2.499 3.3 2.5-3.3h6.499c.6 0 1-.4 1-1V2.997c0-.6-.4-1-1-1H4.949c-.6 0-1 .4-1 1zm5.968-3.383L17.2 4.33l.707.707a1 1 0 0 1 0 1.414l-7.283 7.282-.707-.706a1 1 0 0 1 0-1.415zm1.031-6.615a1 1 0 1 1 0 2 1 1 0 0 1 0-2zm6 6a1 1 0 1 1 0 1.999 1 1 0 0 1 0-2zm25.996 3.999c1.7 0 3 1.3 3 2.999 0 1.7-1.3 3-3 3s-3-1.3-3-3 1.3-3 3-3zm0 4c.6 0 1-.4 1-1.001 0-.6-.4-1-1-1s-1 .4-1 1 .4 1 1 1zm14.998-8.946v15.944h2V57.99H21.947V25.993h6V10.05c0-.582.471-1.053 1.053-1.053h27.888c.582 0 1.054.471 1.054 1.053zM29.946 25.993h25.997V10.995H29.946zm27.996 2H44.944v3h12.998zm-20.997 5H23.946v3h13zm0 8.999h-6.1c-.4 1.399-1.5 2.5-2.899 2.899v4.1c1.7 0 3 1.299 3 3h6zm2 13.998h4V27.993h-4zm6-4h6.098c.4-1.4 1.5-2.5 2.9-2.9v-4.099c-1.7 0-3-1.3-3-3h-5.999zm0-15.998h12.997v-3H44.944zm-20.999-8v3h13v-3zm0 27.998h13v-2h-7a1 1 0 0 1-1-1v-1a1 1 0 0 0-1-1h-1a1 1 0 0 1-1-1v-5.998a1 1 0 0 1 1-1.001c1.1 0 2-.9 2-2a1 1 0 0 1 1-.999h7v-2h-13zm33.996 0V37.992H44.944v2h7a1 1 0 0 1 .999 1v1a1 1 0 0 0 1 .999h1a1 1 0 0 1 1 1v6a1 1 0 0 1-1 1c-1.1 0-2 .9-2 1.999a1 1 0 0 1-1 1h-6.999v2zM31.946 15.994V14.05c0-.582.472-1.054 1.054-1.054h2.945a1 1 0 1 1 0 2h-2v1a1 1 0 1 1-2 0zm19.997 5a1 1 0 1 1 2 0v1.945c0 .583-.472 1.055-1.054 1.055h-2.946a1 1 0 0 1 0-2h2zm-2-8h2.946c.582 0 1.054.473 1.054 1.055v1.945a1 1 0 1 1-2 0v-.999h-2a1 1 0 0 1 0-2zm-15.997 8v1h2a1 1 0 0 1 0 2H33a1.054 1.054 0 0 1-1.054-1.055v-1.945a1 1 0 1 1 2 0z"/></g></g></svg>