<svg xmlns="http://www.w3.org/2000/svg" width="51" height="60" viewBox="0 0 51 60"><g><g><path fill="#fff" d="M50.501 53a7.009 7.009 0 0 1-7 7H7.499a7.008 7.008 0 0 1-7-7V2.998a3.003 3.003 0 0 1 3-3H35.5a3.004 3.004 0 0 1 3 3v13h9a3.004 3.004 0 0 1 3.001 3zm-12-35.002V53a5 5 0 1 0 10 0V18.998c0-.552-.448-.999-1-1zm.11 40.003a6.976 6.976 0 0 1-2.11-5V2.997c-.001-.552-.449-1-1-1H3.498c-.553 0-1 .448-1 1V53a5.007 5.007 0 0 0 5 5zM7.499 40a2.002 2.002 0 0 1-2-2v-4a2.002 2.002 0 0 1 2-2h4a2.002 2.002 0 0 1 2 2v4a2.003 2.003 0 0 1-2 2zm0-2h4v-4h-4zm9 0a1 1 0 1 1 0 2 1 1 0 0 1 0-2zm4 0h8a1 1 0 1 1 0 2h-8a1 1 0 1 1 0-2zm-4-5a1 1 0 1 1 0 2 1 1 0 0 1 0-2zm12 0a1 1 0 1 1 0 2 1 1 0 0 1 0-2zm-8 0h4a1 1 0 0 1 0 2h-4a1 1 0 0 1 0-2zm-3.9-13.528h.056V11.91c.752-.127 1.808-.223 3.296-.223 1.505 0 2.577.288 3.297.864.704.544 1.152 1.44 1.152 2.496s-.336 1.969-.992 2.56c-.832.769-2.064 1.137-3.505 1.137-.32 0-.608-.016-.832-.064v.792h1.527a1 1 0 0 1 0 2h-1.527v.08a1 1 0 0 1-1 1h-.416a1 1 0 0 1-1-1v-.08h-.057a1 1 0 0 1 0-2zm-5.1-8.474a1 1 0 0 1-2 0v-1a3.003 3.003 0 0 1 3-3h1a1 1 0 0 1 0 2h-1c-.552.001-1 .448-1 1zm1 16a3.003 3.003 0 0 1-3-2.999v-1a1 1 0 1 1 2 0v1c0 .552.448.999 1 1h1a1 1 0 1 1 0 2zm17-3.999v1a3.003 3.003 0 0 1-3 3h-1a1 1 0 0 1 0-2h1c.553-.001 1-.448 1-1v-1a1 1 0 1 1 2 0zm-2-13.001c0-.552-.447-.999-1-1h-1a1 1 0 0 1 0-2h1a3.004 3.004 0 0 1 3 3v1a1 1 0 0 1-2 0zM32.5 38a1 1 0 1 1 0 2 1 1 0 0 1 0-2zM7.499 43a1 1 0 1 1 0 2 1 1 0 0 1 0-2zm4 0h17a1 1 0 1 1 0 2h-17a1 1 0 1 1 0-2zM32.5 43a1 1 0 1 1 0 2 1 1 0 0 1 0-2zM7.499 48a1 1 0 1 1-.001 2 1 1 0 0 1 0-2zm4 0h17a1 1 0 0 1 0 2h-17a1 1 0 1 1 0-2zM32.5 48a1 1 0 1 1 0 2.001 1 1 0 0 1 0-2zm-22.001 5a1 1 0 1 1 0 2 1 1 0 0 1 0-2zm4 0h11a1 1 0 1 1 0 2h-11a1 1 0 1 1 0-2zm15 0a1 1 0 1 1 0 2 1 1 0 0 1 0-2zM19.072 16.808c.208.048.448.064.816.064 1.297 0 2.097-.656 2.097-1.745 0-.992-.688-1.584-1.92-1.584-.48 0-.817.032-.993.08z"/></g></g></svg>