<svg xmlns="http://www.w3.org/2000/svg" viewBox="0 0 1525.47 454.01"><defs><style>.cls-1{fill:#004773;}.cls-1,.cls-2,.cls-3{fill-rule:evenodd;}.cls-2{fill:#00b6de;}.cls-3{fill:#0077a8;}</style></defs><title>logo</title><g id="Слой_2" data-name="Слой 2"><g id="_1" data-name="1"><path class="cls-1" d="M820.31,347.77,819.9,108.6c17.69-2,56.06-1,74.59-.14,142.86,6.7,144.13,232.78,1.17,239.51-19,.89-57.3,1.72-75.35-.2ZM711,451.9c8.65,2.06,134.46.69,154.59.69,53.63,0,89.58-3.18,131.92-24.77,152.45-77.73,150.19-320.64.27-398.27C936-2.41,864.65,4.63,789.27,4.63c-22.13,0-57.49-2.11-78,.32Z"/><path class="cls-1" d="M431.61,106.05l59.16-.09c51.48.05,62.16,46.38,46.66,72.28-7.23,12.07-20.78,22.71-41.35,23.3-20,.57-44.53.81-64.42-.19l-.05-95.3ZM564.24,289.26C581,283.12,605,262.43,614.13,251,693.69,151,640.08,3.21,498.69.76,469.48.26,345.28-.71,322.76.85l.57,451.75,108.32-.13,0-151.54,17,0,70.65,113.83c7.12,12.2,15.81,24.68,22.95,37.79l117,0c.76-14.73,1.94-17.69-4.93-28.12Z"/><path class="cls-1" d="M1273,454l78.92,0,155.94-388.9c8.22-21.25,20.32-42.92,17.11-60.24l-110.52-.21-99.93,270.73L1212.68,4.76l-111-.12c-3.43,22.3,8.29,42.55,15.61,60.59Z"/><path class="cls-2" d="M5.67,429.51c1.41,14.08,6.49,17.87,9.19,20.33H191.39l-75.95-80L89.86,383.93c-8.68,4.57-17.7,9.76-27.59,15.12C52.64,404.17,35.58,413.35,5.67,429.51Z"/><path class="cls-3" d="M5.67,429.51s46.63-25.25,55.88-30.07c16.17-8.73,54.19-29.59,54.19-29.59h0L78.81,333c-6.89,5.47-12.28,12.83-19.82,21L18.82,398.43C9.94,407.41,5.32,418.13,5.67,429.51Z"/><path class="cls-1" d="M5.67,429.51c-.37-15.33,7.19-24.19,14.73-32.58l213-233.12,29.18,25.12L262.08,2.76,71,3,98,31.5,26.47,109.75C-3.63,144.37.15,136.16.15,198.32V396.88c0,23.05-1.35,48.41,15,53C8.31,444.44,6.38,435.88,5.67,429.51Z"/></g></g></svg>