<svg xmlns="http://www.w3.org/2000/svg" width="71" height="99" viewBox="0 0 71 99"><defs><linearGradient id="nwbfa" x1="35" x2="36" y1="0" y2="99" gradientUnits="userSpaceOnUse"><stop offset="0" stop-color="#19b9de"/><stop offset="1" stop-color="#174f77"/></linearGradient></defs><g><g><path fill="url(#nwbfa)" d="M71 35.853c0 24.535-31.769 60.553-33.122 62.074a3.176 3.176 0 0 1-4.756 0C31.769 96.406 0 60.387 0 35.853 0 16.083 15.925 0 35.5 0 55.074 0 71 16.084 71 35.853zm-17.64 0c0-9.946-8.012-18.038-17.86-18.038-9.848 0-17.86 8.092-17.86 18.038 0 9.947 8.011 18.039 17.86 18.039 9.848 0 17.86-8.092 17.86-18.038z"/></g></g></svg>