<?xml version="1.0" encoding="utf-8"?>
<!-- Generator: Adobe Illustrator 23.0.2, SVG Export Plug-In . SVG Version: 6.00 Build 0)  -->
<svg version="1.1" id="Capa_1" xmlns="http://www.w3.org/2000/svg" xmlns:xlink="http://www.w3.org/1999/xlink" x="0px" y="0px"
	 viewBox="0 0 512 512" style="enable-background:new 0 0 512 512;" xml:space="preserve">
<style type="text/css">
	.st0{fill:#19B9DE;}
</style>
<path d="M469,135.9h-14.3c0,0,0,0,0,0c-4.1-12.2-15.7-21.1-29.3-21.1H384c0,0-0.1,0-0.1-0.1V48.4c0-4.3-2.8-8.2-6.9-9.5l-13.3-4.5
	c-5.4-1.8-54.4-17.6-107.8-17.6c-53.3,0-102.3,15.8-107.8,17.6l-13.3,4.5c-4.1,1.4-6.9,5.2-6.9,9.5v66.4c0,0,0,0.1-0.1,0.1H86.7
	c-13.6,0-25.2,8.8-29.3,21.1c0,0,0,0,0,0H43.1C19.3,135.9,0,155.2,0,179v264.4v8.8c0,23.8,19.3,43.1,43.1,43.1h425.8
	c23.8,0,43.1-19.3,43.1-43.1v-8.8V178.9C512,155.2,492.7,135.9,469,135.9L469,135.9z M148,55.5l6.5-2.2c2-0.7,50.4-16.6,101.4-16.6
	c51,0,99.4,15.9,101.4,16.6l6.5,2.2c0,0,0,0,0,0.1v59.2c0,0,0,0.1-0.1,0.1h-19.1c0,0-0.1,0-0.1-0.1l0-37.6c0-4.6-3.1-8.6-7.5-9.7
	C321,63.1,288.7,55.9,256,55.9c-32.9,0-65,7.2-81.3,11.5c-4.4,1.2-7.5,5.2-7.5,9.7v37.6c0,0,0,0.1-0.1,0.1h-19.1c0,0-0.1,0-0.1-0.1
	L148,55.5L148,55.5z M187.3,114.8V84.9c0,0,0,0,0-0.1c16.5-4,42.5-9,68.7-9c26.1,0,52.1,5,68.7,9c0,0,0,0,0,0.1v29.8
	c0,0,0,0.1-0.1,0.1L187.3,114.8C187.3,114.8,187.3,114.8,187.3,114.8z M75.8,145.7c0-6,4.9-10.9,10.9-10.9h338.5
	c6,0,10.9,4.9,10.9,10.9v0.2v95.7c0,2.4-0.3,4.7-0.9,6.9c-2.5,9.6-10,17.4-20,20l-114.5,29.5c0,0-0.1,0-0.1,0
	c-0.9-14.6-13.1-26.2-28-26.2h-33.4c-14.9,0-27,11.6-28,26.2c0,0,0,0.1-0.1,0L96.7,268.5c-10-2.6-17.5-10.4-20-20
	c-0.6-2.2-0.9-4.5-0.9-6.9v-64c0,0,0-0.1,0.1-0.1H357c5.4,0,10.1-4,10.4-9.4c0.3-5.8-4.3-10.6-10-10.6H75.9c0,0-0.1,0-0.1-0.1v-11.5
	L75.8,145.7z M231.2,310.9C231.2,310.9,231.2,310.9,231.2,310.9l0-10.8c0-4.6,3.8-8.4,8.4-8.4h32.6c4.7,0,8.5,3.8,8.5,8.5v10.7v21.9
	c0,4.7-3.8,8.5-8.5,8.5h-32.6c-4.7,0-8.5-3.8-8.5-8.5V310.9z M20,179c0-12.8,10.3-23.1,23.1-23.1h12.7c0,0,0.1,0,0.1,0.1v85.6
	c0,21.8,14.8,40.9,35.9,46.3l119.5,30.7c0,0,0,0,0,0.1v14.1c0,15.7,12.7,28.5,28.5,28.5h32.6c15.7,0,28.5-12.7,28.5-28.5v-14.1
	c0,0,0,0,0-0.1l119.5-30.7c21.1-5.4,35.9-24.5,35.9-46.3V156c0,0,0-0.1,0.1-0.1h12.7c12.8,0,23.1,10.3,23.1,23.1v254.4
	c0,0,0,0.1-0.1,0.1H20.1c0,0-0.1,0-0.1-0.1L20,179z M469,475.3H43c-12.3,0-22.4-9.7-23-21.8c0,0,0-0.1,0.1-0.1h471.8
	c0,0,0.1,0,0.1,0.1C491.3,465.6,481.3,475.3,469,475.3z"/>
<path class="st0" d="M392.8,171.3c2,5.1,8.1,7.5,13,5.4c5.2-2.2,7.6-8.4,5.2-13.5c-2.1-4.4-7.2-6.7-11.9-5.3
	C393.6,159.6,390.6,165.9,392.8,171.3L392.8,171.3z"/>
<rect x="19.7" y="433.7" class="st0" width="473" height="19.7"/>
</svg>
