<?xml version="1.0" encoding="utf-8"?>
<!-- Generator: Adobe Illustrator 23.0.2, SVG Export Plug-In . SVG Version: 6.00 Build 0)  -->
<svg version="1.1" id="Capa_1" xmlns="http://www.w3.org/2000/svg" xmlns:xlink="http://www.w3.org/1999/xlink" x="0px" y="0px"
	 viewBox="0 0 512 512" style="enable-background:new 0 0 512 512;" xml:space="preserve">
<style type="text/css">
	.st0{fill:#19B9DE;}
</style>
<g>
	<g>
		<path class="st0" d="M451.5,201.6l-0.1-0.3c-1.3-5.4-6.7-8.6-12.1-7.3c-5.4,1.3-8.6,6.7-7.3,12.1l0.1,0.2c1.1,4.6,5.2,7.6,9.7,7.6
			c0.8,0,1.6-0.1,2.4-0.3C449.5,212.4,452.8,207,451.5,201.6z"/>
	</g>
</g>
<g>
	<g>
		<path class="st0" d="M186.7,326.3C161.8,311.3,147,285,147,256c0-9,1.4-17.8,4.3-26.2c1.8-5.2-1.1-10.9-6.3-12.7
			c-5.2-1.8-10.9,1.1-12.7,6.3c-3.5,10.5-5.3,21.4-5.3,32.6c0,36.1,18.5,68.7,49.4,87.4c1.6,1,3.4,1.4,5.2,1.4
			c3.4,0,6.7-1.7,8.6-4.8C192.9,335.3,191.4,329.1,186.7,326.3z"/>
	</g>
</g>
<g>
	<g>
		<path class="st0" d="M298.9,181.7c-19-17.9-43.8-27.7-69.9-27.7c-12.2,0-24.2,2.1-35.5,6.4c-5.2,1.9-7.8,7.7-5.9,12.9
			s7.7,7.8,12.9,5.9c9.1-3.4,18.7-5.1,28.6-5.1c21,0,40.9,7.9,56.2,22.3c1.9,1.8,4.4,2.7,6.9,2.7c2.7,0,5.3-1.1,7.3-3.1
			C303.1,191.8,302.9,185.5,298.9,181.7z"/>
	</g>
</g>
<g>
	<g>
		<path d="M502,259h-75.2v-20.7c0-10.1-8.2-18.2-18.2-18.2h-13.4c-6.9-31.9-22.7-61.1-45.9-84.3c-39.4-39.4-95.8-57-150.7-47
			c-5.4,1-9,6.2-8.1,11.6c1,5.4,6.2,9,11.6,8.1c48.5-8.8,98.2,6.7,133,41.5c19.5,19.5,33.1,43.6,39.6,70.1H320
			c-10.1,0-18.2,8.2-18.2,18.2V259h-75.2c-5.5,0-10,4.5-10,10v61.3c0,9.4,3.7,17.9,9.6,24.3V406c-39-0.7-75.4-16.1-103.2-43.9
			c-35.7-35.7-51-86.6-40.9-136.1c1.1-5.4-2.4-10.7-7.8-11.8c-5.4-1.1-10.7,2.4-11.8,7.8c-11.4,56.1,5.9,113.8,46.4,154.2
			c31.1,31.1,73.5,49,117.4,49.7v36.2c0,0.9,0.1,1.9,0.2,2.8C112.3,463.5,20,370.3,20,256c0-35.8,9.1-70.7,26.4-101.7l33.7,33.9
			c1.9,1.9,4.4,2.9,7.1,2.9h62.9l61.7,61.7c2,2,4.5,2.9,7.1,2.9c2.6,0,5.1-1,7.1-2.9c3.9-3.9,3.9-10.2,0-14.1L164.2,177v-62.9
			c0-2.7-1.1-5.2-2.9-7.1l-33.8-33.7C158.4,56.1,193.3,47,229,47c81.1,0,155.6,47.6,189.7,121.2c1.7,3.6,5.3,5.8,9.1,5.8
			c1.4,0,2.8-0.3,4.2-0.9c5-2.3,7.2-8.3,4.9-13.3c-18.1-39.1-46.8-72.2-83-95.8C316.7,39.8,273.5,27,229,27
			c-41,0-81.1,10.9-116.2,31.6L84,29.9c-2.9-2.9-7.2-3.7-10.9-2.2c-3.7,1.5-6.2,5.2-6.2,9.2v56.7H10.1c-4,0-7.7,2.4-9.2,6.2
			c-1.5,3.7-0.7,8,2.1,10.9l28.7,28.9C11,174.8,0,214.9,0,256c0,61.2,23.8,118.7,67.1,161.9C110.3,461.2,167.8,485,229,485l250.6,0
			c12.6,0,22.8-10.2,22.8-22.8V354.6c6.2-6.6,9.6-15.2,9.6-24.3V269l0,0C512,263.5,507.5,259,502,259z M86.9,61.1l57.3,57.1V157
			L86.9,99.6V61.1z M72.8,113.7l57.3,57.5H91.3l-57.2-57.5H72.8z M321.8,240.1h85V259h-85V240.1z M482.4,417h-65.6
			c-5.5,0-10,4.5-10,10s4.5,10,10,10h65.6v25.2c0,1.6-1.3,2.8-2.8,2.8H261.2c-0.1,0-0.1,0-0.2,0h-12.2c-1.5-0.1-2.7-1.3-2.7-2.8
			v-96.7c2,0.3,4,0.5,6,0.5h82.5c1.8,14.8,14.4,26.3,29.6,26.3c15.3,0,27.9-11.5,29.6-26.3l82.4,0.1c0,0,0,0,0,0c2,0,4-0.2,6-0.5
			L482.4,417L482.4,417z M354.4,362.4v-17.6h19.7v17.6c0,5.4-4.4,9.9-9.9,9.9S354.4,367.8,354.4,362.4z M492,330.3
			c0,4.2-1.6,8.1-4.6,11.1c-3,2.9-6.9,4.6-11,4.6c0,0,0,0,0,0l-82.2-0.1v-9.2c0-6.6-5.3-11.9-11.9-11.9h-35.9
			c-6.6,0-11.9,5.3-11.9,11.9v9.2h-82.2c-8.6,0-15.6-7-15.6-15.6V279H492L492,330.3L492,330.3z"/>
	</g>
</g>
<g>
	<g>
		<path class="st0" d="M374.9,419.9c-1.9-1.9-4.4-2.9-7.1-2.9c-2.6,0-5.2,1.1-7.1,2.9c-1.9,1.9-2.9,4.4-2.9,7.1
			c0,2.6,1.1,5.2,2.9,7.1c1.9,1.9,4.4,2.9,7.1,2.9c2.6,0,5.2-1.1,7.1-2.9c1.9-1.9,2.9-4.4,2.9-7.1S376.7,421.8,374.9,419.9z"/>
	</g>
</g>
</svg>
