<?xml version="1.0" encoding="utf-8"?>
<!-- Generator: Adobe Illustrator 23.0.2, SVG Export Plug-In . SVG Version: 6.00 Build 0)  -->
<svg version="1.1" id="Capa_1" xmlns="http://www.w3.org/2000/svg" xmlns:xlink="http://www.w3.org/1999/xlink" x="0px" y="0px"
	 viewBox="0 0 512 512" style="enable-background:new 0 0 512 512;" xml:space="preserve">
<style type="text/css">
	.st0{fill:#19B9DE;}
</style>
<g>
	<g>
		<path d="M181.7,366.8c-0.7-0.2-1.5-0.3-2.2-0.4c11-11.5,17.7-27.1,17.7-44.2v-52.6c0-0.5,0-1-0.1-1.4c0.1-1,0.1-1.9,0.1-2.9v-33.3
			c0-5.5-4.5-10-10-10h-67.1c-28.2,0-51.2,23-51.2,51.2v49c0,17.1,6.7,32.7,17.7,44.2c-0.7,0-1.5,0.2-2.2,0.4
			C37.2,371.1,0,410.9,0,459.3V502c0,5.5,4.5,10,10,10h246.1c5.5,0,10-4.5,10-10v-42.7C266.1,410.9,229,371.1,181.7,366.8z
			 M88.9,286v-12.7c0-17.2,14-31.2,31.2-31.2h57.1v23.3c0,11.7-9.5,21.3-21.3,21.3h-67V286z M88.9,306.6h67c7.8,0,15-2.2,21.3-5.9
			v21.5c0,24.3-19.8,44.1-44.1,44.1s-44.1-19.8-44.1-44.1V306.6z M154.8,386.4l-21.8,21.8l-21.8-21.8H154.8z M246.1,492L246.1,492
			H20v-20h41.5c5.5,0,10-4.5,10-10s-4.5-10-10-10H20.4c3.4-33.7,29.8-60.7,63.3-65l42.4,42.4c1.9,1.9,4.4,2.9,7.1,2.9
			c2.7,0,5.2-1.1,7.1-2.9l42.4-42.4c35.8,4.6,63.6,35.2,63.6,72.2V492z"/>
	</g>
</g>
<g>
	<g>
		<path d="M427.6,144.7c-0.7-0.2-1.5-0.3-2.2-0.4c11-11.5,17.7-27.1,17.7-44.2V47.6c0-0.5,0-1-0.1-1.4c0.1-1,0.1-1.9,0.1-2.9V10
			c0-5.5-4.5-10-10-10H366c-28.2,0-51.2,23-51.2,51.2v49c0,17.1,6.7,32.7,17.7,44.2c-0.7,0-1.5,0.2-2.2,0.4
			c-47.3,4.3-84.4,44.1-84.4,92.5v42.7c0,5.5,4.5,10,10,10h80.5c5.5,0,10-4.5,10-10s-4.5-10-10-10h-70.5v-32.7
			c0-37,27.8-67.7,63.6-72.2l42.4,42.4c2,2,4.5,2.9,7.1,2.9s5.1-1,7.1-2.9l42.4-42.4c35.8,4.6,63.6,35.2,63.6,72.2v32.7h-73.7
			c-5.5,0-10,4.5-10,10s4.5,10,10,10H502c5.5,0,10-4.5,10-10v-42.7C512,188.8,474.8,149,427.6,144.7z M378.9,186.1l-21.8-21.8h43.5
			L378.9,186.1z M423.1,100.2c0,24.3-19.8,44.1-44.1,44.1s-44.1-19.8-44.1-44.1V84.5h67c7.8,0,15-2.2,21.3-5.9V100.2z M423.1,43.3
			c0,11.7-9.5,21.3-21.3,21.3h-67v-0.6V51.2c0-17.2,14-31.2,31.2-31.2h57.1L423.1,43.3L423.1,43.3z"/>
	</g>
</g>
<g>
	<g>
		<path class="st0" d="M386,272.8c-1.9-1.9-4.4-2.9-7.1-2.9c-2.6,0-5.2,1.1-7.1,2.9c-1.9,1.9-2.9,4.4-2.9,7.1c0,2.6,1.1,5.2,2.9,7.1
			c1.9,1.9,4.4,2.9,7.1,2.9c2.6,0,5.2-1.1,7.1-2.9c1.9-1.9,2.9-4.4,2.9-7.1C388.9,277.3,387.9,274.7,386,272.8z"/>
	</g>
</g>
<g>
	<g>
		<path d="M267.4,139.9l-41.8-41.8V50c0-27.6-22.4-50-50-50H50C22.4,0,0,22.4,0,50v88c0,27.6,22.4,50,50,50h125.6
			c20.7,0,38.7-12.4,46.3-31h38.5c4,0,7.7-2.4,9.2-6.2C271.1,147.1,270.3,142.8,267.4,139.9z M214.6,137c-4.7,0-8.7,3.2-9.7,7.8
			c-3.1,13.7-15.2,23.2-29.2,23.2H50c-16.5,0-30-13.5-30-30V50c0-16.5,13.5-30,30-30h125.6c16.5,0,30,13.5,30,30v52.3
			c0,2.7,1.1,5.2,2.9,7.1l27.7,27.7H214.6z"/>
	</g>
</g>
<g>
	<g>
		<path d="M462,324H336.4c-20.7,0-38.7,12.4-46.3,31h-38.5c-4,0-7.7,2.4-9.2,6.2s-0.7,8,2.2,10.9l41.8,41.8V462
			c0,27.6,22.4,50,50,50H462c27.6,0,50-22.4,50-50v-88C512,346.4,489.6,324,462,324z M492,462c0,16.5-13.5,30-30,30H336.4
			c-16.5,0-30-13.5-30-30v-52.3c0-2.7-1.1-5.2-2.9-7.1L275.8,375h21.6c4.7,0,8.7-3.2,9.7-7.8c3.1-13.7,15.2-23.2,29.2-23.2H462
			c16.5,0,30,13.5,30,30V462z"/>
	</g>
</g>
<g>
	<g>
		<path class="st0" d="M444.2,391.4c-3.9-3.9-10.2-3.9-14.1,0L403.4,418l-12.4-12.4c-3.9-3.9-10.2-3.9-14.1,0
			c-3.9,3.9-3.9,10.2,0,14.1l19.4,19.4c2,2,4.5,2.9,7.1,2.9s5.1-1,7.1-2.9l33.7-33.7C448.1,401.6,448.1,395.3,444.2,391.4z"/>
	</g>
</g>
<g>
	<g>
		<path class="st0" d="M158.3,66.3c-1.2-17.1-15-31-32.2-32.2c-9.7-0.7-19,2.6-26.1,9.2c-7,6.5-11,15.8-11,25.3c0,5.5,4.5,10,10,10
			s10-4.5,10-10c0-4.1,1.7-7.9,4.7-10.7c3-2.8,6.9-4.2,11.1-3.9c7.2,0.5,13.1,6.3,13.6,13.6c0.5,7.3-4.3,13.8-11.4,15.4
			c-7.8,1.7-13.2,8.5-13.2,16.5v5.3c0,5.5,4.5,10,10,10c5.5,0,10-4.5,10-10v-2.9C149.2,97.3,159.4,82.7,158.3,66.3z"/>
	</g>
</g>
<g>
	<g>
		<path class="st0" d="M130.7,136c-1.9-1.9-4.4-2.9-7.1-2.9c-2.6,0-5.2,1.1-7.1,2.9c-1.9,1.9-2.9,4.4-2.9,7.1s1.1,5.2,2.9,7.1
			c1.9,1.9,4.4,2.9,7.1,2.9c2.6,0,5.2-1.1,7.1-2.9c1.9-1.9,2.9-4.4,2.9-7.1S132.6,137.9,130.7,136z"/>
	</g>
</g>
<g>
	<g>
		<path class="st0" d="M108.6,454.9c-1.9-1.9-4.4-2.9-7.1-2.9s-5.2,1.1-7.1,2.9s-2.9,4.4-2.9,7.1s1.1,5.2,2.9,7.1
			c1.9,1.9,4.4,2.9,7.1,2.9s5.2-1.1,7.1-2.9s2.9-4.4,2.9-7.1S110.4,456.8,108.6,454.9z"/>
	</g>
</g>
</svg>
