<?xml version="1.0" encoding="utf-8"?>
<!-- Generator: Adobe Illustrator 23.0.2, SVG Export Plug-In . SVG Version: 6.00 Build 0)  -->
<svg version="1.1" id="Слой_1" xmlns="http://www.w3.org/2000/svg" xmlns:xlink="http://www.w3.org/1999/xlink" x="0px" y="0px"
	 viewBox="0 0 512 511" style="enable-background:new 0 0 512 511;" xml:space="preserve">
<style type="text/css">
	.st0{fill:#19B9DE;}
</style>
<path class="st0" d="M173.3,130.5c0,20.7,16.8,37.5,37.5,37.5c20.7,0,37.5-16.8,37.5-37.5S231.5,93,210.8,93
	C190.2,93,173.3,109.8,173.3,130.5z M210.8,113c9.7,0,17.5,7.9,17.5,17.5s-7.8,17.5-17.5,17.5c-9.6,0-17.5-7.9-17.5-17.5
	S201.2,113,210.8,113z"/>
<path class="st0" d="M330.8,230.5c16.5,0,30-13.5,30-30s-13.5-30-30-30c-16.5,0-30,13.5-30,30S314.3,230.5,330.8,230.5z
	 M330.8,190.5c5.5,0,10,4.5,10,10s-4.5,10-10,10c-5.5,0-10-4.5-10-10S325.3,190.5,330.8,190.5z"/>
<path class="st0" d="M265.1,366.4c-0.3-0.6-0.6-1.2-0.9-1.7c-0.4-0.5-0.8-1.1-1.2-1.5c-0.5-0.5-1-0.9-1.5-1.2
	c-0.5-0.4-1.1-0.7-1.7-0.9c-0.6-0.3-1.2-0.4-1.9-0.6c-1.3-0.3-2.6-0.3-3.9,0c-0.6,0.1-1.3,0.3-1.9,0.6c-0.6,0.3-1.2,0.6-1.7,0.9
	c-0.6,0.4-1.1,0.8-1.5,1.2c-0.5,0.5-0.9,1-1.2,1.5c-0.4,0.6-0.7,1.1-0.9,1.7c-0.3,0.6-0.5,1.2-0.6,1.9c-0.1,0.6-0.2,1.3-0.2,1.9
	c0,0.7,0.1,1.3,0.2,2c0.1,0.6,0.3,1.3,0.6,1.9c0.3,0.6,0.5,1.2,0.9,1.7c0.4,0.5,0.8,1.1,1.2,1.5c0.5,0.5,1,0.9,1.5,1.3
	c0.5,0.4,1.1,0.7,1.7,0.9c0.6,0.3,1.2,0.4,1.9,0.6c0.6,0.1,1.3,0.2,1.9,0.2c0.7,0,1.3-0.1,2-0.2c0.6-0.1,1.3-0.3,1.9-0.6
	c0.6-0.3,1.2-0.6,1.7-0.9c0.6-0.4,1.1-0.8,1.5-1.3c0.5-0.5,0.9-1,1.2-1.5c0.4-0.5,0.7-1.1,0.9-1.7c0.3-0.6,0.5-1.2,0.6-1.9
	c0.1-0.7,0.2-1.3,0.2-2c0-0.6-0.1-1.3-0.2-1.9C265.5,367.6,265.3,367,265.1,366.4z"/>
<path class="st0" d="M118,304.5c0.3,0.6,0.6,1.2,0.9,1.7c0.4,0.5,0.8,1.1,1.3,1.5c0.5,0.5,1,0.9,1.5,1.2c0.5,0.4,1.1,0.7,1.7,0.9
	c0.6,0.3,1.2,0.4,1.9,0.6c0.6,0.1,1.3,0.2,1.9,0.2s1.3-0.1,1.9-0.2c0.6-0.1,1.3-0.3,1.9-0.6c0.6-0.3,1.2-0.6,1.7-0.9
	c0.6-0.4,1.1-0.8,1.5-1.2c0.5-0.5,0.9-1,1.2-1.5c0.4-0.5,0.7-1.1,0.9-1.7c0.3-0.6,0.4-1.2,0.6-1.9c0.1-0.6,0.2-1.3,0.2-1.9
	c0-0.7-0.1-1.3-0.2-2c-0.1-0.6-0.3-1.3-0.6-1.9c-0.3-0.6-0.6-1.2-0.9-1.7c-0.4-0.6-0.8-1.1-1.2-1.5c-0.5-0.5-1-0.9-1.5-1.3
	c-0.5-0.4-1.1-0.7-1.7-0.9c-0.6-0.3-1.2-0.4-1.9-0.6c-1.3-0.3-2.6-0.3-3.9,0c-0.6,0.1-1.3,0.3-1.9,0.6c-0.6,0.3-1.2,0.6-1.7,0.9
	c-0.6,0.4-1.1,0.8-1.5,1.3c-0.5,0.5-0.9,1-1.3,1.5c-0.4,0.5-0.7,1.1-0.9,1.7c-0.3,0.6-0.4,1.2-0.6,1.9c-0.1,0.6-0.2,1.3-0.2,2
	c0,0.6,0.1,1.3,0.2,1.9S117.8,303.9,118,304.5z"/>
<path d="M469.9,10.5H42.1C18.9,10.5,0,29.4,0,52.6v315.8c0,23.2,18.9,42.1,42.1,42.1h125.1l-9.6,71h-21.8c-5.5,0-10,4.5-10,10
	s4.5,10,10,10h240c5.5,0,10-4.5,10-10s-4.5-10-10-10h-21.8l-9.6-71h125.4c23.2,0,42.1-18.9,42.1-42.1V52.6
	C512,29.4,493.1,10.5,469.9,10.5z M218.3,33.6c2,2,3.1,4.7,3.1,7.5v9.5c0,4.6,3.1,8.5,7.5,9.7c6.6,1.7,12.9,4.3,18.7,7.7
	c3.9,2.3,8.9,1.7,12.2-1.5l6.7-6.7c4.1-4.1,10.9-4.1,15,0c1.1,1.1,2,2.5,2.5,4c1.4,3.9,0.4,8.1-2.5,11l-6.7,6.7
	c-3.2,3.2-3.9,8.3-1.5,12.2c3.4,5.8,6,12.1,7.7,18.7c1.1,4.4,5.1,7.5,9.7,7.5h9.5c3.4,0,6.4,1.6,8.4,4.1c-1.8,3.4-2.7,7.2-2.8,11.1
	c-1.2,0.5-2.4,1-3.6,1.5c-4.7-4.5-10.8-7-17.4-7c-6.7,0-13,2.6-17.7,7.3c-9.7,9.7-9.7,25.3-0.3,35.1c-0.5,1.2-1,2.4-1.5,3.6
	c-6.5,0.1-12.7,2.7-17.3,7.3c-3.7,3.7-6.2,8.4-7,13.6c-3.9,1.8-8,3.3-12.2,4.3c-4.4,1.1-7.5,5.1-7.5,9.7v9.5
	c0,5.9-4.8,10.6-10.6,10.6c-2.8,0-5.5-1.1-7.5-3.1c-2-2-3.1-4.7-3.1-7.5v-9.5c0-4.6-3.1-8.5-7.5-9.7c-6.6-1.7-12.9-4.3-18.7-7.7
	c-1.6-0.9-3.4-1.4-5.1-1.4c-2.6,0-5.2,1-7.1,2.9l-6.7,6.7c-4.1,4.1-10.8,4.1-15,0c0,0,0,0,0,0c-4.1-4.1-4.1-10.9,0-15l6.7-6.7
	c3.2-3.2,3.9-8.3,1.5-12.2c-3.4-5.8-6-12.1-7.7-18.7c-1.1-4.4-5.1-7.5-9.7-7.5h-9.5c-5.9,0-10.6-4.8-10.6-10.6
	c0-2.8,1.1-5.5,3.1-7.5c2-2,4.7-3.1,7.5-3.1h9.5c4.6,0,8.5-3.1,9.7-7.5c1.7-6.6,4.3-12.9,7.7-18.7c2.3-3.9,1.7-9-1.5-12.2l-6.7-6.7
	c-2.9-2.9-3.9-7.1-2.5-11c0.5-1.5,1.4-2.9,2.5-4c4.1-4.1,10.9-4.1,15,0l6.7,6.7c3.2,3.2,8.3,3.9,12.2,1.5c5.8-3.4,12.1-6,18.7-7.7
	c4.4-1.1,7.5-5.1,7.5-9.7v-9.5c0-5.9,4.8-10.6,10.6-10.6C213.7,30.5,216.3,31.6,218.3,33.6z M318.3,152.1c4.4-1.1,7.5-5.1,7.5-9.7
	v-6.9c0-1.3,0.5-2.5,1.4-3.5c0,0,0,0,0,0c0,0,0,0,0,0c0.5-0.6,1.7-1.5,3.6-1.5c1.3,0,2.6,0.5,3.5,1.5c0.9,0.9,1.5,2.2,1.5,3.5v6.9
	c0,4.6,3.1,8.5,7.5,9.7c4.6,1.2,8.9,3,12.9,5.3c3.9,2.3,8.9,1.7,12.2-1.5l4.9-4.9c2-1.9,5.1-1.9,7.1,0c1.3,1.3,1.5,2.8,1.5,3.5
	c0,0.8-0.2,2.3-1.5,3.5l-4.9,4.9c-3.2,3.2-3.9,8.2-1.5,12.2c2.4,4,4.2,8.3,5.3,12.9c1.1,4.4,5.1,7.5,9.7,7.5h6.9c2.8,0,5,2.2,5,5
	c0,1.3-0.5,2.6-1.5,3.5c-0.5,0.5-1.7,1.5-3.5,1.5h-6.9c-4.6,0-8.5,3.1-9.7,7.5c-1.2,4.5-3,8.9-5.3,12.9c-2.3,3.9-1.7,8.9,1.5,12.2
	l4.9,4.9c1.9,2,1.9,5.1,0,7.1c-1.3,1.3-2.8,1.5-3.5,1.5s-2.3-0.2-3.5-1.5l-4.9-4.9c-3.2-3.2-8.2-3.9-12.2-1.5
	c-4,2.4-8.3,4.2-12.9,5.3c-4.4,1.1-7.5,5.1-7.5,9.7v6.9c0,2.8-2.2,5-5,5c-1.8,0-3-0.9-3.5-1.5c-0.9-0.9-1.5-2.2-1.5-3.5v-6.9
	c0-4.6-3.1-8.5-7.5-9.7c-4.5-1.2-8.9-3-12.9-5.3c-3.9-2.3-8.9-1.7-12.2,1.5l-4.9,4.9c-2,2-5.1,1.9-7.1,0c-1.3-1.3-1.5-2.8-1.5-3.5
	s0.2-2.3,1.5-3.5l4.9-4.9c3.2-3.2,3.9-8.2,1.5-12.2c-2.4-4-4.2-8.3-5.3-12.9c-1.1-4.4-5.1-7.5-9.7-7.5h-6.9c-2.5,0-4.6-1.8-4.9-4.3
	c0,0,0,0,0,0c0,0,0,0,0-0.1c0-0.2,0-0.4,0-0.6c0-1.3,0.5-2.6,1.5-3.5c0.9-0.9,2.2-1.5,3.5-1.5h6.9c4.6,0,8.5-3.1,9.7-7.5
	c1.2-4.5,3-8.9,5.3-12.9c2.3-3.9,1.7-8.9-1.5-12.2l-4.9-4.9c-1.9-1.9-1.9-5.1,0-7.1c1.3-1.3,2.8-1.5,3.5-1.5c0.8,0,2.3,0.2,3.5,1.5
	l4.9,4.9c3.2,3.2,8.2,3.9,12.2,1.5C309.5,155,313.8,153.2,318.3,152.1z M42.1,30.5h140c-1.2,3.3-1.9,6.9-1.9,10.6v2.1
	c-3.2,1.1-6.4,2.4-9.5,3.9l-1.5-1.5c-11.9-11.9-31.4-11.9-43.3,0c-1.5,1.5-2.8,3.1-3.9,4.9H62.3c-11.6,0-21.1,9.5-21.1,21.1v217.8
	c0,11.6,9.5,21.1,21.1,21.1h24.6c5.5,0,10-4.5,10-10s-4.5-10-10-10H62.3c-0.6,0-1.1-0.5-1.1-1.1V71.6c0-0.6,0.5-1.1,1.1-1.1h54.9
	c0.7,6.9,3.7,13.4,8.8,18.5l1.5,1.5c-1.5,3.1-2.8,6.2-3.9,9.4h-2.1c-8.2,0-15.9,3.2-21.6,9c-5.8,5.8-9,13.5-9,21.7
	c0,16.9,13.7,30.6,30.6,30.6h2.1c1.1,3.2,2.4,6.4,3.9,9.4L126,172c-11.9,11.9-11.9,31.3-0.1,43.3c0,0,0.1,0.1,0.1,0.1
	c11.9,11.9,31.4,11.9,43.3,0l1.5-1.5c3.1,1.5,6.2,2.8,9.5,3.9v2.1c0,8.2,3.2,15.9,9,21.6c5.8,5.8,13.5,9,21.6,9
	c16.9,0,30.6-13.7,30.6-30.6v-2.1c1.6-0.6,3.2-1.2,4.8-1.8c4.5,5.7,11.5,9.4,19.2,9.5c0.5,1.2,1,2.4,1.5,3.6c-4.5,4.7-7,10.8-7,17.4
	c0,6.7,2.6,13,7.3,17.7c9.7,9.7,25.3,9.8,35.1,0.3c1.2,0.5,2.4,1,3.6,1.5c0.1,6.5,2.7,12.7,7.3,17.3c4.7,4.7,11,7.3,17.7,7.3
	c13.7,0,24.8-11,25-24.6c1.2-0.5,2.4-1,3.6-1.5c4.7,4.5,10.8,7,17.4,7c6.7,0,13-2.6,17.7-7.3c9.7-9.7,9.7-25.3,0.3-35.1
	c0.5-1.2,1-2.4,1.5-3.6c6.5-0.1,12.7-2.7,17.3-7.3c4.7-4.7,7.3-11,7.3-17.7c0-13.6-11-24.8-24.6-25c-0.5-1.2-1-2.4-1.5-3.6
	c4.5-4.7,7-10.8,7-17.4c0-6.7-2.6-13-7.3-17.7c-9.7-9.7-25.3-9.8-35.1-0.3c-1.2-0.5-2.4-1-3.6-1.5c-0.1-6.5-2.7-12.7-7.3-17.3
	c-4.7-4.7-11-7.3-17.7-7.3c-2.3,0-4.5,0.3-6.7,0.9c-5.7-7.1-14.4-11.5-23.9-11.5h-2.1c-1.1-3.2-2.4-6.4-3.9-9.5l1.5-1.5
	c5-5,8-11.6,8.8-18.5h144.9c0.6,0,1.1,0.5,1.1,1.1v217.8c0,0.6-0.5,1.1-1.1,1.1H166.9c-5.5,0-10,4.5-10,10s4.5,10,10,10h282.4
	c11.6,0,21.1-9.5,21.1-21.1V71.6c0-11.6-9.5-21.1-21.1-21.1H299.6c-1.1-1.7-2.5-3.4-4-4.9c-11.9-11.9-31.4-11.9-43.3,0l-1.5,1.5
	c-3.1-1.5-6.2-2.8-9.5-3.9v-2.1c0-3.7-0.7-7.3-1.9-10.6h230.4c12.2,0,22.1,9.9,22.1,22.1v277.9H20V52.6C20,40.4,29.9,30.5,42.1,30.5
	z M333.9,481.5H177.8l9.6-71h137L333.9,481.5z M469.9,390.5H42.1c-12.2,0-22.1-9.9-22.1-22.1v-17.9h472v17.9
	C492,380.6,482.1,390.5,469.9,390.5z"/>
</svg>
