<svg xmlns="http://www.w3.org/2000/svg" viewBox="0 0 512 463.93"><defs><style>.cls-1{fill:#19b9de;}</style></defs><title>s-bottom-advantages2</title><g id="Слой_2" data-name="Слой 2"><g id="Слой_1-2" data-name="Слой 1"><path class="cls-1" d="M206.39,346.15a9.38,9.38,0,0,1-9.37-9.38v-37a9.38,9.38,0,1,1,18.75,0v37A9.38,9.38,0,0,1,206.39,346.15Z"/><path class="cls-1" d="M257.52,346.15a9.38,9.38,0,0,1-9.38-9.38v-37a9.38,9.38,0,1,1,18.75,0v37A9.37,9.37,0,0,1,257.52,346.15Z"/><path class="cls-1" d="M308.64,346.15a9.38,9.38,0,0,1-9.37-9.38v-37a9.38,9.38,0,1,1,18.75,0v37A9.38,9.38,0,0,1,308.64,346.15Z"/><path d="M466.27,0H45.73A45.79,45.79,0,0,0,0,45.73V418.2a45.79,45.79,0,0,0,45.73,45.73H466.27A45.79,45.79,0,0,0,512,418.2V294.09a10,10,0,1,0-20,0V418.2a25.76,25.76,0,0,1-25.73,25.73H45.73A25.76,25.76,0,0,1,20,418.2V105.62H492v98a10,10,0,0,0,20,0V45.73A45.79,45.79,0,0,0,466.27,0ZM20,85.62V45.73A25.76,25.76,0,0,1,45.73,20H466.27A25.76,25.76,0,0,1,492,45.73V85.62Z"/><path class="cls-1" d="M183.06,390.62H332a30.73,30.73,0,0,0,30.7-30.7V264.47h2.52a9.38,9.38,0,0,0,9.38-9.38v-44.6a9.37,9.37,0,0,0-9.38-9.37H327.88a10.42,10.42,0,0,0-.89-.87l-63.39-54a9.36,9.36,0,0,0-12.16,0l-63.39,54a9.14,9.14,0,0,0-.89.87H149.83a9.37,9.37,0,0,0-9.37,9.37v44.6a9.38,9.38,0,0,0,9.37,9.38h2.53v95.45A30.73,30.73,0,0,0,183.06,390.62Zm160.87-30.7A12,12,0,0,1,332,371.87H183.06a12,12,0,0,1-11.95-11.95V264.47H343.93v95.45ZM257.52,165.69l41.58,35.43H215.94Zm-98.31,54.18H355.83v25.85H159.21Z"/><path class="cls-1" d="M502,258.67a10,10,0,1,1,9.8-8A10.08,10.08,0,0,1,502,258.67Z"/><path d="M255.48,62.93H182.91a10,10,0,0,1,0-20h72.57a10,10,0,1,1,0,20Z"/><path class="cls-1" d="M97.81,62.92a10,10,0,1,1,9.81-8A10.08,10.08,0,0,1,97.81,62.92Z"/><path class="cls-1" d="M134.72,62.92a10,10,0,1,1,9.8-8A10.09,10.09,0,0,1,134.72,62.92Z"/><path class="cls-1" d="M60.91,62.92a10,10,0,1,1,9.73-7.72A10.09,10.09,0,0,1,60.91,62.92Z"/></g></g></svg>