<svg xmlns="http://www.w3.org/2000/svg" viewBox="0 0 512 512"><defs><style>.cls-1{fill:#19b9de;}</style></defs><title>s-bottom-advantages1</title><g id="Слой_2" data-name="Слой 2"><g id="Слой_1-2" data-name="Слой 1"><path d="M403.21,301.62l103.22-51.27A10,10,0,0,0,505,231.77l-167.35-52a10,10,0,0,0-6,19.17l143.43,44.6-93.3,46.34a10,10,0,0,0-2.63,16.09L487.39,414.18l-73.21,73.21L305.94,379.14a10,10,0,0,0-16.09,2.63l-46.34,93.3L139,139l115.81,36a10,10,0,1,0,6-19.17l-134-41.68a10,10,0,0,0-12.56,12.56l117.6,378.21a10,10,0,0,0,8.79,7c.27,0,.53,0,.8,0a10,10,0,0,0,9-5.57l51.27-103.22L407.08,508.68a10,10,0,0,0,14.2,0l87.4-87.4a10,10,0,0,0,0-14.2Z"/><path class="cls-1" d="M50.45,36.25a10,10,0,0,0-14.2,14.2L61.77,76A10,10,0,0,0,76,61.77Z"/><path class="cls-1" d="M178.64,78.91a10,10,0,0,0,7.1-3l25.52-25.51a10,10,0,0,0-14.2-14.2L171.54,61.77a10,10,0,0,0,7.1,17.14Z"/><path class="cls-1" d="M61.77,171.54,36.25,197.06a10,10,0,1,0,14.19,14.2L76,185.74a10,10,0,1,0-14.19-14.2Z"/><path class="cls-1" d="M123.75,56.17a10,10,0,0,0,10-10V10a10,10,0,1,0-20.08,0V46.13A10,10,0,0,0,123.75,56.17Z"/><path class="cls-1" d="M56.17,123.75a10,10,0,0,0-10-10H10a10,10,0,0,0,0,20.08H46.13A10,10,0,0,0,56.17,123.75Z"/><path class="cls-1" d="M286.88,181.18A10,10,0,1,0,290.59,169,10.14,10.14,0,0,0,286.88,181.18Z"/></g></g></svg>