<svg xmlns="http://www.w3.org/2000/svg" viewBox="0 0 531 504.2"><defs><style>.cls-1{fill:#19b9de;}</style></defs><title>s-bottom-advantages3</title><g id="Слой_2" data-name="Слой 2"><g id="Слой_1-2" data-name="Слой 1"><path d="M528.84,213.94,440,102.84a10.68,10.68,0,0,0-13.84-2.34l-57.38,35.12H293.9a10.75,10.75,0,0,0-2.86.46l-58,16.07L172.8,136.3l-58.5-35.8a10.68,10.68,0,0,0-13.69,2.16L2.31,219.84a9.75,9.75,0,0,0,1.31,13.88l51.53,42.67,46.22,59.95a34.5,34.5,0,0,0,.81,49.26,37.28,37.28,0,0,0,22.32,10.17,33.56,33.56,0,0,0-.43,5.41,34.56,34.56,0,0,0,10.77,25,37.33,37.33,0,0,0,26,10.37h.39c0,.24,0,.48,0,.72A34.55,34.55,0,0,0,172,462.35a37.33,37.33,0,0,0,26,10.37,39,39,0,0,0,5.74-.44,34.68,34.68,0,0,0,10.59,21.56,37.84,37.84,0,0,0,52,0l5.63-5.41,2.36,1.83a37.9,37.9,0,0,0,51.61-.41,34.6,34.6,0,0,0,10.75-25.59,37.51,37.51,0,0,0,26.6-10.35,34.67,34.67,0,0,0,10.76-25.58A37.36,37.36,0,0,0,400.7,418a34.6,34.6,0,0,0,10.75-25.59A37.49,37.49,0,0,0,438.05,382a34.48,34.48,0,0,0,4.84-44.33l33.75-68,50.74-42A9.77,9.77,0,0,0,528.84,213.94ZM111,122.21,153,148,61.53,255.24,24.85,224.87Zm5.94,227.48,12.69-12.22c.39-.37.79-.72,1.21-1.05a16.3,16.3,0,0,1,8.67-3.39h.27c.45,0,.91-.06,1.37,0a16.15,16.15,0,0,1,11.39,4.81c5.88,6,5.56,15.76-.71,21.8l-12.31,11.85a16.43,16.43,0,0,1-22.58,0A15,15,0,0,1,116.91,349.69Zm32.66,62.36a15,15,0,0,1,0-21.74l24.62-23.69a16.62,16.62,0,0,1,18.16-3,15.22,15.22,0,0,1,8.8,15.88,16,16,0,0,1-4.76,9.26l-24.23,23.31a16.43,16.43,0,0,1-22.59,0Zm37.17,36.12a15,15,0,0,1,0-21.73l24.62-23.7a16.63,16.63,0,0,1,19.31-2.43,15.08,15.08,0,0,1,7.62,15.53,16.07,16.07,0,0,1-4.73,9l-24.23,23.31a16.43,16.43,0,0,1-22.59,0Zm42.35,31.5a15,15,0,0,1,0-21.73l12.69-12.22q.58-.56,1.2-1.05l0,0a16.36,16.36,0,0,1,7.08-3.17l.19,0c.44-.08.9-.14,1.35-.18l.55,0c.37,0,.74,0,1.12,0A16.16,16.16,0,0,1,264.69,446a12.68,12.68,0,0,1,1,1.17,15.42,15.42,0,0,1-1.8,20.69l-12.25,11.78A16.42,16.42,0,0,1,229.09,479.67ZM423.32,367.85a16.43,16.43,0,0,1-22.58,0c-.23-.22-.47-.42-.71-.62l-66.95-65.1a10.7,10.7,0,0,0-14.73-.07,9.74,9.74,0,0,0-.07,14.16L386,382l0,0a15,15,0,0,1,0,21.74,16.43,16.43,0,0,1-22.59,0l-45.28-44a10.7,10.7,0,0,0-14.72-.07,9.76,9.76,0,0,0-.08,14.17l44.58,43.34a9.11,9.11,0,0,0,.73.79,15,15,0,0,1,0,21.74,16.44,16.44,0,0,1-22.59,0l-24.71-24a10.71,10.71,0,0,0-14.73-.08,9.76,9.76,0,0,0-.07,14.17l24,23.35a7.76,7.76,0,0,0,.73.79,15,15,0,0,1,0,21.74,16.43,16.43,0,0,1-22.58,0,22.13,22.13,0,0,0-2.37-1.81c-.68-.5-.86-.85-.52-1.65s.86-1.53,1.21-2.34.69-1.84,1-2.77a34.69,34.69,0,0,0-14.21-39.81,37.48,37.48,0,0,0-15.48-5.77,34.81,34.81,0,0,0-8.92-32.25,37.19,37.19,0,0,0-26.23-11.07h-1.1a34.59,34.59,0,0,0-9.84-25A37.24,37.24,0,0,0,186,342.08a39.5,39.5,0,0,0-8.88.91,34.79,34.79,0,0,0-12.17-21.47,37.9,37.9,0,0,0-48.67.51L76,269.84,172.31,157,203,165l-40.07,68.06a34,34,0,0,0-3.45,26.9,35.4,35.4,0,0,0,17.32,21.37c.54.29,1.07.57,1.62.83l.13.06a38,38,0,0,0,26.2,2.43A36.37,36.37,0,0,0,227,268l26-44.23,46.5,3.17L423.33,346.11A15,15,0,0,1,423.32,367.85Zm4.32-45.93L311.47,210.13a7.92,7.92,0,0,0-.69-.61,10.66,10.66,0,0,0-5.93-2.3l-56.94-3.89a10.7,10.7,0,0,0-9.8,5.06l-29.28,49.73a15.82,15.82,0,0,1-9.64,7.24,16.41,16.41,0,0,1-12.13-1.45,15.36,15.36,0,0,1-7.52-9.27A14.74,14.74,0,0,1,181,243l39.09-66.39L236,172.19l.31-.1,59.12-16.43h71.43L456,264.75Zm42-72.9L387.18,148.08l42.09-25.76,77.05,96.33Z"/><path class="cls-1" d="M319.58,116.8a10,10,0,0,0,7.09-2.93l68.44-68.45a10,10,0,0,0-14.17-14.17L312.49,99.7a10,10,0,0,0,7.09,17.1Z"/><path class="cls-1" d="M204.33,113.87A10,10,0,1,0,218.51,99.7L150.06,31.25a10,10,0,0,0-14.17,14.17Z"/><path class="cls-1" d="M265.5,116.8a10,10,0,0,0,10-10V50.14a10,10,0,1,0-20,0v56.64A10,10,0,0,0,265.5,116.8Z"/><path class="cls-1" d="M256.25,13.82A10,10,0,1,0,271.6,2a10.14,10.14,0,0,0-11.66-.38A10.1,10.1,0,0,0,256.25,13.82Z"/></g></g></svg>