<?xml version="1.0" encoding="utf-8"?>
<!-- Generator: Adobe Illustrator 23.0.2, SVG Export Plug-In . SVG Version: 6.00 Build 0)  -->
<svg version="1.1" id="Слой_1" xmlns="http://www.w3.org/2000/svg" xmlns:xlink="http://www.w3.org/1999/xlink" x="0px" y="0px"
	 viewBox="0 0 512 512" style="enable-background:new 0 0 512 512;" xml:space="preserve">
<style type="text/css">
	.st0{fill:#FFFFFF;}
	.st1{fill:#FADB1E;}
</style>
<path class="st0" d="M394.7,355.3c-20.3,0-36.8,16.5-36.8,36.8c0,20.3,16.5,36.8,36.8,36.8s36.8-16.5,36.8-36.8
	C431.5,371.9,415,355.3,394.7,355.3z M394.7,409c-9.3,0-16.8-7.6-16.8-16.8c0-9.3,7.6-16.8,16.8-16.8c9.3,0,16.8,7.6,16.8,16.8
	C411.5,401.4,404,409,394.7,409z"/>
<path class="st0" d="M190.9,62.3h259.4c5.5,0,10-4.5,10-10s-4.5-10-10-10H190.9c-5.5,0-10,4.5-10,10S185.4,62.3,190.9,62.3z"/>
<path class="st0" d="M51.1,56.1c0.3,0.6,0.6,1.2,0.9,1.7c0.4,0.5,0.8,1.1,1.2,1.5c0.5,0.5,1,0.9,1.5,1.3c0.5,0.4,1.1,0.7,1.7,0.9
	c0.6,0.3,1.2,0.4,1.9,0.6c0.6,0.1,1.3,0.2,1.9,0.2c0.7,0,1.3-0.1,2-0.2c0.6-0.1,1.3-0.3,1.9-0.6c0.6-0.3,1.2-0.6,1.7-0.9
	c0.6-0.4,1.1-0.8,1.5-1.3c0.5-0.5,0.9-1,1.3-1.5c0.4-0.5,0.7-1.1,0.9-1.7c0.3-0.6,0.4-1.2,0.6-1.9c0.1-0.6,0.2-1.3,0.2-2
	c0-0.7-0.1-1.3-0.2-1.9c-0.1-0.6-0.3-1.3-0.6-1.9c-0.3-0.6-0.6-1.2-0.9-1.7c-0.4-0.6-0.8-1.1-1.3-1.5c-0.5-0.5-1-0.9-1.5-1.2
	c-0.5-0.4-1.1-0.7-1.7-0.9c-0.6-0.3-1.2-0.4-1.9-0.6c-1.3-0.3-2.6-0.3-3.9,0c-0.6,0.1-1.3,0.3-1.9,0.6c-0.6,0.3-1.2,0.6-1.7,0.9
	c-0.6,0.4-1.1,0.8-1.5,1.2c-0.5,0.5-0.9,1-1.2,1.5c-0.4,0.5-0.7,1.1-0.9,1.7c-0.3,0.6-0.4,1.2-0.6,1.9c-0.1,0.6-0.2,1.3-0.2,1.9
	c0,0.6,0.1,1.3,0.2,2C50.6,54.9,50.8,55.5,51.1,56.1z"/>
<path class="st1" d="M91.1,56.1c0.3,0.6,0.6,1.2,0.9,1.7c0.4,0.5,0.8,1.1,1.2,1.5c1.9,1.9,4.4,2.9,7.1,2.9c0.7,0,1.3-0.1,2-0.2
	c0.6-0.1,1.3-0.3,1.9-0.6c0.6-0.3,1.2-0.6,1.7-0.9c0.6-0.4,1.1-0.8,1.5-1.3c0.5-0.5,0.9-1,1.3-1.5c0.4-0.5,0.7-1.1,0.9-1.7
	c0.3-0.6,0.4-1.2,0.6-1.9c0.1-0.6,0.2-1.3,0.2-2s-0.1-1.3-0.2-1.9c-0.1-0.6-0.3-1.3-0.6-1.9c-0.3-0.6-0.6-1.2-0.9-1.7
	c-0.4-0.6-0.8-1.1-1.2-1.5c-0.5-0.5-1-0.9-1.5-1.2c-0.6-0.4-1.1-0.7-1.7-0.9c-0.6-0.3-1.2-0.4-1.9-0.6c-1.3-0.3-2.6-0.3-3.9,0
	c-0.6,0.1-1.3,0.3-1.9,0.6c-0.6,0.3-1.2,0.6-1.7,0.9c-0.5,0.4-1.1,0.8-1.5,1.2c-0.5,0.5-0.9,1-1.2,1.5c-0.4,0.5-0.7,1.1-0.9,1.7
	c-0.3,0.6-0.4,1.2-0.6,1.9s-0.2,1.3-0.2,1.9c0,0.7,0.1,1.3,0.2,2C90.6,54.9,90.8,55.5,91.1,56.1z"/>
<path class="st0" d="M131,56.1c0.3,0.6,0.6,1.2,0.9,1.7c0.4,0.5,0.8,1.1,1.2,1.5c0.5,0.5,1,0.9,1.5,1.3c0.5,0.4,1.1,0.7,1.7,0.9
	c0.6,0.3,1.2,0.4,1.9,0.6c0.6,0.1,1.3,0.2,1.9,0.2s1.3-0.1,2-0.2c0.6-0.1,1.3-0.3,1.9-0.6c0.6-0.3,1.2-0.6,1.7-0.9
	c0.6-0.4,1.1-0.8,1.5-1.3c0.5-0.5,0.9-1,1.3-1.5c0.4-0.5,0.7-1.1,0.9-1.7c0.3-0.6,0.4-1.2,0.6-1.9c0.1-0.6,0.2-1.3,0.2-2
	c0-0.7-0.1-1.3-0.2-1.9c-0.1-0.6-0.3-1.3-0.6-1.9c-0.3-0.6-0.6-1.2-0.9-1.7c-0.4-0.6-0.8-1.1-1.3-1.5c-0.5-0.5-1-0.9-1.5-1.2
	c-0.5-0.4-1.1-0.7-1.7-0.9c-0.6-0.3-1.2-0.4-1.9-0.6c-1.3-0.3-2.6-0.3-3.9,0c-0.6,0.1-1.3,0.3-1.9,0.6c-0.6,0.3-1.2,0.6-1.7,0.9
	c-0.6,0.4-1.1,0.8-1.5,1.2c-0.5,0.5-0.9,1-1.2,1.5c-0.4,0.5-0.7,1.1-0.9,1.7c-0.3,0.6-0.4,1.2-0.6,1.9c-0.1,0.6-0.2,1.3-0.2,1.9
	c0,0.6,0.1,1.3,0.2,2C130.6,54.9,130.8,55.5,131,56.1z"/>
<path class="st1" d="M89,262.1h60c5.5,0,10-4.5,10-10s-4.5-10-10-10H89c-5.5,0-10,4.5-10,10S83.4,262.1,89,262.1z"/>
<path class="st1" d="M209.9,281.8H195c-5.5,0-10,4.5-10,10c0,5.5,4.5,10,10,10h14.9c5.5,0,10-4.5,10-10
	C219.9,286.3,215.4,281.8,209.9,281.8z"/>
<path class="st1" d="M89,301.8h26c5.5,0,10-4.5,10-10c0-5.5-4.5-10-10-10H89c-5.5,0-10,4.5-10,10C79,297.4,83.4,301.8,89,301.8z"/>
<path class="st1" d="M162.9,286.3c-0.4-0.6-0.8-1.1-1.2-1.5c-0.5-0.5-1-0.9-1.5-1.2c-0.5-0.4-1.1-0.7-1.7-0.9
	c-0.6-0.3-1.2-0.4-1.9-0.6c-1.3-0.3-2.6-0.3-3.9,0c-0.6,0.1-1.3,0.3-1.9,0.6c-0.6,0.3-1.2,0.6-1.7,0.9c-0.5,0.4-1.1,0.8-1.5,1.2
	c-0.5,0.5-0.9,1-1.2,1.5c-0.4,0.5-0.7,1.1-0.9,1.7c-0.3,0.6-0.4,1.2-0.6,1.9c-0.1,0.7-0.2,1.3-0.2,1.9c0,2.6,1.1,5.2,2.9,7.1
	c0.5,0.5,1,0.9,1.5,1.3c0.5,0.4,1.1,0.7,1.7,0.9c0.6,0.3,1.2,0.4,1.9,0.6c0.6,0.1,1.3,0.2,1.9,0.2c0.7,0,1.3-0.1,2-0.2
	c0.6-0.1,1.3-0.3,1.9-0.6c0.6-0.3,1.2-0.6,1.7-0.9c0.5-0.4,1.1-0.8,1.5-1.3c0.5-0.5,0.9-1,1.2-1.5c0.4-0.5,0.7-1.1,0.9-1.7
	c0.3-0.6,0.4-1.2,0.6-1.9c0.1-0.6,0.2-1.3,0.2-2c0-0.6-0.1-1.3-0.2-1.9c-0.1-0.6-0.3-1.3-0.6-1.9S163.3,286.9,162.9,286.3z"/>
<path class="st1" d="M89,341.9h81c5.5,0,10-4.5,10-10c0-5.5-4.5-10-10-10H89c-5.5,0-10,4.5-10,10C79,337.4,83.4,341.9,89,341.9z"/>
<path class="st1" d="M102.9,219.2c2,1.9,4.5,2.9,7.1,2.9c2.6,0,5.1-1,7.1-2.9c3.9-3.9,3.9-10.2,0-14.1l-12.9-12.9l12.9-12.9
	c3.9-3.9,3.9-10.2,0-14.1s-10.2-3.9-14.1,0l-20,20c-3.9,3.9-3.9,10.2,0,14.1L102.9,219.2z"/>
<path class="st1" d="M182.8,219.2c2,1.9,4.5,2.9,7.1,2.9c2.6,0,5.1-1,7.1-2.9l20-20c3.9-3.9,3.9-10.2,0-14.1l-20-20
	c-3.9-3.9-10.2-3.9-14.1,0s-3.9,10.2,0,14.1l12.9,12.9l-12.9,12.9C178.9,209,178.9,215.3,182.8,219.2z"/>
<path class="st1" d="M135.5,221.1c1.4,0.7,3,1.1,4.5,1.1c3.7,0,7.2-2,8.9-5.5l20-40c2.5-4.9,0.5-10.9-4.5-13.4s-10.9-0.5-13.4,4.5
	l-20,40C128.5,212.6,130.5,218.6,135.5,221.1z"/>
<path class="st0" d="M481.9,422.3c8,0,15.6-3.1,21.3-8.8c5.7-5.7,8.8-13.2,8.8-21.3c0-1.3-0.1-2.7-0.3-3.9V32.5
	c0-16.8-15.2-30.5-33.8-30.5H33.8C15.2,2,0,15.7,0,32.5v358.8c0,16.8,15.2,30.5,33.8,30.5H302c1.8,0.3,3.7,0.5,5.5,0.5h1.8
	c1.1,3,2.3,6,3.7,8.9l-1.3,1.3c-5.7,5.7-8.8,13.2-8.8,21.3c0,8.1,3.1,15.6,8.8,21.3c5.7,5.7,13.3,8.8,21.3,8.8
	c8.1,0,15.6-3.1,21.3-8.8l1.3-1.3c2.9,1.4,5.9,2.6,8.9,3.7v1.9c0,8.1,3.1,15.6,8.8,21.3c5.7,5.7,13.2,8.9,21.3,8.9
	c16.6,0,30.1-13.5,30.1-30.1v-1.9c3-1.1,6-2.3,8.9-3.7l1.3,1.3c5.7,5.7,13.3,8.8,21.3,8.8c8.1,0,15.6-3.1,21.3-8.8
	c11.7-11.7,11.7-30.8,0-42.6l-1.3-1.3c1.4-2.9,2.6-5.9,3.7-8.9H481.9z M33.8,22h444.1c7.5,0,13.8,4.8,13.8,10.5v49.7H20V32.5
	C20,26.8,26.3,22,33.8,22z M20,391.3V102.2h471.7v261.5c-3.1-1.1-6.4-1.6-9.8-1.6H480c-1.1-3-2.3-6-3.7-8.9l1.3-1.3
	c5.7-5.7,8.8-13.2,8.8-21.3c0-8.1-3.1-15.6-8.8-21.3c-2-2-4.2-3.6-6.5-5V132.2c0-0.1,0-0.2,0-0.3c0-0.2,0-0.4,0-0.5
	c0-0.2,0-0.3-0.1-0.5s0-0.3-0.1-0.5c0-0.2-0.1-0.3-0.1-0.5c0-0.1-0.1-0.3-0.1-0.4c0-0.2-0.1-0.3-0.2-0.5c-0.1-0.1-0.1-0.3-0.2-0.4
	c-0.1-0.2-0.1-0.3-0.2-0.5c-0.1-0.1-0.1-0.3-0.2-0.4c-0.1-0.1-0.1-0.3-0.2-0.4c-0.1-0.2-0.2-0.3-0.3-0.4c-0.1-0.1-0.2-0.3-0.3-0.4
	c-0.1-0.1-0.2-0.3-0.3-0.4c-0.1-0.1-0.2-0.2-0.3-0.4c-0.1-0.1-0.2-0.2-0.3-0.4c-0.1-0.1-0.3-0.3-0.4-0.4c-0.1-0.1-0.1-0.1-0.2-0.2
	c0,0-0.1-0.1-0.1-0.1c-0.1-0.1-0.3-0.2-0.4-0.3c-0.1-0.1-0.2-0.2-0.4-0.3c-0.1-0.1-0.3-0.2-0.4-0.3c-0.1-0.1-0.3-0.2-0.4-0.2
	c-0.1-0.1-0.3-0.2-0.4-0.2c-0.1-0.1-0.3-0.1-0.4-0.2c-0.1-0.1-0.3-0.1-0.5-0.2s-0.3-0.1-0.5-0.2c-0.2-0.1-0.3-0.1-0.5-0.1
	c-0.2,0-0.3-0.1-0.5-0.1c-0.1,0-0.3-0.1-0.4-0.1c-0.2,0-0.4-0.1-0.5-0.1c-0.1,0-0.3,0-0.4,0c-0.2,0-0.4,0-0.6,0c-0.1,0-0.1,0-0.2,0
	H50.6c-5.5,0-10,4.5-10,10v239.6c0,5.5,4.5,10,10,10h228.6c-1.2,3.3-1.8,6.8-1.8,10.4c0,1.4,0.1,2.8,0.3,4.2
	c0.3,1.9,0.7,3.7,1.3,5.5H33.8C26.3,401.8,20,397,20,391.3z M416,283.7c-5.7-5.7-13.2-8.9-21.3-8.9c-1.9,0-3.7,0.2-5.4,0.5
	l-20.5-23.3l82.4-93.4v142.2c-6,1-11.6,3.9-16.1,8.4l-1.3,1.3c-2.9-1.4-5.9-2.6-8.9-3.7V305C424.8,296.9,421.7,289.3,416,283.7z
	 M311.7,351.8l1.3,1.3c-1.4,2.8-2.6,5.7-3.6,8.7H272l31.2-35.4C302,335.4,304.8,344.9,311.7,351.8z M272,142.2h167l-83.5,94.8
	L272,142.2z M342.1,252.1l-82.2,93.3V158.7L342.1,252.1z M239.9,361.8H60.6V142.2h179.3V361.8z M355.4,267.2l16.2,18.4
	c-2.3,2.7-4.1,5.8-5.2,9c-1.2,3.3-1.8,6.8-1.8,10.3v1.9c-3.1,1.1-6,2.3-8.9,3.7l-1.3-1.3c-5.7-5.7-13.2-8.8-21.3-8.8
	c-2.7,0-5.3,0.4-7.8,1L355.4,267.2z M472.6,402.3c-4.6,0-8.5,3.1-9.7,7.5c-1.6,6.4-4.2,12.5-7.5,18.1c-2.3,3.9-1.7,8.9,1.5,12.2
	l6.5,6.5c3.9,4,4,10.4,0,14.3c-1.9,1.9-4.5,3-7.2,3c-2.7,0-5.3-1.1-7.2-3l-6.5-6.5c-3.2-3.2-8.2-3.9-12.2-1.5
	c-5.6,3.3-11.7,5.9-18.2,7.5c-4.4,1.1-7.5,5.1-7.5,9.7v9.2c0,5.6-4.5,10.1-10.1,10.1c-2.7,0-5.2-1.1-7.2-3c-1.9-1.9-2.9-4.4-2.9-7.1
	v-9.2c0-4.6-3.1-8.5-7.5-9.7c-6.4-1.7-12.5-4.2-18.2-7.5c-1.6-0.9-3.3-1.4-5.1-1.4c-2.6,0-5.1,1-7.1,2.9l-6.6,6.6
	c-1.9,1.9-4.5,3-7.2,3c-2.7,0-5.3-1.1-7.2-3c-1.9-1.9-3-4.5-3-7.2c0-2.7,1-5.3,3-7.2l6.5-6.5c3.2-3.2,3.9-8.2,1.5-12.2
	c-3.3-5.6-5.9-11.7-7.5-18.1c-1.1-4.4-5.1-7.5-9.7-7.5h-9.2c-0.8,0-1.5-0.1-2.3-0.3c-4.1-0.9-7.2-4.3-7.7-8.5
	c-0.1-0.5-0.1-0.9-0.1-1.4c0-2.7,1.1-5.2,3-7.2c1.9-1.9,4.4-3,7.1-3h9.2c4.6,0,8.6-3.1,9.7-7.6l0-0.2c1.7-6.3,4.2-12.3,7.5-17.9
	c2.3-3.9,1.7-8.9-1.5-12.2l-6.5-6.5c-3.9-4-3.9-10.4,0-14.3c1.9-1.9,4.4-2.9,7.2-2.9c2.7,0,5.3,1,7.2,3l6.5,6.5
	c3.2,3.2,8.2,3.9,12.2,1.5c5.6-3.3,11.7-5.9,18.2-7.5c4.4-1.1,7.5-5.1,7.5-9.7V305c0-1.2,0.2-2.4,0.6-3.5c0.5-1.3,1.3-2.5,2.3-3.6
	c0.8-0.9,1.8-1.5,2.9-2.1c0,0,0,0,0,0c1.3-0.6,2.8-1,4.3-1c2.7,0,5.2,1.1,7.2,3c1.9,1.9,3,4.4,3,7.1v9.2c0,4.6,3.1,8.5,7.5,9.7
	c6.4,1.7,12.5,4.2,18.1,7.5c3.9,2.3,8.9,1.7,12.2-1.5l6.5-6.5c2.5-2.5,6.1-3.5,9.6-2.7c1.8,0.4,3.4,1.4,4.8,2.7c1.9,1.9,3,4.5,3,7.2
	s-1.1,5.3-3,7.2l-6.5,6.5c-3.2,3.2-3.9,8.2-1.5,12.2c3.3,5.7,5.9,11.8,7.5,18.1c1.1,4.4,5.1,7.5,9.7,7.5h9.2c5,0,9.2,3.5,10,8.5
	c0.1,0.5,0.1,1,0.1,1.6c0,2.7-1.1,5.2-3,7.2c-1.9,1.9-4.4,3-7.1,3H472.6z"/>
</svg>
