<?xml version="1.0" encoding="utf-8"?>
<!-- Generator: Adobe Illustrator 23.0.2, SVG Export Plug-In . SVG Version: 6.00 Build 0)  -->
<svg version="1.1" id="Слой_1" xmlns="http://www.w3.org/2000/svg" xmlns:xlink="http://www.w3.org/1999/xlink" x="0px" y="0px"
	 viewBox="0 0 512 512" style="enable-background:new 0 0 512 512;" xml:space="preserve">
<style type="text/css">
	.st0{fill:#FFFFFF;}
	.st1{fill:#FADB1E;}
</style>
<path class="st0" d="M502,333.8h-16.5c-2.5-8.7-6-17.1-10.4-25.1l11.7-11.7c1.9-1.9,2.9-4.4,2.9-7.1c0-2.7-1.1-5.2-2.9-7.1
	l-33.9-33.9c-3.9-3.9-10.2-3.9-14.1,0l-11.6,11.6c-8-4.4-16.4-7.9-25.1-10.4v-16.4c0-5.5-4.5-10-10-10h-47.9c-5.5,0-10,4.5-10,10
	v16.4c-8.8,2.5-17.2,6-25.1,10.4l-11.6-11.6c-1.9-1.9-4.4-2.9-7.1-2.9c-0.9,0-1.7,0.1-2.5,0.3v-46.8c0-5.5-4.5-10-10-10h-16.5
	c-2.5-8.7-6-17.1-10.4-25.1l11.7-11.7c3.9-3.9,3.9-10.2,0-14.1l-33.9-33.9c-3.9-3.9-10.2-3.9-14.1,0l-11.6,11.6
	c-8-4.4-16.4-7.9-25.1-10.4V89.7c0-5.5-4.5-10-10-10H120c-5.5,0-10,4.5-10,10v16.4c-8.8,2.5-17.2,6-25.1,10.4l-11.6-11.6
	c-1.9-1.9-4.4-2.9-7.1-2.9c-2.6,0-5.2,1.1-7.1,2.9l-33.9,33.9c-3.9,3.9-3.9,10.2,0,14.1l11.6,11.6c-4.4,8-7.9,16.4-10.4,25.1H10
	c-5.5,0-10,4.5-10,10v47.9c0,5.5,4.5,10,10,10h16.4c2.5,8.7,6,17.1,10.4,25.1l-11.6,11.6c-1.9,1.9-2.9,4.4-2.9,7.1
	c0,2.7,1.1,5.2,2.9,7.1l33.9,33.9c3.9,3.9,10.2,3.9,14.1,0l11.7-11.7c7.9,4.4,16.3,7.9,25.1,10.4v16.5c0,5.5,4.5,10,10,10h47.9
	c5.5,0,10-4.5,10-10v-16.6c8.7-2.5,17.1-6,25-10.4l11.7,11.7c1.9,1.9,4.4,2.9,7.1,2.9c0.9,0,1.7-0.1,2.5-0.3v46.8
	c0,5.5,4.5,10,10,10h16.4c2.5,8.7,6,17.1,10.4,25.1l-11.6,11.6c-1.9,1.9-2.9,4.4-2.9,7.1c0,2.6,1.1,5.2,2.9,7.1l33.9,33.9
	c3.9,3.9,10.2,3.9,14.1,0l11.7-11.7c7.9,4.4,16.3,7.9,25.1,10.4v16.5c0,5.5,4.5,10,10,10H392c5.5,0,10-4.5,10-10v-16.6
	c8.7-2.5,17.1-6,25-10.4l11.7,11.7c3.9,3.9,10.2,3.9,14.1,0l33.9-33.9c1.9-1.9,2.9-4.4,2.9-7.1c0-2.7-1.1-5.2-2.9-7.1l-11.7-11.7
	c4.4-7.9,7.9-16.3,10.4-25H502c5.5,0,10-4.5,10-10v-47.9C512,338.3,507.5,333.8,502,333.8z M259.4,311.6c-3.7,7.1-6.6,14.5-8.8,22.2
	h-13.4L259.4,311.6z M252.1,280.2c3.8-7.2,6.9-14.8,9.1-22.7h13.6L252.1,280.2z M211.5,310.9c-3.3-3.3-8.5-3.9-12.5-1.3
	c-10.2,6.6-21.4,11.2-33.3,13.8c-4.6,1-7.9,5.1-7.9,9.8v14.4h-27.9v-14.3c0-4.7-3.3-8.8-7.9-9.8c-11.9-2.6-23.1-7.2-33.3-13.8
	c-4-2.5-9.1-2-12.5,1.3l-10.1,10.1l-19.7-19.7l10.1-10.1c3.3-3.3,3.9-8.5,1.3-12.5c-6.6-10.2-11.3-21.5-13.9-33.4
	c-1-4.6-5.1-7.9-9.8-7.9H20v-27.9h14.2c4.7,0,8.8-3.3,9.8-7.9c2.6-11.9,7.2-23.2,13.8-33.4c2.5-4,2-9.1-1.3-12.5l-10-10l19.7-19.7
	l10,10c3.3,3.3,8.5,3.9,12.5,1.3c10.3-6.6,21.5-11.3,33.4-13.8c4.6-1,7.9-5.1,7.9-9.8V99.7h27.9v14.2c0,4.7,3.3,8.8,7.9,9.8
	c11.9,2.6,23.1,7.3,33.4,13.9c4,2.5,9.1,2,12.5-1.3l10.1-10.1l19.7,19.7L231.3,156c-3.3,3.3-3.9,8.5-1.3,12.5
	c6.6,10.2,11.2,21.5,13.8,33.3c1,4.6,5.1,7.9,9.8,7.9h14.3v27.9h-14.4c-4.7,0-8.8,3.3-9.8,7.9c-2.6,11.9-7.2,23.1-13.8,33.3
	c-2.5,4-2,9.1,1.3,12.5l10.2,10.2l-19.7,19.7L211.5,310.9z M492,381.7h-14.4c-4.7,0-8.8,3.3-9.8,7.9c-2.6,11.9-7.2,23.1-13.8,33.3
	c-2.5,4-2,9.1,1.3,12.5l10.2,10.2l-19.7,19.7l-10.2-10.2c-3.3-3.3-8.5-3.9-12.5-1.3c-10.2,6.6-21.4,11.2-33.3,13.8
	c-4.6,1-7.9,5.1-7.9,9.8v14.4h-27.9v-14.3c0-4.7-3.3-8.8-7.9-9.8c-11.9-2.6-23.1-7.2-33.3-13.8c-4-2.5-9.1-2-12.5,1.3l-10.1,10.1
	l-19.7-19.7l10.1-10.1c3.3-3.3,3.9-8.5,1.3-12.5c-6.6-10.2-11.3-21.5-13.9-33.4c-1-4.6-5.1-7.9-9.8-7.9h-14.2v-27.9h14.2
	c4.7,0,8.8-3.3,9.8-7.9c2.6-11.9,7.2-23.2,13.8-33.4c2.5-4,2-9.1-1.3-12.5l-10-10l19.7-19.7l10,10c3.3,3.3,8.5,3.9,12.5,1.3
	c10.3-6.6,21.5-11.3,33.4-13.8c4.6-1,7.9-5.1,7.9-9.8v-14.2h27.9v14.2c0,4.7,3.3,8.8,7.9,9.8c11.9,2.6,23.1,7.3,33.4,13.9
	c4,2.5,9.2,2,12.5-1.3l10.1-10.1l19.7,19.7l-10.1,10.1c-3.3,3.3-3.9,8.5-1.3,12.5c6.6,10.2,11.2,21.5,13.8,33.3
	c1,4.6,5.1,7.9,9.8,7.9H492V381.7z"/>
<path class="st1" d="M325.7,335.4c2.6,0,5.1-1,7.1-2.9l0.1-0.1c3.9-3.9,3.9-10.2,0.1-14.1c-3.9-3.9-10.2-3.9-14.1-0.1l-0.2,0.2
	c-3.9,3.9-3.9,10.2,0,14.1C320.6,334.4,323.1,335.4,325.7,335.4z"/>
<path class="st1" d="M351.1,299.9c-5.4,1.3-8.6,6.8-7.3,12.1s6.8,8.6,12.1,7.3c17.2-4.3,35,0.6,47.5,13.1
	c19.5,19.5,19.5,51.2,0,70.7c-9.4,9.4-22,14.6-35.3,14.6c-13.3,0-25.9-5.2-35.3-14.6c-11.8-11.8-16.9-28.5-13.7-44.9
	c1.1-5.4-2.5-10.7-7.9-11.7c-5.4-1-10.7,2.5-11.7,7.9c-4.4,22.9,2.8,46.4,19.2,62.8c13.2,13.2,30.8,20.5,49.5,20.5
	c18.7,0,36.3-7.3,49.5-20.5c27.3-27.3,27.3-71.7,0-98.9C400.3,301,374.8,294,351.1,299.9z"/>
<path class="st0" d="M398.1,367.8c0-16.5-13.4-30-30-30s-30,13.4-30,30s13.4,30,30,30S398.1,384.3,398.1,367.8z M358.1,367.8
	c0-5.5,4.5-10,10-10s10,4.5,10,10c0,5.5-4.5,10-10,10S358.1,373.3,358.1,367.8z"/>
<path class="st1" d="M179.4,188.5c1.9,1.9,4.5,2.9,7,2.9c2.6,0,5.1-1,7.1-3c3.9-3.9,3.8-10.3-0.1-14.2l-0.1-0.1
	c-3.9-3.9-10.2-3.8-14.1,0.1c-3.9,3.9-3.8,10.3,0.1,14.2L179.4,188.5z"/>
<path class="st1" d="M202.3,206.5c-5.5,0.7-9.4,5.6-8.7,11.1c1.8,15.3-3.4,30.4-14.3,41.3c-19.5,19.5-51.2,19.5-70.7,0
	c-9.4-9.4-14.6-22-14.6-35.3s5.2-25.9,14.6-35.3c11.3-11.3,27.5-16.5,43.3-14c5.4,0.9,10.6-2.8,11.4-8.3s-2.8-10.6-8.3-11.4
	c-22.1-3.5-44.8,3.8-60.6,19.6C81.2,187.4,74,204.9,74,223.6c0,18.7,7.3,36.3,20.5,49.5c13.6,13.6,31.5,20.5,49.5,20.5
	c17.9,0,35.8-6.8,49.5-20.5c15.3-15.3,22.6-36.3,20-57.8C212.7,209.8,207.7,205.9,202.3,206.5z"/>
<path class="st0" d="M113.9,223.6c0,16.5,13.4,30,30,30s30-13.4,30-30s-13.4-30-30-30S113.9,207.1,113.9,223.6z M153.9,223.6
	c0,5.5-4.5,10-10,10s-10-4.5-10-10s4.5-10,10-10S153.9,218.1,153.9,223.6z"/>
<path class="st0" d="M502,76.7h-19.7c-2.9-6.9-6.7-13.5-11.3-19.5l9.9-17.1c2.8-4.8,1.1-10.9-3.7-13.7L433.7,1.3
	c-2.3-1.3-5-1.7-7.6-1c-2.6,0.7-4.7,2.4-6.1,4.7l-9.9,17.1c-7.4-0.9-15-0.9-22.5,0L377.9,5c-2.8-4.8-8.9-6.4-13.7-3.7l-43.5,25.1
	c-2.3,1.3-4,3.5-4.7,6.1c-0.7,2.6-0.3,5.3,1,7.6l9.9,17.1c-4.6,6-8.3,12.5-11.3,19.5h-19.7c-5.5,0-10,4.5-10,10v50.3
	c0,5.5,4.5,10,10,10h19.7c2.9,6.9,6.7,13.5,11.3,19.5l-9.9,17.1c-1.3,2.3-1.7,5-1,7.6c0.7,2.6,2.4,4.7,4.7,6.1l43.5,25.1
	c1.6,0.9,3.3,1.3,5,1.3c3.5,0,6.8-1.8,8.7-5l9.9-17.1c7.4,0.9,15,0.9,22.5,0l9.9,17.1c1.3,2.3,3.5,4,6.1,4.7c2.6,0.7,5.3,0.3,7.6-1
	l43.5-25.1c4.8-2.8,6.4-8.9,3.7-13.6l-9.9-17.1c4.6-6,8.3-12.5,11.3-19.5H502c5.5,0,10-4.5,10-10V86.7C512,81.2,507.5,76.7,502,76.7
	z M492,126.9h-16.6c-4.3,0-8.1,2.8-9.5,6.9c-3,9.2-7.9,17.6-14.4,24.9c-2.9,3.2-3.4,7.9-1.2,11.7l8.3,14.4L432.4,200l-8.3-14.4
	c-2.2-3.7-6.5-5.7-10.7-4.8c-9.4,2-19.4,2-28.8,0c-4.2-0.9-8.5,1.1-10.7,4.8l-8.3,14.4l-26.2-15.1l8.3-14.4
	c2.2-3.7,1.7-8.4-1.2-11.7c-6.5-7.3-11.4-15.7-14.4-24.9c-1.3-4.1-5.2-6.9-9.5-6.9h-16.6V96.7h16.6c4.3,0,8.1-2.8,9.5-6.9
	c3-9.2,7.9-17.6,14.4-24.9c2.9-3.2,3.4-7.9,1.2-11.7l-8.3-14.4l26.2-15.1l8.3,14.4c2.2,3.7,6.5,5.7,10.7,4.8c9.4-2,19.4-2,28.8,0
	c4.2,0.9,8.5-1.1,10.7-4.8l8.3-14.4l26.2,15.1l-8.3,14.4c-2.2,3.7-1.7,8.4,1.2,11.7c6.5,7.3,11.4,15.7,14.4,24.9
	c1.3,4.1,5.2,6.9,9.5,6.9H492V126.9z"/>
<path class="st1" d="M399,65.7c-25.4,0-46.1,20.7-46.1,46.1c0,25.4,20.7,46.1,46.1,46.1s46.1-20.7,46.1-46.1
	C445.1,86.4,424.4,65.7,399,65.7z M399,137.9c-14.4,0-26.1-11.7-26.1-26.1c0-14.4,11.7-26.1,26.1-26.1s26.1,11.7,26.1,26.1
	C425.1,126.2,413.4,137.9,399,137.9z"/>
</svg>
