<?xml version="1.0" encoding="utf-8"?>
<!-- Generator: Adobe Illustrator 23.0.2, SVG Export Plug-In . SVG Version: 6.00 Build 0)  -->
<svg version="1.1" id="Capa_1" xmlns="http://www.w3.org/2000/svg" xmlns:xlink="http://www.w3.org/1999/xlink" x="0px" y="0px"
	 viewBox="0 0 512 512" style="enable-background:new 0 0 512 512;" xml:space="preserve">
<style type="text/css">
	.st0{fill:#FADB1E;}
	.st1{fill:#FFFFFF;}
</style>
<g>
	<g>
		<path class="st0" d="M236.1,356.9c-1.9-1.9-4.4-2.9-7.1-2.9c-2.6,0-5.2,1.1-7.1,2.9c-1.9,1.9-2.9,4.4-2.9,7.1
			c0,2.6,1.1,5.2,2.9,7.1c1.9,1.9,4.4,2.9,7.1,2.9s5.2-1.1,7.1-2.9s2.9-4.4,2.9-7.1C239,361.3,237.9,358.8,236.1,356.9z"/>
	</g>
</g>
<g>
	<g>
		<path class="st1" d="M430.2,54H328.5c-5.5,0-10,4.5-10,10s4.5,10,10,10h101.7c4.3,0,7.8,3.5,7.8,7.8V157c0,5.5,4.5,10,10,10
			s10-4.5,10-10V81.8C458,66.4,445.5,54,430.2,54z"/>
	</g>
</g>
<g>
	<g>
		<path class="st0" d="M299.1,56.9c-1.9-1.9-4.4-2.9-7.1-2.9s-5.2,1.1-7.1,2.9c-1.9,1.9-2.9,4.4-2.9,7.1c0,2.6,1.1,5.2,2.9,7.1
			c1.9,1.9,4.4,2.9,7.1,2.9s5.2-1.1,7.1-2.9c1.9-1.9,2.9-4.4,2.9-7.1C302,61.4,300.9,58.8,299.1,56.9z"/>
	</g>
</g>
<g>
	<g>
		<path class="st1" d="M427.1,322.3c12.7-12.5,20.7-29.9,20.7-49V200c0-5.5-4.5-10-10-10H365c-30.2,0-54.7,24.5-54.7,54.7v28.6
			c0,19,7.8,36.3,20.3,48.7H266v-20.4c0-38-28.6-69.5-65.4-74c7.3-9,11.6-20.4,11.6-32.8v-41c0-0.4,0-0.8-0.1-1.2
			c0-0.7,0.1-1.4,0.1-2.2v-26c0-5.5-4.5-10-10-10h-52.3c-23.2,0-42.2,18.9-42.2,42.2v9.9v8.3v20c0,12.4,4.4,23.9,11.6,32.8
			c-36.8,4.6-65.4,36-65.4,74V322H20V81.8c0-4.3,3.5-7.8,7.8-7.8h11.9c5.5,0,10-4.5,10-10s-4.5-10-10-10H27.8C12.5,54,0,66.4,0,81.8
			v296.5C0,393.5,12.5,406,27.8,406H180v46.2c-25.2,2.6-45,23.9-45,49.8c0,5.5,4.5,10,10,10h357c5.5,0,10-4.5,10-10v-87.2
			C512,366.3,474.6,326.3,427.1,322.3z M330.3,273.3v-28.6c0-19.1,15.6-34.7,34.7-34.7h62.7v63.3c0,26.9-21.9,48.7-48.7,48.7
			S330.3,300.1,330.3,273.3z M127.8,156.5c0-12.2,9.9-22.2,22.2-22.2h42.3v16c0,7.9-6.5,14.4-14.4,14.4h-50.1V156.5z M127.8,184.7
			h50.1c5.1,0,10-1.1,14.4-3.2v13.2h0c0,17.8-14.5,32.2-32.2,32.2s-32.2-14.5-32.2-32.2L127.8,184.7z M171.7,247L171.7,247
			L160,258.6L148.3,247L171.7,247L171.7,247z M74,301.6c0-27.4,20.3-50.2,46.6-54l32.3,32.3c2,2,4.5,2.9,7.1,2.9s5.1-1,7.1-2.9
			l32.3-32.3c26.3,3.9,46.6,26.6,46.6,54V322H74V301.6z M246,492h-89.3c4.1-11.7,15.3-20.1,28.4-20.1H246V492z M246,414.8v37.2h-46
			v-46h46.4C246.1,408.9,246,411.8,246,414.8z M27.8,386c-4.3,0-7.8-3.5-7.8-7.8V342h261.3c-14.2,11.2-25,26.5-30.7,44H27.8z
			 M492,451.9h-76.5c-5.5,0-10,4.5-10,10s4.5,10,10,10H492V492H266v-77.2c0-40,32.4-72.6,72.4-72.8H368c0.1,0,0.1,0,0.2,0h51
			c40.1,0,72.8,32.7,72.8,72.8V451.9z"/>
	</g>
</g>
<g>
	<g>
		<path class="st0" d="M160.2,0c-5.5,0-10,4.5-10,10v54c0,5.5,4.5,10,10,10s10-4.5,10-10V10C170.2,4.5,165.7,0,160.2,0z"/>
	</g>
</g>
<g>
	<g>
		<path class="st0" d="M245,39.2c-3.9-3.9-10.2-3.9-14.1,0l-17.6,17.6c-3.9,3.9-3.9,10.2,0,14.1c2,2,4.5,2.9,7.1,2.9
			c2.6,0,5.1-1,7.1-2.9L245,53.4C248.9,49.5,248.9,43.1,245,39.2z"/>
	</g>
</g>
<g>
	<g>
		<path class="st0" d="M106.9,56.9L89.2,39.2c-3.9-3.9-10.2-3.9-14.1,0c-3.9,3.9-3.9,10.2,0,14.1l17.7,17.7c2,2,4.5,2.9,7.1,2.9
			s5.1-1,7.1-2.9C110.8,67.2,110.8,60.8,106.9,56.9z"/>
	</g>
</g>
<g>
	<g>
		<path class="st0" d="M386.1,454.9c-1.9-1.9-4.4-2.9-7.1-2.9s-5.2,1.1-7.1,2.9c-1.9,1.9-2.9,4.4-2.9,7.1c0,2.6,1.1,5.2,2.9,7.1
			s4.4,2.9,7.1,2.9s5.2-1.1,7.1-2.9c1.9-1.9,2.9-4.4,2.9-7.1C389,459.3,387.9,456.7,386.1,454.9z"/>
	</g>
</g>
</svg>
