<?xml version="1.0" encoding="utf-8"?>
<!-- Generator: Adobe Illustrator 23.0.2, SVG Export Plug-In . SVG Version: 6.00 Build 0)  -->
<svg version="1.1" id="Capa_1" xmlns="http://www.w3.org/2000/svg" xmlns:xlink="http://www.w3.org/1999/xlink" x="0px" y="0px"
	 viewBox="0 0 512 512" style="enable-background:new 0 0 512 512;" xml:space="preserve">
<style type="text/css">
	.st0{fill:#FFFFFF;}
	.st1{fill:#FADB1E;}
</style>
<g>
	<g>
		<path class="st0" d="M174,377.1c-0.1,0-0.2,0-0.3-0.1c9.4-10.5,15.1-24.2,15.1-39.3v-44.3c0-26.1-21.2-47.3-47.3-47.3H80.7
			c-5.5,0-10,4.5-10,10v81.7c0,15.1,5.7,28.9,15.1,39.3c-0.1,0-0.2,0-0.3,0.1c-43.2,4-77.2,40.4-77.2,84.7V502c0,5.5,4.5,10,10,10
			h222.9c5.5,0,10-4.5,10-10v-40.3C251.2,417.5,217.2,381.1,174,377.1z M129.7,376.7c-21.5,0-39-17.5-39-39v-17.9
			c5.4,3,11.7,4.7,18.3,4.7h59.8v13.2C168.8,359.2,151.3,376.7,129.7,376.7z M147.2,396.7l-17.4,17.4l-17.4-17.4H147.2z M90.7,266
			L90.7,266h50.7c15.1,0,27.3,12.3,27.3,27.3v11.1H109c-10.1,0-18.3-8.2-18.3-18.3L90.7,266z M28.3,492v-30.3
			c0-32.9,24.6-60.2,56.3-64.4l38,38c2,2,4.5,2.9,7.1,2.9c2.6,0,5.1-1,7.1-2.9l38-38c31.8,4.3,56.3,31.5,56.3,64.4V492H28.3z"/>
	</g>
</g>
<g>
	<g>
		<path class="st0" d="M454.4,384.5c7.7-7.6,12.5-18.2,12.5-29.9V314c0-23.1-11.6-43.5-29.2-55.8c0.2-0.7,0.2-1.4,0.2-2.2v-23.8
			c23.4-2.9,41.5-22.9,41.5-47.1V84.9c0-26.2-21.3-47.5-47.5-47.5H276.5c-26.2,0-47.5,21.3-47.5,47.5v100.2
			c0,26.2,21.3,47.5,47.5,47.5h113.9l13.6,13.6c-1.7-0.1-3.4-0.2-5.1-0.2c-37.5,0-68,30.5-68,68v40.7c0,11.7,4.8,22.2,12.5,29.9
			c-29.1,13.4-49.3,42.9-49.3,77V502c0,5.5,4.5,10,10,10h189.7c5.5,0,10-4.5,10-10v-40.5C503.7,427.4,483.5,397.9,454.4,384.5z
			 M401.5,215.5c-1.9-1.9-4.4-2.9-7.1-2.9h-118c-15.1,0-27.5-12.3-27.5-27.5V84.9c0-15.1,12.3-27.5,27.5-27.5h155.5
			c15.1,0,27.5,12.3,27.5,27.5v0.5H396c-5.5,0-10,4.5-10,10s4.5,10,10,10h63.4v79.7c0,15.1-12.3,27.5-27.5,27.5h-4.1
			c-5.5,0-10,4.5-10,10v9.3L401.5,215.5z M350.9,314c0-26.5,21.5-48,48-48c26.5,0,48,21.5,48,48v40.7c0,12.2-9.9,22.1-22.1,22.1
			h-5.8h-40.2h-5.8v0c-12.2,0-22.1-9.9-22.1-22.1L350.9,314L350.9,314z M483.7,492L483.7,492H314v-30.5c0-35.7,29.1-64.8,64.8-64.8
			h40.2c35.7,0,64.8,29.1,64.8,64.8V492z"/>
	</g>
</g>
<g>
	<g>
		<path class="st1" d="M213,0H96.7C70.5,0,49.2,21.3,49.2,47.5v100.2c0,24.2,18.1,44.2,41.5,47.1v23.8c0,4,2.4,7.7,6.2,9.2
			c1.2,0.5,2.5,0.8,3.8,0.8c2.6,0,5.2-1,7.1-2.9l30.5-30.5h52c5.5,0,10-4.5,10-10s-4.5-10-10-10h-56.1c-2.7,0-5.2,1.1-7.1,2.9
			l-16.3,16.3v-9.3c0-5.5-4.5-10-10-10h-4.1c-15.1,0-27.5-12.3-27.5-27.5V47.5C69.2,32.3,81.5,20,96.7,20H213c5.5,0,10-4.5,10-10
			S218.5,0,213,0z"/>
	</g>
</g>
<g>
	<g>
		<path class="st1" d="M259.2,2.9c-1.9-1.9-4.4-2.9-7.1-2.9c-2.6,0-5.2,1.1-7.1,2.9c-1.9,1.9-2.9,4.4-2.9,7.1s1.1,5.2,2.9,7.1
			c1.8,1.9,4.4,2.9,7.1,2.9c2.6,0,5.2-1.1,7.1-2.9c1.9-1.9,2.9-4.4,2.9-7.1S261.1,4.8,259.2,2.9z"/>
	</g>
</g>
<g>
	<g>
		<path class="st1" d="M361.3,88.4c-1.9-1.9-4.4-2.9-7.1-2.9c-2.6,0-5.2,1.1-7.1,2.9c-1.9,1.9-2.9,4.4-2.9,7.1s1.1,5.2,2.9,7.1
			s4.4,2.9,7.1,2.9s5.2-1.1,7.1-2.9c1.9-1.9,2.9-4.4,2.9-7.1S363.1,90.3,361.3,88.4z"/>
	</g>
</g>
</svg>
