<?xml version="1.0" encoding="utf-8"?>
<!-- Generator: Adobe Illustrator 23.0.2, SVG Export Plug-In . SVG Version: 6.00 Build 0)  -->
<svg version="1.1" id="Capa_1" xmlns="http://www.w3.org/2000/svg" xmlns:xlink="http://www.w3.org/1999/xlink" x="0px" y="0px"
	 viewBox="0 0 512 512" style="enable-background:new 0 0 512 512;" xml:space="preserve">
<style type="text/css">
	.st0{fill:#FFFFFF;}
	.st1{fill:#FADB1E;}
</style>
<g>
	<g>
		<path class="st0" d="M502,208.7h-64c-5.5,0-10,4.5-10,10v50.5c0,5.5,4.5,10,10,10s10-4.5,10-10v-40.5h44V492h-22h-22V344.2
			c0-5.5-4.5-10-10-10s-10,4.5-10,10V492h-20V285c0-5.5-4.5-10-10-10h-64c-5.5,0-10,4.5-10,10v207h-20V355c0-5.5-4.5-10-10-10h-64
			c-5.5,0-10,4.5-10,10v137h-20v-79.6c0-5.5-4.5-10-10-10h-64c-5.5,0-10,4.5-10,10V492H30c-5.5,0-10-4.5-10-10V30
			c0-5.5,4.5-10,10-10h258v66c0,16.5,13.5,30,30,30h66v123c0,5.5,4.5,10,10,10s10-4.5,10-10V106c0-2.7-1.1-5.2-2.9-7.1l-96-96
			C303.2,1.1,300.6,0,298,0H30C13.5,0,0,13.5,0,30v452c0,16.5,13.5,30,30,30h472c5.5,0,10-4.5,10-10V218.7
			C512,213.2,507.5,208.7,502,208.7z M308,34.1L369.8,96H318c-5.5,0-10-4.5-10-10V34.1z M180,492h-44v-69.6h44V492z M284,492h-44
			V365h44V492z M388,492h-44V295h44V492z"/>
	</g>
</g>
<g>
	<g>
		<path class="st1" d="M445.1,297.8c-1.9-1.9-4.4-2.9-7.1-2.9s-5.2,1.1-7.1,2.9c-1.9,1.9-2.9,4.4-2.9,7.1s1.1,5.2,2.9,7.1
			c1.9,1.9,4.4,2.9,7.1,2.9s5.2-1.1,7.1-2.9s2.9-4.4,2.9-7.1S446.9,299.7,445.1,297.8z"/>
	</g>
</g>
<g>
	<g>
		<path class="st1" d="M145.6,54.7c-5.5,0-10,4.5-10,10v18c-46,5-82,44.1-82,91.4c0,50.7,41.3,92,92,92c47.3,0,86.4-35.9,91.4-82h18
			c5.5,0,10-4.5,10-10C265,108.3,211.4,54.7,145.6,54.7z M145.6,246.1c-39.7,0-72-32.3-72-72c0-36.3,27-66.4,62-71.3v71.3
			c0,5.5,4.5,10,10,10h71.3C212,219.1,181.9,246.1,145.6,246.1z M155.6,164.2L155.6,164.2V75.2c46.9,4.7,84.2,42.1,88.9,88.9H155.6z
			"/>
	</g>
</g>
<g>
	<g>
		<path class="st1" d="M255,294.3H64c-5.5,0-10,4.5-10,10s4.5,10,10,10h191c5.5,0,10-4.5,10-10S260.5,294.3,255,294.3z"/>
	</g>
</g>
<g>
	<g>
		<path class="st1" d="M128,342.5H64c-5.5,0-10,4.5-10,10s4.5,10,10,10h64c5.5,0,10-4.5,10-10S133.5,342.5,128,342.5z"/>
	</g>
</g>
<g>
	<g>
		<path class="st1" d="M185.1,345.4c-1.9-1.9-4.4-2.9-7.1-2.9c-2.6,0-5.2,1.1-7.1,2.9c-1.9,1.9-2.9,4.4-2.9,7.1s1.1,5.2,2.9,7.1
			c1.9,1.9,4.4,2.9,7.1,2.9c2.6,0,5.2-1.1,7.1-2.9c1.9-1.9,2.9-4.4,2.9-7.1S187,347.3,185.1,345.4z"/>
	</g>
</g>
</svg>
