<?xml version="1.0" encoding="utf-8"?><svg xmlns="http://www.w3.org/2000/svg" xmlns:xlink="http://www.w3.org/1999/xlink"><symbol viewBox="0 0 26 81" id="arrow-left" xmlns="http://www.w3.org/2000/svg"><path d="M22.222 80.673a3.19 3.19 0 0 0 1.424-.336 3.2 3.2 0 0 0 1.447-4.293L7.506 40.662 25.093 5.277A3.2 3.2 0 0 0 23.646.984a3.207 3.207 0 0 0-4.3 1.446L.341 40.662l19.003 38.23a3.211 3.211 0 0 0 2.877 1.78z"/></symbol><symbol viewBox="0 0 26 81" id="arrow-right" xmlns="http://www.w3.org/2000/svg"><path d="M3.778 80.673a3.19 3.19 0 0 1-1.424-.336 3.2 3.2 0 0 1-1.447-4.293l17.587-35.382L.907 5.277A3.2 3.2 0 0 1 2.354.984a3.207 3.207 0 0 1 4.3 1.446l19.004 38.232-19.004 38.23a3.211 3.211 0 0 1-2.876 1.78z"/></symbol><symbol viewBox="0 0 20 16" id="check" xmlns="http://www.w3.org/2000/svg"><path d="M.418 9.154l2.125 2.104 2.129 2.105 2.127 2.104a1.522 1.522 0 0 0 2.124.002l.005-.002 2.125-2.104 2.129-2.105 2.127-2.104c.196-.194.436-.43.687-.68l1.263-1.249c.061-.06.123-.12.178-.176l2.126-2.102a1.483 1.483 0 0 0 0-2.106L17.437.74a1.522 1.522 0 0 0-2.128 0l-2.127 2.1-.141.14-1.314 1.3-.283.28-.391.386-2.125 2.102-.003.003a1.523 1.523 0 0 1-2.126-.003L4.672 4.947a1.522 1.522 0 0 0-2.129 0l-.752.744L.418 7.049a1.48 1.48 0 0 0 0 2.105z"/></symbol><symbol viewBox="0 0 7 11" id="chevron-left2" xmlns="http://www.w3.org/2000/svg"><path d="M5.676 0L7 1.283 2.649 5.5 7 9.717 5.676 11 0 5.5z"/></symbol><symbol class="esvg-inline--fa efa-chevron-right efa-w-10" viewBox="0 0 320 512" id="chevron-right" xmlns="http://www.w3.org/2000/svg"><path d="M285.476 272.971L91.132 467.314c-9.373 9.373-24.569 9.373-33.941 0l-22.667-22.667c-9.357-9.357-9.375-24.522-.04-33.901L188.505 256 34.484 101.255c-9.335-9.379-9.317-24.544.04-33.901l22.667-22.667c9.373-9.373 24.569-9.373 33.941 0L285.475 239.03c9.373 9.372 9.373 24.568.001 33.941z"/></symbol><symbol viewBox="0 0 6 9" id="chevron-right2" xmlns="http://www.w3.org/2000/svg"><path d="M1.13.009L-.007 1.057l3.735 3.446-3.735 3.445L1.13 8.996l4.872-4.493z"/></symbol><symbol viewBox="0 0 11 21" id="fb" xmlns="http://www.w3.org/2000/svg"><path d="M10.586.002L7.947-.003c-2.964 0-4.88 2.029-4.88 5.169v2.383H.416A.422.422 0 0 0 0 7.977v3.453c0 .236.186.428.415.428h2.653v8.712c0 .236.185.428.414.428h3.462a.421.421 0 0 0 .414-.428v-8.712h3.102c.23 0 .415-.192.415-.428l.001-3.453a.434.434 0 0 0-.121-.302.409.409 0 0 0-.294-.126H7.358v-2.02c0-.971.225-1.464 1.45-1.464h1.777a.422.422 0 0 0 .415-.43V.43a.422.422 0 0 0-.414-.428z"/></symbol><symbol viewBox="0 0 13 16" id="list" xmlns="http://www.w3.org/2000/svg"><path d="M12.97 5.333H7.8V.03c.555.104 1.002.33 1.34.677l3.17 3.25c.338.347.558.805.66 1.375zM13 6.666V15a.976.976 0 0 1-.284.708.93.93 0 0 1-.69.291H.974a.93.93 0 0 1-.69-.291A.976.976 0 0 1 0 15V1C0 .722.095.486.284.29A.93.93 0 0 1 .974 0H6.5v5.666a.98.98 0 0 0 .284.709.93.93 0 0 0 .691.291z"/></symbol><symbol viewBox="0 0 17 13" id="mail" xmlns="http://www.w3.org/2000/svg"><path d="M11.138 6.5L17 .918v11.164zm-.965.919L16.035 13H.965l5.862-5.582L8.5 9.013zM8.5 7.175L.965-.001h15.07zM5.862 6.5L0 12.082V.918z"/></symbol><symbol viewBox="0 0 13 17" id="mark" xmlns="http://www.w3.org/2000/svg"><path d="M13 6.159c0 4.214-5.817 10.4-6.065 10.662a.607.607 0 0 1-.87 0C5.817 16.56 0 10.373 0 6.16 0 2.764 2.916 0 6.5 0S13 2.764 13 6.16zm-3.23 0C9.77 4.45 8.303 3.06 6.5 3.06s-3.27 1.39-3.27 3.1c0 1.708 1.467 3.098 3.27 3.098s3.27-1.39 3.27-3.098z"/></symbol><symbol viewBox="0 0 21 18" id="money" xmlns="http://www.w3.org/2000/svg"><path d="M-.014 7.715v-.582c0-1.482 2.733-2.683 6.105-2.683.59 0 1.162.037 1.702.106v5.737c-.54.07-1.111.106-1.702.106-3.372 0-6.105-1.201-6.105-2.684zm0 2.996v-.582c0-.188.044-.372.128-.55.577 1.22 3.034 2.135 5.977 2.135.59 0 1.161-.038 1.702-.106v1.681c-.54.07-1.111.106-1.702.106-3.372 0-6.105-1.201-6.105-2.684zm7.807 4.605c0 .326.077.64.228.938-.607.09-1.256.137-1.93.137-3.372 0-6.105-1.201-6.105-2.683v-.582c0-.189.044-.373.128-.55.577 1.218 3.034 2.134 5.977 2.134.59 0 1.161-.038 1.702-.106zM21 2.588v.582c0 1.482-2.734 2.684-6.106 2.684S8.79 4.652 8.79 3.17v-.582c0-1.482 2.733-2.683 6.105-2.683C18.266-.095 21 1.106 21 2.588zm-.128 2.447c.084.177.128.36.128.55v.581c0 1.483-2.734 2.684-6.106 2.684S8.79 7.649 8.79 6.166v-.582c0-.188.044-.372.128-.55.577 1.22 3.034 2.135 5.977 2.135 2.944 0 5.4-.916 5.978-2.134zm0 2.996c.084.177.128.361.128.55v.582c0 1.482-2.734 2.683-6.106 2.683S8.79 10.645 8.79 9.163V8.58c0-.188.044-.372.128-.549.577 1.218 3.034 2.134 5.977 2.134 2.944 0 5.4-.916 5.978-2.134zm0 3.158c.084.177.128.36.128.55v.581c0 1.482-2.734 2.684-6.106 2.684S8.79 13.802 8.79 12.32v-.582c0-.188.044-.372.128-.55.577 1.22 3.034 2.135 5.977 2.135 2.944 0 5.4-.916 5.978-2.134zm0 2.996c.084.177.128.361.128.55v.581C21 16.8 18.266 18 14.894 18S8.79 16.799 8.79 15.316v-.582c0-.188.044-.372.128-.55.577 1.22 3.034 2.135 5.977 2.135 2.944 0 5.4-.916 5.978-2.134z"/></symbol><symbol viewBox="0 0 16 7" id="phone-alt-solid" xmlns="http://www.w3.org/2000/svg"><path d="M15.743 6.89c.18-.145.27-.34.27-.586l-.01-2.881a1.204 1.204 0 0 0-.067-.441 1.52 1.52 0 0 0-.202-.408 1.229 1.229 0 0 1-.058-.07 2.022 2.022 0 0 0-.13-.147 6.845 6.845 0 0 0-.706-.598c-.34-.26-.811-.521-1.414-.782-.604-.26-1.352-.489-2.246-.684-.895-.195-1.955-.29-3.182-.282a15.456 15.456 0 0 0-2.58.175C4.664.31 4.003.464 3.439.65a8.952 8.952 0 0 0-1.446.599 7.463 7.463 0 0 0-.978.609 3.696 3.696 0 0 0-.556.495L.26 2.58a1.519 1.519 0 0 0-.203.407 1.204 1.204 0 0 0-.068.441V6.32c0 .203.062.37.186.5a.54.54 0 0 0 .318.168.992.992 0 0 0 .369-.016l3.224-1.046a.72.72 0 0 0 .416-.325.988.988 0 0 0 .156-.533V4.002c0-.029.01-.065.031-.108a.375.375 0 0 1 .063-.098c.173-.124.402-.233.686-.326.25-.087.58-.165.994-.234.412-.069.934-.1 1.564-.093.631-.007 1.157.023 1.576.092.42.068.752.144.998.227.246.084.421.162.525.234l.156.108a.368.368 0 0 1 .052.087c.021.044.031.08.031.11l-.01 1.25a.962.962 0 0 0 .27.63c.118.123.232.2.343.228l.01.01 3.192.86c.236.056.437.027.604-.088z"/></symbol><symbol viewBox="0 0 17 18" id="picker" xmlns="http://www.w3.org/2000/svg"><path d="M16.628 3.44v13.405c0 .69-.548 1.25-1.224 1.25H1.405c-.675 0-1.223-.56-1.223-1.25V3.44c0-.69.548-1.25 1.223-1.25h1.347v-.94C2.752.56 3.299 0 3.975 0h.05C4.7 0 5.247.56 5.247 1.25v.94h6.314v-.94c0-.69.548-1.25 1.224-1.25h.049c.675 0 1.223.56 1.223 1.25v.94h1.346c.676 0 1.224.56 1.224 1.25zm-2.056 2.526H2.238V16.12h12.334zM3.718 10.36V8.185c0-.11.088-.2.196-.2h2.13c.107 0 .195.09.195.2v2.176c0 .11-.088.2-.196.2H3.914a.198.198 0 0 1-.196-.2zm3.427 0V8.185c0-.11.087-.2.195-.2h2.13c.108 0 .195.09.195.2v2.176c0 .11-.087.2-.196.2H7.34a.198.198 0 0 1-.195-.2zm3.426 0V8.185c0-.11.087-.2.196-.2h2.129c.108 0 .195.09.195.2v2.176c0 .11-.087.2-.195.2h-2.13a.198.198 0 0 1-.195-.2zm-6.853 3.5v-2.175c0-.11.088-.2.196-.2h2.13c.107 0 .195.09.195.2v2.176c0 .11-.088.2-.196.2H3.914a.198.198 0 0 1-.196-.2zm3.427 0v-2.175c0-.11.087-.2.195-.2h2.13c.108 0 .195.09.195.2v2.176c0 .11-.087.2-.196.2H7.34a.198.198 0 0 1-.195-.2zm3.426 0v-2.175c0-.11.087-.2.196-.2h2.129c.108 0 .195.09.195.2v2.176c0 .11-.087.2-.195.2h-2.13a.198.198 0 0 1-.195-.2z"/></symbol><symbol viewBox="0 0 17 17" id="print" xmlns="http://www.w3.org/2000/svg"><path d="M3.664 0h9.672v2.43H3.664zM17 13.32h-2.491V9.714H2.419v3.606H0V3.606h17zm-1.246-8.462h-1.172v1.177h1.172zm-12.09 6.034h9.672V17H3.664z"/></symbol><symbol viewBox="0 0 13 13" id="search" xmlns="http://www.w3.org/2000/svg"><path d="M12.684 12.684a1.087 1.087 0 0 1-1.536 0L8.323 9.86c-.015-.015-.026-.033-.04-.048a5.346 5.346 0 1 1 1.528-1.528c.016.013.033.024.048.04l2.825 2.824a1.086 1.086 0 0 1 0 1.536zM8.838 5.346a3.493 3.493 0 1 0-6.985 0 3.493 3.493 0 0 0 6.985 0z"/></symbol><symbol class="psvg-inline--fa pfa-star pfa-w-18" viewBox="0 0 576 512" id="star" xmlns="http://www.w3.org/2000/svg"><path d="M259.3 17.8L194 150.2 47.9 171.5c-26.2 3.8-36.7 36.1-17.7 54.6l105.7 103-25 145.5c-4.5 26.3 23.2 46 46.4 33.7L288 439.6l130.7 68.7c23.2 12.2 50.9-7.4 46.4-33.7l-25-145.5 105.7-103c19-18.5 8.5-50.8-17.7-54.6L382 150.2 316.7 17.8c-11.7-23.6-45.6-23.9-57.4 0z"/></symbol><symbol class="qsvg-inline--fa qfa-star qfa-w-18" viewBox="0 0 576 512" id="star-solid" xmlns="http://www.w3.org/2000/svg"><path d="M259.3 17.8L194 150.2 47.9 171.5c-26.2 3.8-36.7 36.1-17.7 54.6l105.7 103-25 145.5c-4.5 26.3 23.2 46 46.4 33.7L288 439.6l130.7 68.7c23.2 12.2 50.9-7.4 46.4-33.7l-25-145.5 105.7-103c19-18.5 8.5-50.8-17.7-54.6L382 150.2 316.7 17.8c-11.7-23.6-45.6-23.9-57.4 0z"/></symbol><symbol viewBox="0 0 16 7" id="tel" xmlns="http://www.w3.org/2000/svg"><path d="M15.743 6.89c.18-.145.27-.34.27-.586l-.01-2.881a1.204 1.204 0 0 0-.067-.441 1.52 1.52 0 0 0-.202-.408 1.229 1.229 0 0 1-.058-.07 2.022 2.022 0 0 0-.13-.147 6.845 6.845 0 0 0-.706-.598c-.34-.26-.811-.521-1.414-.782-.604-.26-1.352-.489-2.246-.684-.895-.195-1.955-.29-3.182-.282a15.456 15.456 0 0 0-2.58.175C4.664.31 4.003.464 3.439.65a8.952 8.952 0 0 0-1.446.599 7.463 7.463 0 0 0-.978.609 3.696 3.696 0 0 0-.556.495L.26 2.58a1.519 1.519 0 0 0-.203.407 1.204 1.204 0 0 0-.068.441V6.32c0 .203.062.37.186.5a.54.54 0 0 0 .318.168.992.992 0 0 0 .369-.016l3.224-1.046a.72.72 0 0 0 .416-.325.988.988 0 0 0 .156-.533V4.002c0-.029.01-.065.031-.108a.375.375 0 0 1 .063-.098c.173-.124.402-.233.686-.326.25-.087.58-.165.994-.234.412-.069.934-.1 1.564-.093.631-.007 1.157.023 1.576.092.42.068.752.144.998.227.246.084.421.162.525.234l.156.108a.368.368 0 0 1 .052.087c.021.044.031.08.031.11l-.01 1.25a.962.962 0 0 0 .27.63c.118.123.232.2.343.228l.01.01 3.192.86c.236.056.437.027.604-.088z"/></symbol><symbol viewBox="0 0 23 13" id="vk" xmlns="http://www.w3.org/2000/svg"><path d="M19.795 8.266c.763.744 1.568 1.444 2.252 2.263.303.364.589.74.808 1.162.31.6.029 1.261-.51 1.296h-3.35c-.865.07-1.554-.277-2.134-.866-.464-.473-.893-.974-1.34-1.463a3.179 3.179 0 0 0-.602-.535c-.458-.296-.855-.205-1.116.27-.266.485-.327 1.022-.353 1.562-.036.788-.274.995-1.067 1.031-1.694.08-3.301-.176-4.794-1.03-1.317-.751-2.338-1.813-3.226-3.016C2.633 6.6 1.308 4.026.117 1.38-.15.786.045.466.703.455a89.66 89.66 0 0 1 3.28-.003c.445.007.739.26.91.68.592 1.452 1.316 2.835 2.224 4.116.242.34.488.681.84.922.388.265.684.177.867-.255.116-.274.166-.57.193-.863.086-1.01.098-2.019-.054-3.025C8.869 1.398 8.515.992 7.888.873c-.32-.06-.273-.18-.118-.362C8.04.196 8.293 0 8.798 0h3.786c.597.118.729.385.81.985l.004 4.2c-.007.232.116.92.534 1.074.335.11.555-.158.756-.37.907-.962 1.554-2.097 2.132-3.273a21.26 21.26 0 0 0 .691-1.591c.158-.398.407-.594.856-.585l3.644.003c.108 0 .218.001.322.019.615.104.783.368.593.967-.299.94-.88 1.723-1.449 2.51-.607.84-1.257 1.651-1.86 2.497-.554.77-.51 1.16.178 1.83z"/></symbol><symbol class="tsvg-inline--fa tfa-youtube tfa-w-18" viewBox="0 0 576 512" id="youtube" xmlns="http://www.w3.org/2000/svg"><path d="M549.655 124.083c-6.281-23.65-24.787-42.276-48.284-48.597C458.781 64 288 64 288 64S117.22 64 74.629 75.486c-23.497 6.322-42.003 24.947-48.284 48.597-11.412 42.867-11.412 132.305-11.412 132.305s0 89.438 11.412 132.305c6.281 23.65 24.787 41.5 48.284 47.821C117.22 448 288 448 288 448s170.78 0 213.371-11.486c23.497-6.321 42.003-24.171 48.284-47.821 11.412-42.867 11.412-132.305 11.412-132.305s0-89.438-11.412-132.305zm-317.51 213.508V175.185l142.739 81.205-142.739 81.201z"/></symbol></svg>