<?xml version="1.0" encoding="utf-8"?>
<!-- Generator: Adobe Illustrator 23.0.2, SVG Export Plug-In . SVG Version: 6.00 Build 0)  -->
<svg version="1.1" id="Слой_1" xmlns="http://www.w3.org/2000/svg" xmlns:xlink="http://www.w3.org/1999/xlink" x="0px" y="0px"
	 viewBox="0 0 512 512" style="enable-background:new 0 0 512 512;" xml:space="preserve">
<style type="text/css">
	.st0{fill:#FFFFFF;}
	.st1{fill:#FADB1E;}
</style>
<path class="st0" d="M290,512h-68c-11,0-20-9-20-20v-29.9c-18.8-4.9-36.8-12.4-53.6-22.2l-21.1,21.1c-7.8,7.8-20.5,7.8-28.3,0
	L50.9,413c-7.8-7.8-7.8-20.5,0-28.3l21.1-21.1c-9.8-16.8-17.3-34.7-22.2-53.6H20c-11,0-20-9-20-20v-68c0-11,9-20,20-20h29.8
	c4.9-18.8,12.3-36.8,22.2-53.7l-21-21c-7.8-7.8-7.8-20.5,0-28.3L99,50.9c7.8-7.8,20.5-7.8,28.3,0l21,21
	c16.8-9.9,34.8-17.4,53.7-22.3V20c0-11,9-20,20-20h68c11,0,20,9,20,20v29.5c18.9,4.9,37,12.4,53.8,22.3l20.9-20.9
	c7.8-7.8,20.5-7.8,28.3,0L461.1,99c7.8,7.8,7.8,20.5,0,28.3l-20.9,20.9c9.9,16.9,17.4,34.9,22.3,53.8H492c11,0,20,9,20,20v68
	c0,11-9,20-20,20h-29.6c-4.9,18.9-12.4,36.9-22.3,53.7l21,21c7.8,7.8,7.8,20.5,0,28.3L413,461.1c-7.8,7.8-20.5,7.8-28.3,0l-21-21
	c-16.8,9.8-34.8,17.3-53.7,22.2V492C310,503,301,512,290,512z M146.9,417.3c1.9,0,3.7,0.5,5.4,1.6c19,12.1,39.8,20.8,61.8,25.6
	c4.6,1,7.8,5.1,7.8,9.8V492h68v-37.7c0-4.7,3.3-8.8,7.9-9.8c22-4.9,42.9-13.5,61.9-25.6c4-2.5,9.1-2,12.4,1.4l26.6,26.6l48.1-48.1
	l-26.5-26.5c-3.3-3.3-3.9-8.5-1.4-12.5c12.2-19.1,20.9-39.9,25.7-62c1-4.6,5.1-7.8,9.8-7.8H492v-68h-37.4c-4.7,0-8.8-3.3-9.8-7.9
	c-4.9-22.1-13.5-43-25.7-62.1c-2.5-4-2-9.1,1.4-12.5l26.4-26.4l-48.1-48.1l-26.4,26.4c-3.3,3.3-8.5,3.9-12.5,1.4
	c-19.1-12.2-40-20.8-62.1-25.7c-4.6-1-7.9-5.1-7.9-9.8V20h-68v37.5c0,4.7-3.3,8.8-7.8,9.8c-22.1,4.9-42.9,13.5-62,25.7
	c-4,2.5-9.1,2-12.5-1.4l-26.5-26.5l-48.1,48.1l26.6,26.6c3.3,3.3,3.9,8.5,1.4,12.4c-12.1,19.1-20.8,39.9-25.6,61.9
	c-1,4.6-5.1,7.9-9.8,7.9H20v68h37.7c4.7,0,8.8,3.3,9.8,7.8c4.9,22,13.5,42.8,25.6,61.8c2.5,4,2,9.1-1.4,12.5l-26.7,26.7l48.1,48.1
	l26.7-26.7C141.8,418.3,144.4,417.3,146.9,417.3z"/>
<path class="st0" d="M256,401.9c-37.4,0-74.8-14.2-103.2-42.7c-56.9-56.9-56.9-149.6,0-206.5c23-23,52.1-37.3,84.2-41.5
	c31.1-4.1,63.2,2.1,90.4,17.4c4.8,2.7,6.5,8.8,3.8,13.6c-2.7,4.8-8.8,6.5-13.6,3.8c-49-27.5-110.9-18.9-150.7,20.9
	c-49.1,49.1-49.1,129.1,0,178.2c24.6,24.6,56.8,36.8,89.1,36.8c32.3,0,64.5-12.3,89.1-36.8c38.4-38.4,47.9-96.8,23.7-145.4
	c-2.5-4.9-0.5-10.9,4.5-13.4c4.9-2.5,10.9-0.5,13.4,4.5c28.1,56.3,17.1,124-27.4,168.5C330.8,387.7,293.4,401.9,256,401.9z"/>
<path class="st1" d="M354.4,172c-2.6,0-5.2-1.1-7.1-2.9c-1.9-1.9-2.9-4.4-2.9-7.1c0-2.6,1.1-5.2,2.9-7.1c1.9-1.9,4.4-2.9,7.1-2.9
	c2.6,0,5.2,1.1,7.1,2.9c1.9,1.9,2.9,4.4,2.9,7.1c0,2.6-1.1,5.2-2.9,7.1C359.6,170.9,357,172,354.4,172z"/>
<path class="st1" d="M241.9,329.7c-2.7,0-5.2-1.1-7.1-2.9l-63.2-63.2c-3.9-3.9-3.9-10.2,0-14.1l35.9-35.9c1.9-1.9,4.4-2.9,7.1-2.9
	s5.2,1.1,7.1,2.9l20.3,20.3l48.5-48.5c3.9-3.9,10.2-3.9,14.1,0l35.9,35.9c3.9,3.9,3.9,10.2,0,14.1L249,326.7
	C247.1,328.6,244.5,329.7,241.9,329.7z M192.8,256.4l49.1,49.1l77.3-77.3l-21.7-21.7L249,255c-1.9,1.9-4.4,2.9-7.1,2.9
	s-5.2-1.1-7.1-2.9l-20.3-20.3L192.8,256.4z"/>
</svg>
