<?xml version="1.0" encoding="utf-8"?>
<!-- Generator: Adobe Illustrator 23.0.2, SVG Export Plug-In . SVG Version: 6.00 Build 0)  -->
<svg version="1.1" id="Режим_изоляции"
	 xmlns="http://www.w3.org/2000/svg" xmlns:xlink="http://www.w3.org/1999/xlink" x="0px" y="0px" viewBox="0 0 512 512"
	 style="enable-background:new 0 0 512 512;" xml:space="preserve">
<style type="text/css">
	.st0{fill:#FADB1E;}
	.st1{fill:#FFFFFF;}
</style>
<g id="XMLID_43_">
	<path id="XMLID_44_" class="st0" d="M201.7,213.6c-1.9,1.9-2.9,4.4-2.9,7.1s1.1,5.2,2.9,7.1c1.9,1.9,4.4,2.9,7.1,2.9
		s5.2-1.1,7.1-2.9c1.9-1.9,2.9-4.4,2.9-7.1c0-2.6-1.1-5.2-2.9-7.1s-4.4-2.9-7.1-2.9C206.1,210.7,203.5,211.8,201.7,213.6z"/>
	<path id="XMLID_69_" class="st1" d="M502,210.7H248.8c-5.5,0-10,4.5-10,10s4.5,10,10,10H492v197.2v9.1v19.4H199.7
		c-2.1-3.9-4.8-7.4-8-10.4c1.7-1.6,3.3-3.3,4.7-5.2h238.5c5.5,0,10-4.5,10-10c0-11.8,9.6-21.4,21.4-21.4c5.5,0,10-4.5,10-10V287.7
		c0-5.5-4.5-10-10-10c-11.8,0-21.4-9.6-21.4-21.4c0-5.5-4.5-10-10-10H131c-5.5,0-10,4.5-10,10c0,11.8-9.6,21.4-21.4,21.4
		c-5.5,0-10,4.5-10,10V324H74v-55.2l38.1-38.1h56.6c5.5,0,10-4.5,10-10s-4.5-10-10-10h-36.6l75.7-75.7l35.4,35.4
		c1.9,1.9,4.4,2.9,7.1,2.9s5.2-1.1,7.1-2.9l81.5-81.5l14.4,14.4c2.6,2.6,6.4,3.6,10,2.5c3.5-1.1,6.2-4,6.9-7.6L387.5,12
		c0.7-3.3-0.4-6.7-2.7-9s-5.8-3.4-9-2.7l-86.2,17.3c-3.6,0.7-6.5,3.4-7.6,6.9s-0.1,7.4,2.5,10l11.7,11.7l-45.8,45.8l-35.4-35.4
		c-1.9-1.9-4.4-2.9-7.1-2.9s-5.2,1.1-7.1,2.9l-60.1,60.1c-3.9,3.9-3.9,10.2,0,14.1c3.9,3.9,10.2,3.9,14.1,0l53-53l35.4,35.4
		c1.9,1.9,4.4,2.9,7.1,2.9s5.2-1.1,7.1-2.9l59.9-59.9c3.9-3.9,3.9-10.2,0-14.1l-5.5-5.5l53.1-10.7l-10.7,53.1l-8.2-8.2
		c-1.9-1.9-4.4-2.9-7.1-2.9s-5.2,1.1-7.1,2.9l-81.5,81.5l-35.4-35.4c-1.9-1.9-4.4-2.9-7.1-2.9s-5.2,1.1-7.1,2.9L39,275.5l-14.5-14.5
		l73.7-73.7c3.9-3.9,3.9-10.2,0-14.1s-10.2-3.9-14.1,0L3.3,253.9c-1.9,1.9-2.9,4.4-2.9,7.1s1.1,5.2,2.9,7.1L32,296.7
		c2,2,4.5,2.9,7.1,2.9s5.1-1,7.1-2.9l7.9-7.9V324H38c-21,0-38,17-38,38c0,11.1,4.8,21,12.3,28C4.8,397,0,406.9,0,418s4.8,21,12.3,28
		C4.8,453,0,462.9,0,474c0,21,17,38,38,38h26h102h336c5.5,0,10-4.5,10-10v-35.6V437v-9.1V220.7C512,215.2,507.5,210.7,502,210.7z
		 M109.6,296.5c14.8-3.7,26.5-15.4,30.2-30.2h286.3c3.7,14.8,15.4,26.5,30.2,30.2v94.1c-14.8,3.7-26.5,15.4-30.2,30.2H203.9
		c0.1-0.9,0.1-1.8,0.1-2.8c0-11.1-4.8-21-12.3-28c7.6-7,12.3-16.9,12.3-28c0-21-17-38-38-38h-56.4L109.6,296.5L109.6,296.5z M20,362
		c0-9.9,8.1-18,18-18h128c9.9,0,18,8.1,18,18s-8.1,18-18,18H38C28.1,380,20,371.9,20,362z M20,418c0-9.9,8.1-18,18-18h128
		c9.9,0,18,8.1,18,18s-8.1,18-18,18H38C28.1,436,20,427.9,20,418z M64,492H38c-9.9,0-18-8.1-18-18s8.1-18,18-18h128
		c9.9,0,18,8.1,18,18s-8.1,18-18,18H64z M492,492H199.5c2.5-4.7,4.1-10,4.5-15.6H492V492z"/>
	<path id="XMLID_74_" class="st0" d="M381.7,353.5H396c5.5,0,10-4.5,10-10s-4.5-10-10-10h-14.2c-5.5,0-10,4.5-10,10
		S376.2,353.5,381.7,353.5z"/>
	<path id="XMLID_77_" class="st0" d="M282.6,396.8c29.4,0,53.3-23.9,53.3-53.3s-23.9-53.3-53.3-53.3s-53.3,23.9-53.3,53.3
		S253.3,396.8,282.6,396.8z M282.6,310.3c18.3,0,33.3,14.9,33.3,33.3s-14.9,33.3-33.3,33.3c-18.3,0-33.3-14.9-33.3-33.3
		S264.3,310.3,282.6,310.3z"/>
	<path id="XMLID_78_" class="st0" d="M119.6,162c2.6,0,5.2-1.1,7.1-2.9c1.9-1.9,2.9-4.4,2.9-7.1s-1.1-5.2-2.9-7.1s-4.4-2.9-7.1-2.9
		s-5.2,1.1-7.1,2.9c-1.9,1.9-2.9,4.4-2.9,7.1s1.1,5.2,2.9,7.1C114.3,160.9,116.9,162,119.6,162z"/>
</g>
</svg>
