<?xml version="1.0" encoding="utf-8"?>
<!-- Generator: Adobe Illustrator 23.0.2, SVG Export Plug-In . SVG Version: 6.00 Build 0)  -->
<svg version="1.1" id="Слой_1" xmlns="http://www.w3.org/2000/svg" xmlns:xlink="http://www.w3.org/1999/xlink" x="0px" y="0px"
	 viewBox="0 0 512 512" style="enable-background:new 0 0 512 512;" xml:space="preserve">
<style type="text/css">
	.st0{fill:#FFFFFF;}
	.st1{fill:#FADB1E;}
</style>
<path class="st0" d="M412,418c-2.7,0-5.2-1.1-7.1-2.9l-32.6-32.6l-16.4,16.4c-2.6,2.6-6.5,3.6-10.1,2.5c-3.6-1.1-6.2-4.1-6.8-7.8
	l-17.4-100.8c-0.6-3.2,0.5-6.5,2.8-8.8s5.6-3.3,8.8-2.8l100.8,17.4c3.7,0.6,6.7,3.3,7.8,6.8c1.1,3.6,0.2,7.5-2.5,10.1l-16.4,16.4
	l32.6,32.6c3.9,3.9,3.9,10.2,0,14.1L419,415C417.2,416.9,414.6,418,412,418z M372.3,358.3c2.7,0,5.2,1.1,7.1,2.9l32.6,32.6
	l22.2-22.2L401.6,339c-3.9-3.9-3.9-10.2,0-14.1l9.9-9.9l-67.8-11.7l11.7,67.8l9.9-9.9C367.1,359.4,369.7,358.3,372.3,358.3z"/>
<path class="st1" d="M502,282.7c-4.2,0-8-2.7-9.4-6.6c-1.4-3.9-0.2-8.5,3.1-11.1c3.2-2.6,7.7-3,11.2-1c3.8,2.1,5.8,6.5,4.9,10.7
	C510.9,279.2,506.7,282.7,502,282.7z"/>
<path class="st1" d="M285.9,343.2l14.7-112.5c0.4-2.9-0.5-5.7-2.4-7.9c-1.9-2.2-4.6-3.4-7.5-3.4H111.5l-6.4-38.1
	c-0.8-4.8-5-8.3-9.9-8.3H49.9c-5.5,0-10,4.5-10,10s4.5,10,10,10h36.9l32.6,194.3c0.8,4.8,5,8.3,9.9,8.3H146V408c0,5.5,4.5,10,10,10
	c5.5,0,10-4.5,10-10v-12.3h61.5V408c0,5.5,4.5,10,10,10c5.5,0,10-4.5,10-10v-12.3H276c5.5,0,10-4.5,10-10s-4.5-10-10-10H137.7
	l-4-23.7H276C281,351.9,285.3,348.2,285.9,343.2z M130.4,331.9l-15.5-92.5h164.5l-12.1,92.5H130.4z"/>
<path class="st0" d="M466.3,24H45.7C20.5,24,0,44.5,0,69.7v372.5c0,25.2,20.5,45.7,45.7,45.7h420.5c25.2,0,45.7-20.5,45.7-45.7
	V318.1c0-5.5-4.5-10-10-10s-10,4.5-10,10v124.1c0,14.2-11.5,25.7-25.7,25.7H45.7c-14.2,0-25.7-11.5-25.7-25.7V129.6h472v98
	c0,5.5,4.5,10,10,10s10-4.5,10-10V69.7C512,44.5,491.5,24,466.3,24z M20,109.6V69.7C20,55.5,31.5,44,45.7,44h420.5
	c14.2,0,25.7,11.5,25.7,25.7v39.9H20z"/>
<path class="st1" d="M255.5,86.9h-72.6c-5.5,0-10-4.5-10-10c0-5.5,4.5-10,10-10h72.6c5.5,0,10,4.5,10,10
	C265.5,82.4,261,86.9,255.5,86.9z"/>
<path class="st1" d="M97.8,86.9c-4.1,0-7.9-2.6-9.3-6.5c-1.5-3.9-0.3-8.5,3-11.2c3.1-2.6,7.6-3,11.1-1.1c3.7,2,5.8,6.3,5.2,10.4
	C106.9,83.3,102.6,86.9,97.8,86.9z"/>
<path class="st1" d="M134.7,86.9c-4.2,0-8-2.7-9.4-6.6c-1.4-3.9-0.2-8.3,2.9-11c3.3-2.8,8.1-3.1,11.7-0.9c3.5,2.2,5.3,6.4,4.5,10.4
	C143.6,83.5,139.4,86.9,134.7,86.9z"/>
<path class="st1" d="M60.9,86.9c-4.2,0-8.1-2.8-9.5-6.8c-1.4-4,0-8.6,3.4-11.2c3.2-2.5,7.7-2.7,11.2-0.6c3.6,2.1,5.5,6.4,4.7,10.5
	C69.8,83.5,65.6,86.9,60.9,86.9z"/>
</svg>
