<?xml version="1.0" encoding="utf-8"?>
<!-- Generator: Adobe Illustrator 23.0.2, SVG Export Plug-In . SVG Version: 6.00 Build 0)  -->
<svg version="1.1" id="Слой_1" xmlns="http://www.w3.org/2000/svg" xmlns:xlink="http://www.w3.org/1999/xlink" x="0px" y="0px"
	 viewBox="0 0 512 512" style="enable-background:new 0 0 512 512;" xml:space="preserve">
<style type="text/css">
	.st0{fill:#FADB1E;}
	.st1{fill:#FFFFFF;}
</style>
<path class="st0" d="M445,221.6c-2.6,0-5.2,1.1-7.1,2.9s-2.9,4.4-2.9,7.1s1.1,5.2,2.9,7.1s4.4,2.9,7.1,2.9s5.2-1.1,7.1-2.9
	s2.9-4.4,2.9-7.1s-1.1-5.2-2.9-7.1S447.6,221.6,445,221.6z"/>
<path class="st0" d="M266.8,104v86.2c0,5.5,4.5,10,10,10H363c5.5,0,10-4.5,10-10c0-53-43.2-96.2-96.2-96.2
	C271.3,94,266.8,98.5,266.8,104z M286.8,114.7c34,4.5,61.1,31.5,65.5,65.5h-65.5V114.7z"/>
<path class="st1" d="M509.1,336.8L428,255.7c-5.6-5.6-12.9-8.6-20.8-8.6s-15.2,3.1-20.8,8.6c-2.9,2.9-5.1,6.3-6.6,10
	c-10.6-4.2-23.2-2.1-31.7,6.5c-5.1,5.1-8.1,11.8-8.5,18.9c-6.9,0.4-13.6,3.3-18.9,8.5c-2.3,2.3-4.2,4.9-5.5,7.7L303,295.2
	c19.1-18.1,30-43.2,30-69.8c0-5.5-4.5-10-10-10h-76.2v-76.2c0-5.5-4.5-10-10-10c-53,0-96.2,43.2-96.2,96.2c0,53,43.2,96.2,96.2,96.2
	c3,0,6.1-0.1,9.1-0.4l24.7,24.7H159.7c-5.5,0-10,4.5-10,10v48c0,5.5,4.5,10,10,10h106.5c-0.2,9.3,4,18.3,11.4,24.1H77v-10.3
	l46.7-54.2c7.1-8.2,9-19.5,5-29.6c-3.4-8.6-10.5-14.9-19.4-17.2c-8.9-2.4-18.2-0.4-25.4,5.4l-6.8,5.5V74h20v62c0,5.5,4.5,10,10,10
	s10-4.5,10-10V74h318v119.5c0,5.5,4.5,10,10,10c5.5,0,10-4.5,10-10V42c0-23.2-18.8-42-42-42H99C75.8,0,57,18.8,57,42v200.9
	c-0.3,0.3-0.6,0.6-0.9,1l-38.7,49.4C6.2,307.6,0,325.6,0,343.8V502c0,5.5,4.5,10,10,10s10-4.5,10-10V343.8
	c0-13.8,4.7-27.4,13.2-38.2L57,275.2v83.2c0,5.5,4.5,10,10,10c2.4,0,4.5-0.8,6.2-2.2c0,0,0,0,0,0l23.1-18.4c2.2-1.8,5.1-2.4,7.8-1.6
	c2.8,0.7,4.9,2.7,6,5.3c1.2,3.1,0.6,6.6-1.5,9.1l-49.2,57c0,0,0,0,0,0c-1.5,1.8-2.4,4-2.4,6.5v46c0,23.2,18.8,42,42,42h314
	c6.2,0,12.1-1.3,17.7-3.9c4.4,1.2,8.8,2.4,13.3,3.6c0.8,0.2,1.7,0.3,2.5,0.3c4.5,0,8.5-3,9.7-7.5c1.4-5.4-1.9-10.8-7.2-12.2
	c-43.7-11.1-85.7-28.1-124.8-50.4l-32.9-18.8c-3.8-2.2-5.8-6.7-4.7-11c1.3-5.3,6.7-8.5,12-7.3l43.7,10.6c4.4,1.1,8.9-0.9,11.1-4.8
	s1.5-8.8-1.6-12L251.5,298.6c-1.8-1.8-2.8-4.1-2.8-6.6s1-4.9,2.8-6.6c3.7-3.7,9.6-3.7,13.3,0l55.9,55.9c0,0,0,0,0,0l33.2,33.2
	c3.9,3.9,10.2,3.9,14.1,0c3.9-3.9,3.9-10.2,0-14.1l-33.2-33.2c-3.6-3.7-3.6-9.6,0-13.3c3.7-3.7,9.6-3.7,13.3,0l33.2,33.2
	c3.9,3.9,10.2,3.9,14.1,0c3.9-3.9,3.9-10.2,0-14.1l-28.3-28.3c0,0,0,0,0,0l-4.9-4.9c-1.8-1.8-2.8-4.1-2.8-6.6s1-4.9,2.8-6.6
	c3.7-3.7,9.6-3.7,13.3,0l19.7,19.7c0,0,0,0,0,0l13.5,13.5c3.9,3.9,10.2,3.9,14.1,0c3.9-3.9,3.9-10.2,0-14.1l-22.3-22.3
	c-1.8-1.8-2.7-4.1-2.7-6.6s1-4.9,2.8-6.6c1.8-1.8,4.1-2.8,6.6-2.8c2.5,0,4.9,1,6.6,2.8l81.1,81.1c2,2,4.5,2.9,7.1,2.9s5.1-1,7.1-2.9
	C513,347,513,340.7,509.1,336.8z M99,20h314c12.1,0,22,9.9,22,22v12H77V42C77,29.9,86.9,20,99,20z M226.8,201.3L190.5,165
	c10.3-7.9,22.8-13.3,36.3-15.1V201.3z M382.7,492H99c-12.1,0-22-9.9-22-22v-12h233.1c0.5,0,1-0.1,1.5-0.1l2.4,1.4
	C336.2,471.8,359.1,482.8,382.7,492z M303.2,385.4c-10.8-2.6-21.6,1-28.8,8.5H169.7v-28h120.9l21.7,21.7L303.2,385.4z M237.4,271.2
	c-8.1,8.1-10.5,19.9-7.1,30.2c-39-3.3-69.7-36.1-69.7-75.9c0-17.4,5.9-33.5,15.7-46.3l53.3,53.3c0,0,0,0,0.1,0c1.8,1.8,4.3,3,7.1,3
	h75.5c-2.3,17.5-10.5,33.5-23.5,45.6l-9.9-9.9C267.5,259.7,248.9,259.7,237.4,271.2z"/>
<path class="st0" d="M107,162.2c-2.6,0-5.2,1.1-7.1,2.9c-1.9,1.9-2.9,4.4-2.9,7.1c0,2.6,1.1,5.2,2.9,7.1c1.9,1.9,4.4,2.9,7.1,2.9
	c2.6,0,5.2-1.1,7.1-2.9c1.9-1.9,2.9-4.4,2.9-7.1c0-2.6-1.1-5.2-2.9-7.1C112.2,163.3,109.6,162.2,107,162.2z"/>
</svg>
