<?xml version="1.0" encoding="utf-8"?>
<!-- Generator: Adobe Illustrator 23.0.2, SVG Export Plug-In . SVG Version: 6.00 Build 0)  -->
<svg version="1.1" id="Слой_1" xmlns="http://www.w3.org/2000/svg" xmlns:xlink="http://www.w3.org/1999/xlink" x="0px" y="0px"
	 viewBox="0 0 512 512" style="enable-background:new 0 0 512 512;" xml:space="preserve">
<style type="text/css">
	.st0{fill:#FADB1E;}
	.st1{fill:#FFFFFF;}
</style>
<path class="st0" d="M317.3,152c2.6,0,5.2-1.1,7.1-2.9c1.9-1.9,2.9-4.4,2.9-7.1s-1.1-5.2-2.9-7.1c-1.9-1.9-4.4-2.9-7.1-2.9
	c-2.6,0-5.2,1.1-7.1,2.9c-1.9,1.9-2.9,4.4-2.9,7.1s1.1,5.2,2.9,7.1C312.1,150.9,314.7,152,317.3,152z"/>
<path class="st1" d="M398,76c4.8,0,8.9-3.4,9.8-8H502c5.5,0,10-4.5,10-10V10c0-5.5-4.5-10-10-10H398c0,0-388,0-388,0
	C4.5,0,0,4.5,0,10v48c0,5.5,4.5,10,10,10h306.2c0.9,4.6,5,8,9.8,8h26v97.9l-33.1,33.1c-1.9,1.9-2.9,4.4-2.9,7.1v26.9
	c0,2.7,1.1,5.2,2.9,7.1l6.4,6.4c2,2,4.5,2.9,7.1,2.9s5.1-1,7.1-2.9c3.9-3.9,3.9-10.2,0-14.1l-3.5-3.5v-18.6l26-26l26,26v18.6
	l-3.1,3.1c-3.9,3.9-3.9,10.2,0,14.1s10.2,3.9,14.1,0l6-6c1.9-1.9,2.9-4.4,2.9-7.1V214c0-2.7-1.1-5.2-2.9-7.1L372,173.9V152h76
	c16.5,0,30,13.5,30,30v254h-20v-75c0-5.5-4.5-10-10-10s-10,4.5-10,10v75h-56.8v-44.1c0-5.5-4.5-10-10-10h-19.8
	c-2.9-10.4-7.1-20.4-12.4-29.8l14-14c3.9-3.9,3.9-10.2,0-14.1l-38.3-38.3c-3.9-3.9-10.2-3.9-14.1,0l-14,14
	c-9.4-5.3-19.4-9.4-29.8-12.4v-19.8c0-5.5-4.5-10-10-10h-54.2c-5.5,0-10,4.5-10,10v19.7c-10.4,2.9-20.4,7.1-29.9,12.4l-13.9-13.9
	c-3.9-3.9-10.2-3.9-14.1,0L86.3,324c-1.9,1.9-2.9,4.4-2.9,7.1s1.1,5.2,2.9,7.1l13.9,13.9c-5.3,9.5-9.5,19.5-12.4,29.9H68.2
	c-5.5,0-10,4.5-10,10V436H34V182c0-16.5,13.5-30,30-30h215.7c5.5,0,10-4.5,10-10s-4.5-10-10-10H64c-27.6,0-50,22.4-50,50v254h-4
	c-5.5,0-10,4.5-10,10v17c0,27,22,49,49,49h414c27,0,49-22,49-49v-17c0-5.5-4.5-10-10-10h-4V182c0-27.6-22.4-50-50-50h-76V76H398z
	 M78.2,401.9h17.4c4.7,0,8.8-3.3,9.8-7.9c3-13.6,8.3-26.5,15.9-38.2c2.6-4,2-9.2-1.3-12.5L107.5,331l24.2-24.2l12.4,12.4
	c3.3,3.3,8.5,3.9,12.5,1.3c11.7-7.5,24.6-12.8,38.1-15.8c4.6-1,7.9-5.1,7.9-9.8v-17.5h34.2v17.6c0,4.7,3.3,8.8,7.9,9.8
	c13.6,3,26.4,8.3,38.1,15.8c4,2.5,9.1,2,12.5-1.3l12.4-12.4l24.2,24.2l-12.4,12.4c-3.3,3.3-3.9,8.5-1.3,12.5
	c7.5,11.7,12.8,24.5,15.8,38.1c1,4.6,5.1,7.9,9.8,7.9h17.6V436H308c1.1-5.6,1.6-11.3,1.6-17c0-49.6-40.4-90-90-90
	c-49.6,0-90,40.4-90,90c0,5.7,0.6,11.4,1.6,17H78.2V401.9z M202.7,419c0-9.4,7.6-17,17-17c9.4,0,17,7.6,17,17s-7.6,17-17,17
	C210.3,436,202.7,428.4,202.7,419z M219.7,382c-20.4,0-37,16.6-37,37c0,6.1,1.5,11.9,4.2,17h-35.1c-1.4-5.5-2.1-11.2-2.1-17
	c0-38.6,31.4-70,70-70s70,31.4,70,70c0,5.8-0.7,11.5-2.1,17h-35.1c2.6-5.1,4.2-10.9,4.2-17C256.7,398.6,240.1,382,219.7,382z
	 M492,463c0,16-13,29-29,29H49c-16,0-29-13-29-29v-7h472V463z M492,48h-84V20h84V48z M20,20h296v28H20V20z M336,20h52v36h-52V20z"/>
<path class="st0" d="M369.1,45.1c1.9-1.9,2.9-4.4,2.9-7.1s-1.1-5.2-2.9-7.1S364.6,28,362,28s-5.2,1.1-7.1,2.9S352,35.4,352,38
	s1.1,5.2,2.9,7.1s4.4,2.9,7.1,2.9S367.2,46.9,369.1,45.1z"/>
<path class="st0" d="M448,335.3c2.6,0,5.2-1.1,7.1-2.9s2.9-4.4,2.9-7.1s-1.1-5.2-2.9-7.1s-4.4-2.9-7.1-2.9s-5.2,1.1-7.1,2.9
	s-2.9,4.4-2.9,7.1s1.1,5.2,2.9,7.1S445.4,335.3,448,335.3z"/>
</svg>
