<svg id="Слой_1" data-name="Слой 1" xmlns="http://www.w3.org/2000/svg" viewBox="0 0 512 512"><defs><style>.cls-1{fill:#fadb1e;}.cls-2{fill:#fff;}</style></defs><title>tab-1-3</title><path class="cls-1" d="M317.33,152a10,10,0,1,0-7.07-2.93A10.06,10.06,0,0,0,317.33,152Z"/><path class="cls-2" d="M398,76a10,10,0,0,0,9.8-8H502a10,10,0,0,0,10-10V10A10,10,0,0,0,502,0H10A10,10,0,0,0,0,10V58A10,10,0,0,0,10,68H316.2a10,10,0,0,0,9.8,8h26v97.86l-33.07,33.07A10,10,0,0,0,316,214v26.86a10,10,0,0,0,2.93,7.07l6.39,6.39a10,10,0,0,0,14.15-14.14L336,236.71V218.14l26-26,26,26v18.57l-3.07,3.08a10,10,0,1,0,14.14,14.14l6-6a10,10,0,0,0,2.93-7.07V214a10,10,0,0,0-2.93-7.07L372,173.86V152h76a30,30,0,0,1,30,30V436H458V361a10,10,0,0,0-20,0v75H381.17V391.9a10,10,0,0,0-10-10H351.41a135.43,135.43,0,0,0-12.36-29.82l14-14A10,10,0,0,0,353,324L314.7,285.64a10,10,0,0,0-14.14,0l-14,14a135.46,135.46,0,0,0-29.82-12.37V267.5a10,10,0,0,0-10-10h-54.2a10,10,0,0,0-10,10v19.71a135.38,135.38,0,0,0-29.88,12.35l-13.92-13.92a10,10,0,0,0-14.14,0L86.31,324a10,10,0,0,0,0,14.15L100.18,352A136.4,136.4,0,0,0,87.76,381.9H68.17a10,10,0,0,0-10,10V436H34V182a30,30,0,0,1,30-30H279.67a10,10,0,0,0,0-20H64a50.06,50.06,0,0,0-50,50V436H10A10,10,0,0,0,0,446v17a49.05,49.05,0,0,0,49,49H463a49.05,49.05,0,0,0,49-49V446a10,10,0,0,0-10-10h-4V182a50.06,50.06,0,0,0-50-50H372V76ZM78.17,401.9h17.4a10,10,0,0,0,9.77-7.87,115.85,115.85,0,0,1,15.85-38.17,10,10,0,0,0-1.33-12.49L107.52,331l24.18-24.18,12.37,12.36a10,10,0,0,0,12.47,1.35,115.88,115.88,0,0,1,38.15-15.77,10,10,0,0,0,7.88-9.78V277.5h34.2v17.56a10,10,0,0,0,7.86,9.77,115.9,115.9,0,0,1,38.1,15.8,10,10,0,0,0,12.47-1.34l12.43-12.43L331.81,331l-12.43,12.42A10,10,0,0,0,318,356,115.76,115.76,0,0,1,333.84,394a10,10,0,0,0,9.77,7.86h17.56V436H308a90,90,0,1,0-176.74,0H78.17ZM202.67,419a17,17,0,1,1,17,17A17,17,0,0,1,202.67,419Zm17-37a37,37,0,0,0-32.85,54H151.75a70,70,0,1,1,135.83,0H252.52a37,37,0,0,0-32.85-54ZM492,463a29,29,0,0,1-29,29H49a29,29,0,0,1-29-29v-7H492Zm0-415H408V20h84ZM20,20H316V48H20Zm316,0h52V56H336Z"/><path class="cls-1" d="M369.07,45.07A10,10,0,1,0,362,48,10.08,10.08,0,0,0,369.07,45.07Z"/><path class="cls-1" d="M448,335.25a10,10,0,1,0-7.07-2.93A10.08,10.08,0,0,0,448,335.25Z"/></svg>