<?xml version="1.0" encoding="utf-8"?>
<!-- Generator: Adobe Illustrator 23.0.2, SVG Export Plug-In . SVG Version: 6.00 Build 0)  -->
<svg version="1.1" id="Слой_1" xmlns="http://www.w3.org/2000/svg" xmlns:xlink="http://www.w3.org/1999/xlink" x="0px" y="0px"
	 viewBox="0 0 531 504.2" style="enable-background:new 0 0 531 504.2;" xml:space="preserve">
<style type="text/css">
	.st0{fill:#FFFFFF;}
	.st1{fill:#FADB1E;}
</style>
<path class="st0" d="M528.8,213.9L440,102.8c-3.3-4.1-9.3-5.1-13.8-2.3l-57.4,35.1h-74.8c-1,0-1.9,0.2-2.9,0.5l-58,16.1l-60.2-15.8
	l-58.5-35.8c-4.5-2.7-10.4-1.8-13.7,2.2L2.3,219.8c-3.5,4.2-2.9,10.4,1.3,13.9l51.5,42.7l46.2,59.9c-13.5,13.9-13.3,35.7,0.8,49.3
	c6.2,6,14.2,9.4,22.3,10.2c-0.3,1.8-0.4,3.6-0.4,5.4c0,9.5,3.8,18.4,10.8,25c7,6.7,16.2,10.4,26,10.4c0.1,0,0.3,0,0.4,0
	c0,0.2,0,0.5,0,0.7c0,9.5,3.8,18.4,10.8,25c7,6.7,16.2,10.4,26,10.4c1.9,0,3.9-0.2,5.7-0.4c0.8,7.9,4.3,15.5,10.6,21.6
	c7.2,6.9,16.6,10.4,26,10.4c9.4,0,18.8-3.5,26-10.4l5.6-5.4l2.4,1.8c7.1,6.6,16.4,9.9,25.6,9.9c9.4,0,18.8-3.5,26-10.4
	c7.3-7,10.9-16.3,10.8-25.6c9.6,0.1,19.3-3.3,26.6-10.3c7.3-7,10.9-16.3,10.8-25.6c10,0.2,19.5-3.5,26.6-10.4
	c7.3-7,10.9-16.3,10.8-25.6c9.6,0.1,19.3-3.3,26.6-10.4c12.5-12,14.1-30.6,4.8-44.3l33.8-68l50.7-42
	C531.6,224.2,532.2,218.2,528.8,213.9z M111,122.2L153,148L61.5,255.2l-36.7-30.4L111,122.2z M116.9,349.7l12.7-12.2
	c0.4-0.4,0.8-0.7,1.2-1c2.5-1.9,5.5-3.1,8.7-3.4c0.1,0,0.2,0,0.3,0c0.5,0,0.9-0.1,1.4-0.1c4.4,0.1,8.4,1.8,11.4,4.8
	c5.9,6,5.6,15.8-0.7,21.8l-12.3,11.8c-6.2,6-16.4,6-22.6,0C110.7,365.4,110.7,355.7,116.9,349.7z M149.6,412
	c-3-2.9-4.7-6.8-4.7-10.9c0-4.1,1.7-8,4.7-10.9l24.6-23.7c4.7-4.5,12.1-5.8,18.2-3c6.2,2.8,9.7,9.3,8.8,15.9
	c-0.5,3.5-2.2,6.8-4.8,9.3L172.2,412c-3,2.9-7,4.5-11.3,4.5C156.6,416.6,152.6,415,149.6,412z M186.7,448.2c-3-2.9-4.7-6.8-4.7-10.9
	c0-4.1,1.7-8,4.7-10.9l24.6-23.7c5-4.8,13.1-5.9,19.3-2.4c5.6,3.2,8.6,9.4,7.6,15.5c-0.5,3.4-2.2,6.6-4.7,9l-24.2,23.3
	c-3,2.9-7,4.5-11.3,4.5S189.8,451.1,186.7,448.2z M229.1,479.7c-6.2-6-6.2-15.7,0-21.7l12.7-12.2c0.4-0.4,0.8-0.7,1.2-1c0,0,0,0,0,0
	c2.1-1.6,4.5-2.7,7.1-3.2c0.1,0,0.1,0,0.2,0c0.4-0.1,0.9-0.1,1.4-0.2c0.2,0,0.4,0,0.6,0c0.4,0,0.7,0,1.1,0c4.3,0.1,8.4,1.8,11.4,4.8
	c0.4,0.4,0.7,0.8,1,1.2c4.8,6,4.1,15-1.8,20.7l-12.2,11.8C245.4,485.7,235.3,485.7,229.1,479.7z M423.3,367.8c-6.2,6-16.4,6-22.6,0
	c-0.2-0.2-0.5-0.4-0.7-0.6l-67-65.1c-4-3.9-10.6-4-14.7-0.1c-4.1,3.9-4.1,10.2-0.1,14.2L386,382c0,0,0,0,0,0c6.2,6,6.2,15.7,0,21.7
	c-3,2.9-7,4.5-11.3,4.5c-4.3,0-8.3-1.6-11.3-4.5l-45.3-44c-4-3.9-10.6-4-14.7-0.1c-4.1,3.9-4.1,10.2-0.1,14.2l44.6,43.3
	c0.2,0.3,0.5,0.5,0.7,0.8c6.2,6,6.2,15.7,0,21.7c-6.2,6-16.4,6-22.6,0l-24.7-24c-4-3.9-10.6-4-14.7-0.1c-4.1,3.9-4.1,10.2-0.1,14.2
	l24,23.4c0.2,0.3,0.5,0.5,0.7,0.8c6.2,6,6.2,15.7,0,21.7c-6.2,6-16.4,6-22.6,0c-0.7-0.7-1.6-1.2-2.4-1.8c-0.7-0.5-0.9-0.8-0.5-1.6
	c0.3-0.8,0.9-1.5,1.2-2.3c0.4-0.9,0.7-1.8,1-2.8c1.6-5,2.1-10.3,1.3-15.4c-1.4-9.9-7-18.8-15.6-24.4c-4.6-3-10-5-15.5-5.8
	c2.7-11.4-0.5-23.7-8.9-32.2c-6.9-7-16.2-10.9-26.2-11.1c-0.4,0-0.7,0-1.1,0c0.2-9.2-3.3-18.3-9.8-25c-6.9-7-16.2-10.9-26.2-11.1
	c-3,0-6,0.3-8.9,0.9c-1.2-8.3-5.6-16-12.2-21.5c-6.5-5.5-14.8-8.5-23.5-8.6c-9.2-0.1-18.3,3.1-25.1,9.1L76,269.8l96.3-112.9L203,165
	l-40.1,68.1c-4.8,8.2-6.1,17.8-3.4,26.9c2.6,9.1,8.8,16.7,17.3,21.4c0.5,0.3,1.1,0.6,1.6,0.8c0,0,0.1,0,0.1,0.1
	c1.4,0.7,2.9,1.3,4.4,1.8c7,2.3,14.5,2.6,21.8,0.6c9.5-2.5,17.4-8.4,22.2-16.7l26-44.2l46.5,3.2l123.8,119.2
	C429.5,352.1,429.5,361.9,423.3,367.8z M427.6,321.9L311.5,210.1c-0.2-0.2-0.4-0.4-0.7-0.6c-1.7-1.3-3.7-2.2-5.9-2.3l-56.9-3.9
	c-3.9-0.3-7.9,1.8-9.8,5.1l-29.3,49.7c-2.1,3.6-5.5,6.1-9.6,7.2c-4.1,1.1-8.4,0.6-12.1-1.4c-3.7-2-6.4-5.3-7.5-9.3
	c-1.1-4-0.6-8.1,1.5-11.7l39.1-66.4l15.8-4.4c0.1,0,0.2-0.1,0.3-0.1l59.1-16.4h71.4L456,264.7L427.6,321.9z M469.6,249l-82.5-100.9
	l42.1-25.8l77.1,96.3L469.6,249z"/>
<g>
	<path class="st1" d="M319.6,116.8c2.6,0,5.1-1,7.1-2.9l68.4-68.4c3.9-3.9,3.9-10.3,0-14.2s-10.3-3.9-14.2,0l-68.4,68.4
		c-3.9,3.9-3.9,10.3,0,14.2C314.5,115.8,317,116.8,319.6,116.8z"/>
	<path class="st1" d="M204.3,113.9c2,2,4.5,2.9,7.1,2.9c2.6,0,5.1-1,7.1-2.9c3.9-3.9,3.9-10.3,0-14.2l-68.4-68.4
		c-3.9-3.9-10.3-3.9-14.2,0s-3.9,10.3,0,14.2L204.3,113.9z"/>
	<path class="st1" d="M265.5,116.8c5.5,0,10-4.5,10-10V50.1c0-5.5-4.5-10-10-10s-10,4.5-10,10v56.6
		C255.5,112.3,260,116.8,265.5,116.8z"/>
	<path class="st1" d="M256.3,13.8c1.6,3.9,5.6,6.4,9.7,6.2c4.1-0.2,7.8-3,9-6.9c1.3-4-0.1-8.5-3.4-11c-3.4-2.6-8.1-2.7-11.7-0.4
		C256,4.3,254.5,9.5,256.3,13.8z"/>
</g>
</svg>
