<svg xmlns="http://www.w3.org/2000/svg" width="61" height="45" viewBox="0 0 61 45"><g><g><path fill="#131416" d="M18.395 22.163a6.464 6.464 0 1 1 6.463-6.465 6.464 6.464 0 0 1-6.463 6.465zm0-10.416a3.964 3.964 0 0 0 0 7.928 3.964 3.964 0 0 0 0-7.928zm0 12.805a9.702 9.702 0 0 1 7.026 2.938c1.875 1.914 2.9 4.514 2.9 7.34a1.254 1.254 0 0 1-1.25 1.25H9.719a1.254 1.254 0 0 1-1.25-1.25c0-2.826 1.025-5.426 2.9-7.34a9.701 9.701 0 0 1 7.026-2.938zm7.338 9.028a7.689 7.689 0 0 0-2.1-4.339 7.363 7.363 0 0 0-10.476 0 7.65 7.65 0 0 0-2.1 4.34zM54.223.53a6.254 6.254 0 0 1 6.251 6.253v31.761a6.254 6.254 0 0 1-6.25 6.253H6.719a6.254 6.254 0 0 1-6.25-6.253V6.783A6.254 6.254 0 0 1 6.718.53zm3.751 6.253a3.762 3.762 0 0 0-3.75-3.752H6.719a3.762 3.762 0 0 0-3.75 3.752v31.761a3.762 3.762 0 0 0 3.75 3.752h47.505a3.762 3.762 0 0 0 3.75-3.752zm-6.826 14.63a1.25 1.25 0 0 1 0 2.501H36.584a1.25 1.25 0 1 1 0-2.501zm0 8.003a1.25 1.25 0 0 1 0 2.501H36.584a1.25 1.25 0 0 1 0-2.501zm0-16.006a1.25 1.25 0 1 1 0 2.501H36.584a1.25 1.25 0 1 1 0-2.5z"/></g></g></svg>