<svg xmlns="http://www.w3.org/2000/svg" width="60" height="63" viewBox="0 0 60 63"><g><g><path fill="#131416" d="M59.998 38.852v9.437c0 1.096-.89 1.988-1.984 1.988h-.927v8.364c0 2.167-1.76 3.93-3.923 3.93H3.918a3.931 3.931 0 0 1-3.923-3.93V28.5c0-1.582.94-2.95 2.289-3.57v-.778a2.996 2.996 0 0 1 2.99-2.995h2.26L8.863 7.695a2.864 2.864 0 0 1 3.126-2.568l13.68 1.353a.884.884 0 0 1-.174 1.76l-13.68-1.354c-.6-.06-1.136.382-1.195.983L8.972 24.571h1.125l1.059-10.734a2.067 2.067 0 0 1 1.33-1.744 4.935 4.935 0 0 0 2.407-1.96 2.065 2.065 0 0 1 1.956-.947l6.77.67a.884.884 0 0 1-.174 1.76l-6.77-.67a.31.31 0 0 0-.293.137 6.71 6.71 0 0 1-3.273 2.665.313.313 0 0 0-.196.262L11.87 24.57h4.316l15.51-22.8a2.84 2.84 0 0 1 1.83-1.2c.75-.143 1.51.016 2.141.447l17.97 12.267a2.87 2.87 0 0 1 .752 3.98l-2.649 3.893h.693c1.649 0 2.99 1.343 2.99 2.995v1.14a3.928 3.928 0 0 1 1.663 3.208v8.364h.927c1.094 0 1.984.892 1.984 1.988zm-7.565-15.927H50.54l-1.12 1.646h3.745c.168 0 .333.011.495.032v-.451c0-.676-.55-1.227-1.226-1.227zm-34.11 1.646h1.355L30.772 8.26a2.09 2.09 0 0 1 2.002-.89 4.923 4.923 0 0 0 3.05-.565 2.061 2.061 0 0 1 2.17.107l9.315 6.359a2.07 2.07 0 0 1 .893 1.984 4.948 4.948 0 0 0 .591 3.05 2.07 2.07 0 0 1-.096 2.193l-2.77 4.07h1.356l5.648-8.302c.34-.499.21-1.182-.288-1.522L34.674 2.478a1.082 1.082 0 0 0-.819-.171 1.086 1.086 0 0 0-.7.46zM40.8 24.57h2.992l3.446-5.067a.314.314 0 0 0 .018-.327 6.731 6.731 0 0 1-.805-4.148.312.312 0 0 0-.136-.294L37 8.374a.31.31 0 0 0-.324-.02 6.7 6.7 0 0 1-4.147.768.316.316 0 0 0-.298.136L21.813 24.57h4.474c.257-3.787 3.412-6.79 7.256-6.79 3.844 0 6.998 3.003 7.256 6.789zm-7.256-5.02c-2.87 0-5.233 2.21-5.486 5.02H39.03c-.253-2.81-2.616-5.02-5.486-5.02zM4.049 24.57h3.15l.161-1.646H5.274c-.675 0-1.225.551-1.225 1.228zM1.76 30.955h53.56V28.5a2.162 2.162 0 0 0-2.157-2.162H3.918c-1.19 0-2.157.97-2.157 2.162zm53.56 23.465v-4.142H46.93c-3.691 0-6.694-3.009-6.694-6.707a6.7 6.7 0 0 1 .3-1.989l.001-.003c.092-.294.205-.579.334-.854l.026-.058.011-.023a6.7 6.7 0 0 1 6.022-3.779h8.391v-4.142H1.761V54.42H6.52a.883.883 0 0 1 0 1.769H1.76v2.453c0 1.192.969 2.162 2.158 2.162h49.246c1.19 0 2.157-.97 2.157-2.162v-2.453h-43.15a.884.884 0 0 1 0-1.769zm2.912-6.13v-9.437a.22.22 0 0 0-.22-.22H46.93a4.933 4.933 0 0 0-4.929 4.938 4.923 4.923 0 0 0 .596 2.352 4.93 4.93 0 0 0 4.333 2.586h11.084a.22.22 0 0 0 .219-.22zm-7.515-4.719a3.588 3.588 0 0 1-3.581 3.588 3.588 3.588 0 0 1 0-7.175c1.974 0 3.58 1.61 3.58 3.587zm-1.765 0a1.82 1.82 0 0 0-1.816-1.819 1.82 1.82 0 0 0 0 3.638c1 0 1.816-.815 1.816-1.819z"/></g></g></svg>