<svg xmlns="http://www.w3.org/2000/svg" width="61" height="60" viewBox="0 0 61 60"><g><g><path fill="#131416" d="M60.457 29.895c0 16.573-13.435 30.008-30.007 30.008C13.876 59.903.44 46.468.44 29.895S13.876-.113 30.45-.113c16.565.019 29.989 13.443 30.007 30.008zm-2 0c0-15.468-12.54-28.008-28.007-28.008-15.469 0-28.008 12.54-28.008 28.008s12.54 28.007 28.008 28.007c15.46-.017 27.99-12.546 28.007-28.007zm-2 0c0 14.363-11.644 26.007-26.007 26.007-14.364 0-26.008-11.644-26.008-26.007 0-14.363 11.644-26.007 26.008-26.007 14.356.016 25.99 11.65 26.006 26.007zm-2.001 0c0-13.258-10.748-24.006-24.006-24.006-13.259 0-24.007 10.748-24.007 24.006 0 13.259 10.748 24.006 24.007 24.006 13.251-.015 23.99-10.754 24.006-24.006zm-46.012-1h2a1 1 0 1 1 0 2h-2a1 1 0 0 1 0-2zm42.01 0h2.001a1 1 0 1 1 0 2h-2a1 1 0 0 1 0-2zM10.892 40.032l1.733-1a1 1 0 1 1 1 1.733l-1.733 1a1 1 0 0 1-1-1.733zm36.383-21.008l1.733-1a1 1 0 1 1 1 1.733l-1.733 1a1 1 0 1 1-1-1.733zm-36.749-.632a1 1 0 0 1 1.366-.366l1.733 1a1 1 0 1 1-1 1.733l-1.733-1a1 1 0 0 1-.366-1.367zm36.384 21.004a1 1 0 0 1 1.367-.367l1.733 1a1 1 0 1 1-1 1.733l-1.733-1a1 1 0 0 1-.367-1.366zM18.943 9.97a1 1 0 0 1 1.366.367l1 1.732a1 1 0 1 1-1.733 1l-1-1.732a1 1 0 0 1 .367-1.367zM30.45 6.89a1 1 0 0 1 1 1v2a1 1 0 1 1-2 0v-2a1 1 0 0 1 1-1zm9.135 5.18l1-1.732a1 1 0 0 1 1.733 1l-1 1.733a1 1 0 0 1-1.733-1zM8.227 23.94a1 1 0 0 1 1.225-.706l.966.258a1 1 0 1 1-.517 1.933l-.967-.259a1 1 0 0 1-.707-1.225zm41.541 11.132a1 1 0 0 1 1.225-.708l.966.259a1 1 0 0 1-.517 1.932l-.967-.259a1 1 0 0 1-.707-1.224zM14.182 13.627a1 1 0 0 1 1.415 0l.707.707a1 1 0 1 1-1.415 1.415l-.707-.707a1 1 0 0 1 0-1.415zm10.31-5.954a1.001 1.001 0 0 1 1.224.708l.26.966a1 1 0 0 1-1.933.518l-.259-.966a1 1 0 0 1 .707-1.226zm10.427 1.679l.259-.966a1 1 0 1 1 1.932.517l-.259.966a1 1 0 1 1-1.932-.517zm9.676 4.985l.708-.707a1 1 0 0 1 1.415 1.414l-.708.708a1 1 0 0 1-1.415-1.415zm5.892 9.154l.966-.259a1 1 0 0 1 .518 1.933l-.966.259a1 1 0 0 1-.518-1.933zM8.935 34.625l.966-.259a1 1 0 1 1 .518 1.932l-.966.26a1 1 0 1 1-.518-1.933zm37.984-.476a1.001 1.001 0 0 1-1.939-.5c.98-3.802.43-7.837-1.53-11.238-4.138-7.179-13.313-9.644-20.492-5.506-7.18 4.139-9.645 13.313-5.506 20.492a1 1 0 0 1-1.732 1 17.005 17.005 0 0 1-1.735-12.735c2.342-9.095 11.614-14.568 20.708-12.226 9.095 2.343 14.568 11.615 12.226 20.709zm-1.833 2.974a1.002 1.002 0 0 1-.973 1.715L30.21 33.873a3.991 3.991 0 1 1 3.781-5.803.982.982 0 0 1 .094.05zM30.45 31.896a2 2 0 1 0 0-4.001 2 2 0 0 0 0 4zm8.902 3.115l-5.043-4.12a3.976 3.976 0 0 1-1.134 1.917zm.1 9.888a5.001 5.001 0 0 1-5.002 5.002h-8.002a5.002 5.002 0 0 1 0-10.003h8.002a5.001 5.001 0 0 1 5.002 5.001zm-2 0a3 3 0 0 0-3.002-3h-8.002a3 3 0 1 0 0 6.001h8.002a3.001 3.001 0 0 0 3.001-3zm-8.003 0a1 1 0 0 1-1 1h-2a1 1 0 1 1 0-2h2a1 1 0 0 1 1 1zm6.002 0a1 1 0 0 1-1 1H32.45a1 1 0 1 1 0-2h2a1 1 0 0 1 1 1z"/></g></g></svg>