<svg xmlns="http://www.w3.org/2000/svg" width="47" height="60" viewBox="0 0 47 60"><g><g><path fill="#131416" d="M12.666 11.891c-5.409 5.408-5.95 14.031-1.26 20.057a.946.946 0 1 1-1.493 1.161c-5.275-6.777-4.666-16.473 1.415-22.555a17.05 17.05 0 0 1 19.784-3.172.945.945 0 1 1-.853 1.687 15.164 15.164 0 0 0-17.593 2.822zm25.997 3.043a17.048 17.048 0 0 1-3.175 19.778 17.074 17.074 0 0 1-12.095 5 16.994 16.994 0 0 1-10.462-3.584.945.945 0 0 1 1.162-1.492c6.026 4.69 14.649 4.148 20.057-1.26a15.161 15.161 0 0 0 2.824-17.59.946.946 0 0 1 1.689-.852zm-5.288-5.029a.946.946 0 0 1 1.335-.083 17.722 17.722 0 0 1 1.51 1.51.945.945 0 1 1-1.418 1.252 15.373 15.373 0 0 0-1.344-1.344.945.945 0 0 1-.083-1.335zm12.352 14.423l-1.244 2.04a1.331 1.331 0 0 0-.179.9l.371 2.356a3.207 3.207 0 0 1-1.287 3.105l-1.929 1.402a1.331 1.331 0 0 0-.51.763l-.561 2.32a3.207 3.207 0 0 1-2.373 2.373l-.933.225 6.561 14.635a.944.944 0 0 1-.975 1.326l-5.276-.631-3.04 4.358a.945.945 0 0 1-1.638-.154l-6.706-14.958-.879.537a3.22 3.22 0 0 1-1.676.472 3.22 3.22 0 0 1-1.677-.472l-.849-.518-6.697 14.939a.945.945 0 0 1-1.639.154l-3.039-4.358-5.276.63a.947.947 0 0 1-.975-1.325L9.858 39.82l-.97-.234a3.209 3.209 0 0 1-2.372-2.373l-.561-2.32a1.33 1.33 0 0 0-.51-.762l-1.928-1.402a3.208 3.208 0 0 1-1.287-3.106l.37-2.356c.05-.311-.014-.63-.178-.899l-1.244-2.04a3.208 3.208 0 0 1 0-3.353l1.244-2.04a1.33 1.33 0 0 0 .178-.9l-.37-2.356a3.208 3.208 0 0 1 1.287-3.105l1.928-1.402a1.33 1.33 0 0 0 .51-.763l.562-2.32A3.209 3.209 0 0 1 8.89 5.716l2.32-.56a1.33 1.33 0 0 0 .763-.51l1.402-1.929a3.21 3.21 0 0 1 3.106-1.287l2.356.37c.311.05.63-.013.898-.178L21.775.38a3.207 3.207 0 0 1 3.354 0l2.04 1.243c.27.165.589.228.9.178l2.356-.37c1.2-.189 2.39.305 3.105 1.287l1.403 1.929c.185.254.456.436.762.51l2.32.561a3.207 3.207 0 0 1 2.373 2.373l.562 2.32c.074.306.255.577.51.763l1.928 1.402a3.207 3.207 0 0 1 1.287 3.105l-.37 2.356c-.05.311.014.63.178.9l1.243 2.039c.631 1.034.631 2.319 0 3.353zM19.259 43.505a1.336 1.336 0 0 0-.423-.003l-2.356.37c-.319.05-.636.051-.945.01l-3.133 6.989a.946.946 0 0 1-1.726-.774l3.145-7.014a3.24 3.24 0 0 1-.447-.497l-1.402-1.929a1.322 1.322 0 0 0-.288-.287L5.709 53.696l4.182-.5a.946.946 0 0 1 .887.398l2.41 3.454zm21.975 10.191L35.25 40.348c-.121.085-.23.188-.318.31l-1.403 1.928a3.253 3.253 0 0 1-.418.47l3.157 7.041a.946.946 0 0 1-1.726.774l-3.136-6.995c-.32.047-.65.05-.982-.003l-2.356-.371a1.34 1.34 0 0 0-.386-.002l6.074 13.548 2.41-3.454c.199-.286.54-.439.887-.398zm2.878-31.737l-1.244-2.04a3.223 3.223 0 0 1-.431-2.177l.37-2.357a1.322 1.322 0 0 0-.531-1.28l-1.928-1.403a3.224 3.224 0 0 1-1.236-1.848l-.561-2.32a1.323 1.323 0 0 0-.98-.979l-2.32-.562a3.222 3.222 0 0 1-1.847-1.235L32 3.83a1.323 1.323 0 0 0-1.282-.532l-2.357.371a3.223 3.223 0 0 1-2.177-.432l-2.04-1.244a1.323 1.323 0 0 0-1.385 0l-2.04 1.244c-.65.397-1.424.55-2.177.431l-2.356-.37a1.323 1.323 0 0 0-1.282.532l-1.403 1.927a3.226 3.226 0 0 1-1.847 1.236l-2.32.562a1.325 1.325 0 0 0-.98.979l-.562 2.32A3.22 3.22 0 0 1 6.558 12.7l-1.929 1.403c-.405.295-.609.786-.531 1.281l.37 2.357a3.225 3.225 0 0 1-.43 2.177l-1.245 2.04c-.26.427-.26.958 0 1.384l1.244 2.04c.397.651.55 1.425.432 2.178l-.371 2.355c-.078.496.125.988.531 1.283L6.557 32.6a3.223 3.223 0 0 1 1.236 1.848l.561 2.32c.118.486.493.86.98.979l2.32.562c.742.179 1.398.618 1.847 1.235l1.403 1.928c.295.406.786.61 1.282.532l2.356-.37a3.228 3.228 0 0 1 2.177.431l2.041 1.244c.427.26.958.26 1.385 0l2.04-1.244a3.226 3.226 0 0 1 2.177-.432l2.356.37c.496.079.987-.124 1.282-.53l1.402-1.928a3.225 3.225 0 0 1 1.848-1.236l2.32-.561c.486-.118.862-.493.98-.98l.561-2.32a3.226 3.226 0 0 1 1.236-1.847l1.929-1.403c.405-.295.609-.786.531-1.281l-.371-2.357a3.223 3.223 0 0 1 .432-2.177l1.244-2.04c.26-.427.26-.958 0-1.385zm-31.725-2.25c.209-.64.754-1.089 1.424-1.168l5.69-.675 2.4-5.202a1.691 1.691 0 0 1 1.551-.993c.675 0 1.27.38 1.552.993l2.4 5.202 5.69.674c.67.08 1.215.528 1.423 1.17.209.64.03 1.324-.465 1.782l-4.206 3.89 1.116 5.62a1.69 1.69 0 0 1-.671 1.714 1.692 1.692 0 0 1-1.84.11l-4.999-2.8-5 2.8a1.699 1.699 0 0 1-1.839-.109 1.69 1.69 0 0 1-.67-1.716l1.116-5.62-4.207-3.89a1.691 1.691 0 0 1-.465-1.782zm2.04.663l4.304 3.98c.242.224.35.557.286.88l-1.143 5.75 5.116-2.864a.945.945 0 0 1 .924 0l5.116 2.864-1.142-5.75a.946.946 0 0 1 .285-.88l4.305-3.98-5.822-.69a.944.944 0 0 1-.748-.543l-2.456-5.324-2.455 5.324a.945.945 0 0 1-.748.542z"/></g></g></svg>