<svg xmlns="http://www.w3.org/2000/svg" width="49" height="61" viewBox="0 0 49 61"><g><g><path fill="#131416" d="M13.99 13.508a3.954 3.954 0 0 1-3.953 3.946 3.954 3.954 0 0 1-3.953-3.946 3.954 3.954 0 0 1 3.953-3.946.94.94 0 1 1 0 1.88 2.07 2.07 0 0 0-2.07 2.066 2.071 2.071 0 0 0 4.14 0 .94.94 0 0 1 .941-.94c.52 0 .941.421.941.94zm0 11.024a3.954 3.954 0 0 1-3.953 3.946 3.954 3.954 0 0 1-3.953-3.946 3.954 3.954 0 0 1 3.953-3.946.94.94 0 1 1 0 1.88c-1.142 0-2.07.927-2.07 2.066a2.071 2.071 0 0 0 4.14 0 .94.94 0 0 1 1.882 0zm11.041 2.004a.94.94 0 0 1-.941.94h-7.027a.94.94 0 1 1 0-1.879h7.027c.52 0 .941.42.941.94zm0-4.008a.94.94 0 0 1-.941.94h-7.027a.94.94 0 1 1 0-1.88h7.027c.52 0 .941.42.941.94zm-2.949 15.973h-5.019a.94.94 0 1 1 0-1.88h5.02a.94.94 0 1 1 0 1.88zm2.95-4.95a.94.94 0 0 1-.942.94h-7.027a.94.94 0 1 1 0-1.878h7.027c.52 0 .941.42.941.939zm8.092-17.099h-16.06a.94.94 0 1 1 0-1.879h16.06a.94.94 0 1 1 0 1.879zm-17.002-4.948a.94.94 0 0 1 .941-.94H29.11a.94.94 0 1 1 0 1.88H17.063a.94.94 0 0 1-.94-.94zM7.966 35.557a2.071 2.071 0 0 0 4.14 0 .94.94 0 0 1 1.883 0 3.954 3.954 0 0 1-3.952 3.946 3.954 3.954 0 0 1-3.953-3.946 3.954 3.954 0 0 1 3.953-3.947.94.94 0 1 1 0 1.88c-1.142 0-2.07.927-2.07 2.067zm13.05 12.026a.94.94 0 0 1-.941.94H3.01a2.95 2.95 0 0 1-2.949-2.944V3.486A2.95 2.95 0 0 1 3.011.542h34.128a2.95 2.95 0 0 1 2.95 2.944v31.068a.94.94 0 0 1-1.883 0V3.486c0-.587-.478-1.065-1.067-1.065H3.01c-.588 0-1.067.478-1.067 1.065v42.093c0 .586.479 1.065 1.067 1.065h17.065c.52 0 .94.42.94.939zm28.107-5.369v10.38c0 4.386-3.575 7.955-7.968 7.955h-8.488a7.935 7.935 0 0 1-7.756-6.133l-2.1-8.911a5.908 5.908 0 0 1 1.587-5.571l2.766-2.762V25.176c0-1.828 1.361-3.397 3.098-3.57a3.469 3.469 0 0 1 2.667.872 3.45 3.45 0 0 1 1.136 2.555v11.965a3.482 3.482 0 0 1 1.922-.359c1.087.109 2.027.764 2.578 1.687a3.478 3.478 0 0 1 2.44-.685c1.088.11 2.028.764 2.579 1.687a3.477 3.477 0 0 1 2.44-.685c1.738.174 3.099 1.742 3.099 3.571zm-1.883 0c0-.875-.616-1.622-1.403-1.7a1.566 1.566 0 0 0-1.734 1.558v1.502a.94.94 0 0 1-.94.94.94.94 0 0 1-.942-.94v-2.362c0-.875-.616-1.622-1.403-1.701a1.57 1.57 0 0 0-1.734 1.558v1.503a.94.94 0 0 1-1.882 0v-2.363c0-.875-.616-1.621-1.403-1.7a1.569 1.569 0 0 0-1.734 1.558v1.503a.94.94 0 0 1-1.882 0V25.033a1.568 1.568 0 0 0-1.733-1.557c-.787.078-1.404.825-1.404 1.7v17.897a.94.94 0 0 1-1.882 0V39.83l-1.435 1.433a4.042 4.042 0 0 0-1.086 3.812l2.1 8.912a6.06 6.06 0 0 0 5.924 4.684h8.488c3.355 0 6.085-2.725 6.085-6.076z"/></g></g></svg>