<svg xmlns="http://www.w3.org/2000/svg" width="60" height="61" viewBox="0 0 60 61"><g><g><path fill="#131416" d="M59.9 54.662a5.866 5.866 0 0 1-5.86 5.86H5.765a5.866 5.866 0 0 1-5.859-5.86V19.036a5.866 5.866 0 0 1 5.86-5.86h5.155v-6.79c0-3.23 2.628-5.859 5.859-5.859h26.247a5.866 5.866 0 0 1 5.859 5.86v6.79h5.156a5.866 5.866 0 0 1 5.859 5.86v35.625zM13.264 13.177h2.343V6.38c0-.648.525-1.172 1.172-1.172h26.247c.648 0 1.172.524 1.172 1.172v6.797h2.344v-6.79a3.519 3.519 0 0 0-3.516-3.516H16.78a3.519 3.519 0 0 0-3.515 3.516zm-7.5 2.343a3.52 3.52 0 0 0-3.515 3.516v7.47l22.029 7.257v-.898a2.815 2.815 0 0 1 2.812-2.813h5.625a2.815 2.815 0 0 1 2.812 2.813v.898l22.03-7.256v-7.47a3.52 3.52 0 0 0-3.516-3.517H35.176a1.172 1.172 0 1 1 0-2.343h6.679V7.552H17.95v5.625h6.679a1.172 1.172 0 1 1 0 2.343zm27.42 17.345a.469.469 0 0 0-.47-.469H27.09a.469.469 0 0 0-.468.469v1.345h6.561zm-6.562 5.156c0 1.81 1.472 3.281 3.28 3.281a3.284 3.284 0 0 0 3.281-3.28v-1.468h-6.561zM54.04 58.178a3.52 3.52 0 0 0 3.515-3.515v-25.69l-22.03 7.258v1.79a5.63 5.63 0 0 1-5.624 5.625 5.631 5.631 0 0 1-5.624-5.625v-1.79L2.249 28.974v25.688a3.52 3.52 0 0 0 3.515 3.516zM29.902 15.52c-.308 0-.61-.125-.828-.343a1.18 1.18 0 0 1-.343-.828c0-.309.125-.61.343-.829.218-.218.52-.343.828-.343.309 0 .611.125.829.343.218.218.343.52.343.829 0 .308-.125.61-.343.828-.218.218-.52.343-.829.343z"/></g></g></svg>