<svg xmlns="http://www.w3.org/2000/svg" width="11" height="21" viewBox="0 0 11 21"><g><g><path fill="#fff" d="M10.586.002L7.947-.003c-2.964 0-4.88 2.029-4.88 5.169v2.383H.416A.422.422 0 0 0 0 7.977v3.453c0 .236.186.428.415.428h2.653v8.712c0 .236.185.428.414.428h3.462c.229 0 .414-.192.414-.428v-8.712h3.102c.23 0 .415-.192.415-.428l.001-3.453a.434.434 0 0 0-.121-.302.409.409 0 0 0-.294-.126H7.358v-2.02c0-.971.225-1.464 1.45-1.464h1.777A.422.422 0 0 0 11 3.635V.43a.422.422 0 0 0-.414-.428z"/></g></g></svg>