<svg xmlns="http://www.w3.org/2000/svg" width="295" height="28" viewBox="0 0 295 28"><g><g><path fill="#174f77" d="M131.005 27.997V.152h4.433l8.983 12.53 8.905-12.53h4.353v27.845h-4.353V6.834l-7.718 10.502h-2.532l-7.717-10.502v21.163zm31.229 0l12.11-28.004h4.194l12.11 28.004h-4.67l-3.007-6.922h-13.14l-2.967 6.922zm9.102-10.78h10.13l-5.065-11.695zm23.973 10.78V.152h11.912c2.889 0 5.145.756 6.767 2.267 1.662 1.472 2.493 3.42 2.493 5.808 0 2.426-.83 4.415-2.493 5.966-1.622 1.552-3.878 2.308-6.767 2.308h-7.559v11.496zm4.353-15.514h7.203c3.284 0 5.224-1.512 5.224-4.177 0-2.665-1.94-4.137-5.224-4.137h-7.203zm22.028 15.514V.152h4.353v11.377L237.401.152h5.58L230.159 12.88l14.88 15.116h-5.936l-13.06-13.366v13.366zm27.205 0V.152h19.708v4.017h-15.355v6.962h12.506v4.017h-12.506v8.83h15.87v4.019zM272.315.152h22.676v4.017h-9.181v23.828h-4.354V4.169h-9.141z"/></g><g><path fill="#174f77" d="M112 0h2v28h-2z"/></g><g><path fill="#174f77" d="M52.161 21.44c1.148.119 3.585.067 4.792.012 9.09-.415 9.01-14.374-.075-14.787-1.178-.054-3.618-.117-4.743.009zM45.227.274c1.305-.15 3.553-.02 4.96-.02 4.794 0 9.332-.434 13.256 1.54 9.533 4.792 9.677 19.79-.017 24.588-2.693 1.333-4.978 1.53-8.389 1.53-1.28 0-9.28.085-9.83-.043zM27.445 6.516l.003 5.884c1.265.062 2.825.047 4.096.012 1.308-.036 2.17-.694 2.63-1.44.986-1.598.307-4.458-2.967-4.461zM41.61 26.172c.437.644.362.827.314 1.736l-7.44.003c-.454-.81-1.007-1.58-1.46-2.334l-4.492-7.028-1.083-.002-.001 9.357-6.888.008-.036-27.89c1.432-.097 9.33-.037 11.187-.006 8.99.151 12.4 9.277 7.34 15.449-.58.706-2.107 1.983-3.172 2.362l5.731 8.344zM71.044 3.996c-.466-1.114-1.211-2.364-.993-3.741l7.06.007 6.474 16.707L89.939.254l7.028.013c.204 1.07-.565 2.408-1.088 3.72l-9.916 24.01-5.018.003c-9.91-24.023.008.019-9.901-24.004zM12.17 27.742H.945a2.21 2.21 0 0 0-.009-.008c-1.01-.301-.926-1.852-.926-3.262v-12.26c0-3.837-.24-3.33 1.673-5.468l4.55-4.83L4.513.154 16.665.14l.031 11.494-1.855-1.551-9.83 10.445 2.349 2.275-.013.007zM.37 26.179z"/></g></g></svg>