<svg xmlns="http://www.w3.org/2000/svg" width="20" height="16" viewBox="0 0 20 16"><g><g><path fill="#19b8df" d="M.418 9.154l2.125 2.104 2.129 2.105 2.127 2.104a1.522 1.522 0 0 0 2.124.002l.005-.002 2.125-2.104 2.129-2.105 2.127-2.104c.196-.194.436-.43.687-.68l1.263-1.249c.061-.06.123-.12.178-.176l2.126-2.102a1.483 1.483 0 0 0 0-2.106L17.437.74a1.522 1.522 0 0 0-2.128 0L13.182 2.84l-.141.14-1.314 1.3-.283.28-.391.386-2.125 2.102-.003.003a1.523 1.523 0 0 1-2.126-.003L4.672 4.947a1.522 1.522 0 0 0-2.129 0l-.752.744L.418 7.049a1.48 1.48 0 0 0 0 2.105z"/></g></g></svg>