<svg xmlns="http://www.w3.org/2000/svg" width="21" height="21" viewBox="0 0 21 21"><g><g><path fill="#fadb1e" d="M21 10.5c0 1.905-.47 3.662-1.408 5.27a10.453 10.453 0 0 1-3.821 3.822C14.162 20.53 12.405 21 10.5 21c-1.906 0-3.663-.47-5.271-1.408a10.457 10.457 0 0 1-3.822-3.822C.47 14.162 0 12.405 0 10.5c0-1.905.47-3.662 1.408-5.27A10.453 10.453 0 0 1 5.23 1.407C6.838.47 8.595 0 10.5 0c1.905 0 3.662.47 5.27 1.408a10.453 10.453 0 0 1 3.822 3.821C20.531 6.838 21 8.595 21 10.5zm-3.063 0a7.27 7.27 0 0 0-.997-3.732 7.413 7.413 0 0 0-2.707-2.707 7.27 7.27 0 0 0-3.733-.999 7.27 7.27 0 0 0-3.732.999A7.413 7.413 0 0 0 4.06 6.768a7.27 7.27 0 0 0-.998 3.732c0 1.349.332 2.593.998 3.732a7.414 7.414 0 0 0 2.707 2.707 7.27 7.27 0 0 0 3.732.998 7.27 7.27 0 0 0 3.733-.998 7.415 7.415 0 0 0 2.707-2.707 7.27 7.27 0 0 0 .997-3.732zm-5.81-5.127a.426.426 0 0 1 .123.314v6.125a.426.426 0 0 1-.123.315.425.425 0 0 1-.314.123H7.438a.426.426 0 0 1-.315-.123.426.426 0 0 1-.123-.315v-.875c0-.127.041-.232.123-.314a.426.426 0 0 1 .315-.123H10.5V5.687c0-.127.041-.232.123-.314a.426.426 0 0 1 .315-.123h.875c.127 0 .232.04.314.123z"/></g></g></svg>