<svg xmlns="http://www.w3.org/2000/svg" width="17" height="16" viewBox="0 0 17 16"><g><g><path fill="#19b9de" d="M17 5.772H0v-2.74c0-.367.297-.666.663-.666h4.72V.528c0-.291.234-.527.523-.527h5.188c.288 0 .523.236.523.527v1.838h4.72c.366 0 .663.298.663.667zM6.552 2.366h3.896V1.178H6.552zM17 7.326v8.007a.666.666 0 0 1-.663.667H.663A.666.666 0 0 1 0 15.333V7.327h1.901v1.22c0 .16.129.29.287.29h2.806c.158 0 .287-.13.287-.29v-1.22h6.438v1.22c0 .16.129.29.287.29h2.806c.158 0 .287-.13.287-.29v-1.22z"/></g></g></svg>