<svg xmlns="http://www.w3.org/2000/svg" width="15" height="18" viewBox="0 0 15 18"><g><g><path fill="#19b9de" d="M15 3.032v13.974c0 .549-.454.994-1.012.994H3.133a1.004 1.004 0 0 1-1.013-.994v-.48h9.747c.875 0 1.587-.7 1.587-1.558V2.038h.536c.558 0 1.01.445 1.01.994zM1.012 15.962A1.004 1.004 0 0 1 0 14.968V4.555h.352c.029.002.06.003.088.003h2.773c.787 0 1.426-.628 1.426-1.4V.434A.949.949 0 0 0 4.633.33V0h7.232c.56 0 1.013.446 1.013.994v13.974c0 .549-.454.994-1.013.994zm6.11-3.85c0-.259-.213-.47-.478-.47h-3.54a.474.474 0 0 0-.478.47c0 .26.214.47.478.47h3.539c.264 0 .48-.21.48-.47zm3.54-2.398c0-.259-.215-.47-.479-.47H3.104a.474.474 0 0 0-.478.47c0 .26.214.47.478.47h7.08c.263 0 .477-.21.477-.47zM2.625 7.167c0 .26.214.47.478.47h7.08c.263 0 .477-.21.477-.47 0-.259-.214-.47-.478-.47H3.104a.474.474 0 0 0-.478.47zM.138 3.28L3.336.14a.418.418 0 0 1 .298-.125c.218 0 .429.167.429.42v2.732a.842.842 0 0 1-.842.827H.44c-.38 0-.57-.45-.302-.714z"/></g></g></svg>