<svg xmlns="http://www.w3.org/2000/svg" width="21" height="18" viewBox="0 0 21 18"><g><g><path d="M-.014 7.715v-.582c0-1.482 2.733-2.683 6.105-2.683.59 0 1.162.037 1.702.106v5.737c-.54.07-1.111.106-1.702.106-3.372 0-6.105-1.201-6.105-2.684zm0 2.996v-.582c0-.188.044-.372.128-.55.577 1.22 3.034 2.135 5.977 2.135.59 0 1.161-.038 1.702-.106v1.681c-.54.07-1.111.106-1.702.106-3.372 0-6.105-1.201-6.105-2.684zm7.807 4.605c0 .326.077.64.228.938-.607.09-1.256.137-1.93.137-3.372 0-6.105-1.201-6.105-2.683v-.582c0-.189.044-.373.128-.55.577 1.218 3.034 2.134 5.977 2.134.59 0 1.161-.038 1.702-.106zM21 2.588v.582c0 1.482-2.734 2.684-6.106 2.684S8.79 4.652 8.79 3.17v-.582c0-1.482 2.733-2.683 6.105-2.683C18.266-.095 21 1.106 21 2.588zm-.128 2.447c.084.177.128.36.128.55v.581c0 1.483-2.734 2.684-6.106 2.684S8.79 7.649 8.79 6.166v-.582c0-.188.044-.372.128-.55.577 1.22 3.034 2.135 5.977 2.135 2.944 0 5.4-.916 5.978-2.134zm0 2.996c.084.177.128.361.128.55v.582c0 1.482-2.734 2.683-6.106 2.683S8.79 10.645 8.79 9.163V8.58c0-.188.044-.372.128-.549.577 1.218 3.034 2.134 5.977 2.134 2.944 0 5.4-.916 5.978-2.134zm0 3.158c.084.177.128.36.128.55v.581c0 1.482-2.734 2.684-6.106 2.684S8.79 13.802 8.79 12.32v-.582c0-.188.044-.372.128-.55.577 1.22 3.034 2.135 5.977 2.135 2.944 0 5.4-.916 5.978-2.134zm0 2.996c.084.177.128.361.128.55v.581C21 16.8 18.266 18 14.894 18S8.79 16.799 8.79 15.316v-.582c0-.188.044-.372.128-.55.577 1.22 3.034 2.135 5.977 2.135 2.944 0 5.4-.916 5.978-2.134z"/></g></g></svg>