<svg xmlns="http://www.w3.org/2000/svg" width="15" height="15" viewBox="0 0 15 15"><g><g><path fill="#19b9de" d="M14.993 11.838a.726.726 0 0 1-.223.635l-2.112 2.098a1.19 1.19 0 0 1-.373.27 1.543 1.543 0 0 1-.452.143l-.096.008a2.174 2.174 0 0 1-.206.008c-.201 0-.527-.034-.977-.104-.45-.068-1-.237-1.651-.508-.651-.27-1.39-.676-2.215-1.216-.826-.54-1.705-1.281-2.636-2.224A17.412 17.412 0 0 1 2.21 8.85a14.944 14.944 0 0 1-1.175-1.852 9.992 9.992 0 0 1-.667-1.541 8.164 8.164 0 0 1-.302-1.192 3.936 3.936 0 0 1-.064-.786c.011-.19.016-.297.016-.318.022-.148.07-.3.143-.452.074-.155.164-.278.27-.375L2.543.223A.698.698 0 0 1 3.051 0c.138 0 .26.04.365.119.106.08.196.178.27.294l1.7 3.226c.095.17.121.355.079.556a.992.992 0 0 1-.27.508l-.778.78a.26.26 0 0 0-.056.102.39.39 0 0 0-.024.12c.043.222.138.476.286.762.127.254.323.564.588.93.264.365.64.786 1.127 1.263.477.487.9.866 1.27 1.136.371.27.68.469.93.596.248.127.439.204.571.23l.199.04a.356.356 0 0 0 .103-.024.266.266 0 0 0 .103-.055l.905-.922a.973.973 0 0 1 .667-.254.83.83 0 0 1 .429.095h.016l3.064 1.812c.223.137.355.312.398.524z"/></g></g></svg>