<svg xmlns="http://www.w3.org/2000/svg" width="27" height="27" viewBox="0 0 27 27"><g><g><path fill="#fff" d="M20.356 10.02a1.055 1.055 0 1 1 0 2.109 1.055 1.055 0 0 1 0-2.11zM27 6.328v6.012a1.055 1.055 0 1 1-2.11 0V6.328c0-1.163-.946-2.11-2.109-2.11h-1.37v1.056a1.055 1.055 0 1 1-2.11 0V4.219h-4.799v1.055a1.055 1.055 0 0 1-2.11 0V4.219H7.648v1.055a1.055 1.055 0 1 1-2.11 0V4.219H4.22c-1.163 0-2.11.946-2.11 2.11V22.78c0 1.163.947 2.11 2.11 2.11h8.068a1.055 1.055 0 1 1 0 2.109H4.22A4.223 4.223 0 0 1 0 22.781V6.328A4.223 4.223 0 0 1 4.22 2.11h1.318V1.055a1.055 1.055 0 0 1 2.11 0v1.054h4.746V1.055a1.055 1.055 0 1 1 2.109 0v1.054h4.799V1.055a1.055 1.055 0 0 1 2.11 0v1.054h1.37A4.224 4.224 0 0 1 27 6.33zm0 14.291A6.388 6.388 0 0 1 20.62 27a6.388 6.388 0 0 1-6.382-6.38 6.388 6.388 0 0 1 6.381-6.382A6.388 6.388 0 0 1 27 20.62zm-2.11 0a4.276 4.276 0 0 0-4.27-4.271 4.276 4.276 0 0 0-4.272 4.271 4.276 4.276 0 0 0 4.271 4.272 4.276 4.276 0 0 0 4.272-4.272zm-1.687 0c0 .583-.472 1.055-1.055 1.055H20.62a1.055 1.055 0 0 1-1.055-1.055v-2.162a1.055 1.055 0 1 1 2.11 0v1.107h.474c.583 0 1.055.473 1.055 1.055zm-7.435-10.6a1.055 1.055 0 1 1 0 2.11 1.055 1.055 0 0 1 0-2.11zm-4.588 4.588a1.055 1.055 0 1 1 0 2.11 1.055 1.055 0 0 1 0-2.11zM6.592 10.02a1.055 1.055 0 1 1 0 2.109 1.055 1.055 0 0 1 0-2.11zm0 4.587a1.055 1.055 0 1 1 0 2.11 1.055 1.055 0 0 1 0-2.11zm0 4.588a1.055 1.055 0 1 1 0 2.11 1.055 1.055 0 0 1 0-2.11zm4.588 0a1.055 1.055 0 1 1 0 2.11 1.055 1.055 0 0 1 0-2.11zm0-9.175a1.055 1.055 0 1 1 0 2.109 1.055 1.055 0 0 1 0-2.11z"/></g></g></svg>