<svg xmlns="http://www.w3.org/2000/svg" width="17" height="18" viewBox="0 0 17 18"><g><g><path d="M16.628 3.44v13.405c0 .69-.548 1.25-1.224 1.25H1.405c-.675 0-1.223-.56-1.223-1.25V3.44c0-.69.548-1.25 1.223-1.25h1.347v-.94C2.752.56 3.299 0 3.975 0h.05C4.7 0 5.247.56 5.247 1.25v.94h6.314v-.94c0-.69.548-1.25 1.224-1.25h.049c.675 0 1.223.56 1.223 1.25v.94h1.346c.676 0 1.224.56 1.224 1.25zm-2.056 2.526H2.238V16.12h12.334zM3.718 10.36V8.185c0-.11.088-.2.196-.2h2.13c.107 0 .195.09.195.2v2.176c0 .11-.088.2-.196.2H3.914a.198.198 0 0 1-.196-.2zm3.427 0V8.185c0-.11.087-.2.195-.2h2.13c.108 0 .195.09.195.2v2.176c0 .11-.087.2-.196.2H7.34a.198.198 0 0 1-.195-.2zm3.426 0V8.185c0-.11.087-.2.196-.2h2.129c.108 0 .195.09.195.2v2.176c0 .11-.087.2-.195.2h-2.13a.198.198 0 0 1-.195-.2zm-6.853 3.5v-2.175c0-.11.088-.2.196-.2h2.13c.107 0 .195.09.195.2v2.176c0 .11-.088.2-.196.2H3.914a.198.198 0 0 1-.196-.2zm3.427 0v-2.175c0-.11.087-.2.195-.2h2.13c.108 0 .195.09.195.2v2.176c0 .11-.087.2-.196.2H7.34a.198.198 0 0 1-.195-.2zm3.426 0v-2.175c0-.11.087-.2.196-.2h2.129c.108 0 .195.09.195.2v2.176c0 .11-.087.2-.195.2h-2.13a.198.198 0 0 1-.195-.2z"/></g></g></svg>