<svg xmlns="http://www.w3.org/2000/svg" width="27" height="27" viewBox="0 0 27 27"><g><g><path fill="#fff" d="M24.89 15.398v-2.267c0-1.163-.946-2.11-2.109-2.11H4.22c-1.163 0-2.11.947-2.11 2.11v7.54c0 1.164.947 2.11 2.11 2.11H6.38v-4.377H5.273a1.055 1.055 0 1 1 0-2.11h16.454a1.055 1.055 0 1 1 0 2.11h-1.108v4.377h2.162c1.163 0 2.11-.946 2.11-2.11a1.054 1.054 0 1 1 2.11 0 4.224 4.224 0 0 1-4.22 4.22H20.62v1.054c0 .583-.472 1.055-1.055 1.055H7.436a1.054 1.054 0 0 1-1.055-1.055v-1.054H4.219A4.224 4.224 0 0 1 0 20.67v-7.54c0-1.58.873-2.959 2.162-3.682V5.748c0-.583.472-1.055 1.055-1.055H6.38V1.055C6.38.472 6.853 0 7.436 0h12.128c.583 0 1.055.472 1.055 1.055v3.638h3.164c.583 0 1.055.472 1.055 1.055v3.701A4.221 4.221 0 0 1 27 13.131v2.267a1.055 1.055 0 0 1-2.11 0zm-16.4 3.006v6.487h10.02v-6.487zM20.62 6.803v2.109h2.109v-2.11zM8.49 2.109v6.803h10.02V2.109zM4.271 6.803v2.109h2.11v-2.11zm5.801-1.055c0-.583.472-1.055 1.055-1.055h4.746a1.054 1.054 0 1 1 0 2.11h-4.746a1.055 1.055 0 0 1-1.055-1.055z"/></g></g></svg>