<svg xmlns="http://www.w3.org/2000/svg" width="16" height="7" viewBox="0 0 16 7"><g><g><path fill="#19b9de" d="M15.743 6.89c.18-.145.27-.34.27-.586l-.01-2.881a1.204 1.204 0 0 0-.067-.441 1.52 1.52 0 0 0-.202-.408 1.229 1.229 0 0 1-.058-.07 2.022 2.022 0 0 0-.13-.147 6.845 6.845 0 0 0-.706-.598c-.34-.26-.811-.521-1.414-.782-.604-.26-1.352-.489-2.246-.684-.895-.195-1.955-.29-3.182-.282a15.456 15.456 0 0 0-2.58.175C4.664.31 4.003.464 3.439.65a8.952 8.952 0 0 0-1.446.599 7.463 7.463 0 0 0-.978.609 3.696 3.696 0 0 0-.556.495L.26 2.58c-.083.116-.151.251-.203.407a1.204 1.204 0 0 0-.068.441V6.32c0 .203.062.37.186.5a.54.54 0 0 0 .318.168.992.992 0 0 0 .369-.016l3.224-1.046a.72.72 0 0 0 .416-.325.988.988 0 0 0 .156-.533V4.002c0-.029.01-.065.031-.108a.375.375 0 0 1 .063-.098c.173-.124.402-.233.686-.326.25-.087.58-.165.994-.234.412-.069.934-.1 1.564-.093.631-.007 1.157.023 1.576.092.42.068.752.144.998.227.246.084.421.162.525.234l.156.108a.368.368 0 0 1 .052.087c.021.044.031.08.031.11l-.01 1.25a.962.962 0 0 0 .27.63c.118.123.232.2.343.228l.01.01 3.192.86c.236.056.437.027.604-.088z"/></g></g></svg>