<svg xmlns="http://www.w3.org/2000/svg" width="14" height="14" viewBox="0 0 14 14"><g><g><path fill="#19b9de" d="M13.993 11.049a.676.676 0 0 1-.207.593l-1.972 1.957a1.109 1.109 0 0 1-.348.252c-.143.07-.284.114-.422.134l-.09.007c-.049.005-.113.008-.192.008-.188 0-.491-.032-.911-.096-.42-.065-.934-.223-1.542-.475-.607-.252-1.296-.63-2.067-1.135-.77-.504-1.59-1.196-2.46-2.076a16.26 16.26 0 0 1-1.72-1.957A13.982 13.982 0 0 1 .966 6.533a9.332 9.332 0 0 1-.623-1.439c-.138-.43-.232-.8-.281-1.112a3.68 3.68 0 0 1-.06-.734c.01-.178.015-.277.015-.297.02-.138.064-.28.133-.422.07-.144.154-.26.252-.349L2.374.207A.654.654 0 0 1 2.848 0a.55.55 0 0 1 .34.111c.1.074.184.166.253.274l1.585 3.011c.09.158.114.331.075.52a.928.928 0 0 1-.252.474l-.727.726a.252.252 0 0 0-.051.097.37.37 0 0 0-.023.111c.04.208.129.445.267.712.119.238.301.526.549.867.247.342.597.735 1.052 1.18.444.455.84.808 1.185 1.06.346.252.635.438.867.556.233.119.41.19.534.215l.185.037c.02 0 .052-.007.096-.022a.253.253 0 0 0 .097-.052l.845-.86a.91.91 0 0 1 .622-.238c.168 0 .302.03.4.09h.015l2.86 1.69c.208.129.331.292.371.49z"/></g></g></svg>