<svg xmlns="http://www.w3.org/2000/svg" width="17" height="16" viewBox="0 0 17 16"><g><g><path fill="#19b9de" d="M17 7.579c0 4.179-3.814 7.58-8.501 7.58a9.3 9.3 0 0 1-3.47-.66C3.101 15.6.435 15.98.32 15.997a.283.283 0 0 1-.293-.153.279.279 0 0 1 .053-.323c.652-.645 1.101-2.008 1.269-3.843-.885-1.223-1.352-2.638-1.352-4.1C-.003 3.4 3.811 0 8.5 0 13.186 0 17 3.4 17 7.58zm-11.335 0a1.13 1.13 0 0 0-1.134-1.123 1.13 1.13 0 0 0-1.133 1.123c0 .62.508 1.123 1.133 1.123a1.13 1.13 0 0 0 1.134-1.123zm3.967 0A1.13 1.13 0 0 0 8.5 6.456a1.13 1.13 0 0 0-1.134 1.123c0 .62.509 1.123 1.134 1.123a1.13 1.13 0 0 0 1.133-1.123zm3.968 0a1.13 1.13 0 0 0-1.134-1.123 1.13 1.13 0 0 0-1.133 1.123c0 .62.508 1.123 1.133 1.123A1.13 1.13 0 0 0 13.6 7.579z"/></g></g></svg>