<svg xmlns="http://www.w3.org/2000/svg" width="16" height="16" viewBox="0 0 16 16"><g><g><path fill="#19b9de" d="M13 11h-1a2 2 0 0 1-2-2v-.643c.442-.526.76-1.148.957-1.805.02-.11.127-.165.198-.241.383-.383.458-1.03.171-1.49-.039-.07-.11-.13-.105-.217 0-.586.003-1.173-.001-1.76-.016-.707-.218-1.443-.714-1.967-.4-.423-.95-.675-1.518-.782a5.03 5.03 0 0 0-2.176.05C6.196.3 5.618.66 5.26 1.195c-.317.464-.455 1.029-.479 1.584-.009.597-.002 1.195-.004 1.793.014.12-.087.201-.133.3-.27.49-.152 1.159.283 1.516.11.076.13.215.17.334.19.59.505 1.137.902 1.614v.663A2 2 0 0 1 4 11H3s-1.812.5-3 3v1a1 1 0 0 0 1 1h14a1 1 0 0 0 1-1v-1c-1.187-2.5-3-3-3-3z"/></g></g></svg>