<svg xmlns="http://www.w3.org/2000/svg" width="23" height="13" viewBox="0 0 23 13"><g><g><path fill="#fff" d="M19.795 8.266c.763.744 1.568 1.444 2.252 2.263.303.364.589.74.808 1.162.31.6.029 1.261-.51 1.296h-3.35c-.865.07-1.554-.277-2.134-.866-.464-.473-.893-.974-1.34-1.463a3.179 3.179 0 0 0-.602-.535c-.458-.296-.855-.205-1.116.27-.266.485-.327 1.022-.353 1.562-.036.788-.274.995-1.067 1.031-1.694.08-3.301-.176-4.794-1.03-1.317-.751-2.338-1.813-3.226-3.016C2.633 6.6 1.308 4.026.117 1.38-.15.786.045.466.703.455 1.796.433 2.89.434 3.983.452c.445.007.739.26.91.68.592 1.452 1.316 2.835 2.224 4.116.242.34.488.681.84.922.388.265.684.177.867-.255.116-.274.166-.57.193-.863.086-1.01.098-2.019-.054-3.025C8.869 1.398 8.515.992 7.888.873c-.32-.06-.273-.18-.118-.362C8.04.196 8.293 0 8.798 0h3.786c.597.118.729.385.81.985l.004 4.2c-.007.232.116.92.534 1.074.335.11.555-.158.756-.37.907-.962 1.554-2.097 2.132-3.273a21.26 21.26 0 0 0 .691-1.591c.158-.398.407-.594.856-.585l3.644.003c.108 0 .218.001.322.019.615.104.783.368.593.967-.299.94-.88 1.723-1.449 2.51-.607.84-1.257 1.651-1.86 2.497-.554.77-.51 1.16.178 1.83z"/></g></g></svg>